G04 #@! TF.FileFunction,Soldermask,Bot*
%FSLAX46Y46*%
G04 Gerber Fmt 4.6, Leading zero omitted, Abs format (unit mm)*
G04 Created by KiCad (PCBNEW 4.0.7) date Wed Nov 15 23:42:34 2017*
%MOMM*%
%LPD*%
G01*
G04 APERTURE LIST*
%ADD10C,0.100000*%
%ADD11R,1.727200X1.727200*%
%ADD12O,1.727200X1.727200*%
%ADD13R,2.000000X2.000000*%
%ADD14R,1.100000X1.100000*%
%ADD15R,1.560000X0.650000*%
%ADD16C,6.200000*%
%ADD17R,1.500000X1.250000*%
%ADD18R,1.250000X1.500000*%
%ADD19R,1.600000X1.600000*%
%ADD20C,1.600000*%
%ADD21R,2.000000X2.600000*%
%ADD22O,2.000000X2.600000*%
%ADD23R,2.600000X2.000000*%
%ADD24O,2.600000X2.000000*%
%ADD25R,1.900000X0.800000*%
%ADD26R,1.500000X1.300000*%
%ADD27R,1.620000X1.620000*%
%ADD28C,1.620000*%
G04 APERTURE END LIST*
D10*
D11*
X89600000Y-62600000D03*
D12*
X92140000Y-62600000D03*
X89600000Y-65140000D03*
X92140000Y-65140000D03*
X89600000Y-67680000D03*
X92140000Y-67680000D03*
D13*
X109750000Y-57970000D03*
X107210000Y-57970000D03*
X95670000Y-77870000D03*
X98210000Y-77870000D03*
X95670000Y-57970000D03*
X98210000Y-57970000D03*
X107210000Y-77870000D03*
X109750000Y-77870000D03*
D14*
X74800000Y-82800000D03*
X74800000Y-85600000D03*
D15*
X80550000Y-99450000D03*
X80550000Y-100400000D03*
X80550000Y-101350000D03*
X77850000Y-101350000D03*
X77850000Y-99450000D03*
X77850000Y-100400000D03*
D11*
X72370000Y-53520000D03*
D12*
X72370000Y-50980000D03*
X74910000Y-53520000D03*
X74910000Y-50980000D03*
X77450000Y-53520000D03*
X77450000Y-50980000D03*
X79990000Y-53520000D03*
X79990000Y-50980000D03*
X82530000Y-53520000D03*
X82530000Y-50980000D03*
X85070000Y-53520000D03*
X85070000Y-50980000D03*
X87610000Y-53520000D03*
X87610000Y-50980000D03*
X90150000Y-53520000D03*
X90150000Y-50980000D03*
X92690000Y-53520000D03*
X92690000Y-50980000D03*
X95230000Y-53520000D03*
X95230000Y-50980000D03*
X97770000Y-53520000D03*
X97770000Y-50980000D03*
X100310000Y-53520000D03*
X100310000Y-50980000D03*
X102850000Y-53520000D03*
X102850000Y-50980000D03*
X105390000Y-53520000D03*
X105390000Y-50980000D03*
X107930000Y-53520000D03*
X107930000Y-50980000D03*
X110470000Y-53520000D03*
X110470000Y-50980000D03*
X113010000Y-53520000D03*
X113010000Y-50980000D03*
X115550000Y-53520000D03*
X115550000Y-50980000D03*
X118090000Y-53520000D03*
X118090000Y-50980000D03*
X120630000Y-53520000D03*
X120630000Y-50980000D03*
D16*
X125500000Y-52250000D03*
X125500000Y-101250000D03*
X67500000Y-101250000D03*
X67500000Y-52250000D03*
D17*
X68450000Y-71800000D03*
X65950000Y-71800000D03*
X75050000Y-74200000D03*
X72550000Y-74200000D03*
X75050000Y-76200000D03*
X72550000Y-76200000D03*
X104550000Y-71600000D03*
X107050000Y-71600000D03*
D18*
X80800000Y-66150000D03*
X80800000Y-68650000D03*
D17*
X117650000Y-73800000D03*
X115150000Y-73800000D03*
D19*
X101000000Y-85600000D03*
D20*
X97500000Y-85600000D03*
D19*
X110000000Y-85600000D03*
D20*
X106500000Y-85600000D03*
D19*
X119000000Y-85600000D03*
D20*
X115500000Y-85600000D03*
D14*
X75000000Y-98800000D03*
X75000000Y-101600000D03*
X74800000Y-91000000D03*
X74800000Y-93800000D03*
D21*
X92710000Y-101600000D03*
D22*
X95250000Y-101600000D03*
D23*
X67310000Y-85090000D03*
D24*
X67310000Y-87630000D03*
D23*
X67290000Y-92700000D03*
D24*
X67290000Y-95240000D03*
D23*
X67040000Y-59460000D03*
D24*
X67040000Y-62000000D03*
D21*
X113030000Y-101600000D03*
D22*
X115570000Y-101600000D03*
D25*
X101700000Y-67050000D03*
X101700000Y-68950000D03*
X98700000Y-68000000D03*
X109900000Y-68750000D03*
X109900000Y-66850000D03*
X112900000Y-67800000D03*
X109900000Y-64550000D03*
X109900000Y-62650000D03*
X112900000Y-63600000D03*
D26*
X104450000Y-69200000D03*
X107150000Y-69200000D03*
X82850000Y-99200000D03*
X85550000Y-99200000D03*
X82850000Y-101600000D03*
X85550000Y-101600000D03*
X82450000Y-83600000D03*
X85150000Y-83600000D03*
X82450000Y-85600000D03*
X85150000Y-85600000D03*
X82650000Y-91800000D03*
X85350000Y-91800000D03*
X82650000Y-93800000D03*
X85350000Y-93800000D03*
X107150000Y-73800000D03*
X104450000Y-73800000D03*
X101750000Y-73800000D03*
X99050000Y-73800000D03*
X104450000Y-67000000D03*
X107150000Y-67000000D03*
X104450000Y-62600000D03*
X107150000Y-62600000D03*
X112550000Y-71400000D03*
X109850000Y-71400000D03*
X109850000Y-73800000D03*
X112550000Y-73800000D03*
D27*
X90800000Y-79800000D03*
D28*
X90800000Y-77260000D03*
X90800000Y-74720000D03*
D15*
X80150000Y-83650000D03*
X80150000Y-84600000D03*
X80150000Y-85550000D03*
X77450000Y-85550000D03*
X77450000Y-83650000D03*
X77450000Y-84600000D03*
X80150000Y-91850000D03*
X80150000Y-92800000D03*
X80150000Y-93750000D03*
X77450000Y-93750000D03*
X77450000Y-91850000D03*
X77450000Y-92800000D03*
D21*
X100330000Y-101600000D03*
D22*
X102870000Y-101600000D03*
X105410000Y-101600000D03*
X107950000Y-101600000D03*
D13*
X127000000Y-57920000D03*
X124460000Y-57920000D03*
X112920000Y-77820000D03*
X115460000Y-77820000D03*
X112920000Y-57920000D03*
X115460000Y-57920000D03*
X124460000Y-77820000D03*
X127000000Y-77820000D03*
M02*
