G04 #@! TF.FileFunction,Copper,L1,Top,Signal*
%FSLAX46Y46*%
G04 Gerber Fmt 4.6, Leading zero omitted, Abs format (unit mm)*
G04 Created by KiCad (PCBNEW 4.0.7) date Wed Nov 15 19:51:43 2017*
%MOMM*%
%LPD*%
G01*
G04 APERTURE LIST*
%ADD10C,0.100000*%
%ADD11R,1.727200X1.727200*%
%ADD12O,1.727200X1.727200*%
%ADD13R,1.560000X0.650000*%
%ADD14R,3.500000X1.800000*%
%ADD15R,2.000000X2.000000*%
%ADD16R,1.900000X0.800000*%
%ADD17R,1.500000X1.250000*%
%ADD18R,1.250000X1.500000*%
%ADD19R,1.600000X1.600000*%
%ADD20C,1.600000*%
%ADD21R,1.100000X1.100000*%
%ADD22R,0.800000X0.900000*%
%ADD23R,0.600000X1.500000*%
%ADD24R,2.000000X2.600000*%
%ADD25O,2.000000X2.600000*%
%ADD26R,2.600000X2.000000*%
%ADD27O,2.600000X2.000000*%
%ADD28R,0.800000X1.900000*%
%ADD29R,1.500000X1.300000*%
%ADD30R,1.300000X1.500000*%
%ADD31R,1.620000X1.620000*%
%ADD32C,1.620000*%
%ADD33R,2.400000X2.500000*%
%ADD34R,1.500000X0.400000*%
%ADD35C,0.600000*%
%ADD36C,0.200000*%
%ADD37C,0.800000*%
%ADD38C,0.400000*%
%ADD39C,0.250000*%
G04 APERTURE END LIST*
D10*
D11*
X89600000Y-62600000D03*
D12*
X92140000Y-62600000D03*
X89600000Y-65140000D03*
X92140000Y-65140000D03*
X89600000Y-67680000D03*
X92140000Y-67680000D03*
D13*
X83250000Y-79050000D03*
X83250000Y-80000000D03*
X83250000Y-80950000D03*
X85950000Y-80950000D03*
X85950000Y-79050000D03*
X85950000Y-80000000D03*
D14*
X83900000Y-92200000D03*
X88900000Y-92200000D03*
D15*
X109750000Y-57970000D03*
X107210000Y-57970000D03*
X95670000Y-77870000D03*
X98210000Y-77870000D03*
X95670000Y-57970000D03*
X98210000Y-57970000D03*
X107210000Y-77870000D03*
X109750000Y-77870000D03*
D16*
X77700000Y-89850000D03*
X77700000Y-87950000D03*
X74700000Y-88900000D03*
D11*
X72370000Y-53520000D03*
D12*
X72370000Y-50980000D03*
X74910000Y-53520000D03*
X74910000Y-50980000D03*
X77450000Y-53520000D03*
X77450000Y-50980000D03*
X79990000Y-53520000D03*
X79990000Y-50980000D03*
X82530000Y-53520000D03*
X82530000Y-50980000D03*
X85070000Y-53520000D03*
X85070000Y-50980000D03*
X87610000Y-53520000D03*
X87610000Y-50980000D03*
X90150000Y-53520000D03*
X90150000Y-50980000D03*
X92690000Y-53520000D03*
X92690000Y-50980000D03*
X95230000Y-53520000D03*
X95230000Y-50980000D03*
X97770000Y-53520000D03*
X97770000Y-50980000D03*
X100310000Y-53520000D03*
X100310000Y-50980000D03*
X102850000Y-53520000D03*
X102850000Y-50980000D03*
X105390000Y-53520000D03*
X105390000Y-50980000D03*
X107930000Y-53520000D03*
X107930000Y-50980000D03*
X110470000Y-53520000D03*
X110470000Y-50980000D03*
X113010000Y-53520000D03*
X113010000Y-50980000D03*
X115550000Y-53520000D03*
X115550000Y-50980000D03*
X118090000Y-53520000D03*
X118090000Y-50980000D03*
X120630000Y-53520000D03*
X120630000Y-50980000D03*
D17*
X77750000Y-78000000D03*
X80250000Y-78000000D03*
X83350000Y-77000000D03*
X85850000Y-77000000D03*
D18*
X72000000Y-64750000D03*
X72000000Y-67250000D03*
D17*
X89350000Y-58400000D03*
X91850000Y-58400000D03*
D19*
X101000000Y-85600000D03*
D20*
X97500000Y-85600000D03*
D19*
X110000000Y-85600000D03*
D20*
X106500000Y-85600000D03*
D19*
X119000000Y-85600000D03*
D20*
X115500000Y-85600000D03*
D14*
X78700000Y-85090000D03*
X73700000Y-85090000D03*
X78300000Y-92200000D03*
X73300000Y-92200000D03*
D21*
X79800000Y-101800000D03*
X82600000Y-101800000D03*
D14*
X78700000Y-81000000D03*
X73700000Y-81000000D03*
D21*
X124400000Y-87200000D03*
X127200000Y-87200000D03*
D14*
X83900000Y-85000000D03*
X88900000Y-85000000D03*
D22*
X127650000Y-91600000D03*
X125550000Y-91600000D03*
X127650000Y-93800000D03*
X125550000Y-93800000D03*
D21*
X111400000Y-91200000D03*
X111400000Y-94000000D03*
D23*
X81385000Y-68000000D03*
X80115000Y-68000000D03*
X78845000Y-68000000D03*
X77575000Y-68000000D03*
X76305000Y-68000000D03*
X75035000Y-68000000D03*
X82655000Y-68000000D03*
X83925000Y-68000000D03*
X85195000Y-68000000D03*
X86465000Y-68000000D03*
X86465000Y-58500000D03*
X85195000Y-58500000D03*
X83925000Y-58500000D03*
X82655000Y-58500000D03*
X81385000Y-58500000D03*
X80115000Y-58500000D03*
X78845000Y-58500000D03*
X77575000Y-58500000D03*
X76305000Y-58500000D03*
X75035000Y-58500000D03*
D24*
X92710000Y-101600000D03*
D25*
X95250000Y-101600000D03*
D26*
X67310000Y-85090000D03*
D27*
X67310000Y-87630000D03*
D26*
X67290000Y-92700000D03*
D27*
X67290000Y-95240000D03*
D26*
X67040000Y-59460000D03*
D27*
X67040000Y-62000000D03*
D24*
X113030000Y-101600000D03*
D25*
X115570000Y-101600000D03*
D28*
X87850000Y-98500000D03*
X89750000Y-98500000D03*
X88800000Y-95500000D03*
X84750000Y-95500000D03*
X82850000Y-95500000D03*
X83800000Y-98500000D03*
D16*
X78100000Y-96950000D03*
X78100000Y-95050000D03*
X75100000Y-96000000D03*
X123650000Y-80800000D03*
X123650000Y-82700000D03*
X126650000Y-81750000D03*
D28*
X108950000Y-93500000D03*
X107050000Y-93500000D03*
X108000000Y-96500000D03*
D29*
X89350000Y-101800000D03*
X86650000Y-101800000D03*
X72450000Y-70250000D03*
X75150000Y-70250000D03*
X72450000Y-74250000D03*
X75150000Y-74250000D03*
X68550000Y-69800000D03*
X65850000Y-69800000D03*
X75150000Y-72200000D03*
X72450000Y-72200000D03*
X75150000Y-76200000D03*
X72450000Y-76200000D03*
D30*
X72000000Y-59400000D03*
X72000000Y-62100000D03*
D29*
X124250000Y-84800000D03*
X126950000Y-84800000D03*
X120450000Y-91600000D03*
X123150000Y-91600000D03*
X68550000Y-65800000D03*
X65850000Y-65800000D03*
X120450000Y-93800000D03*
X123150000Y-93800000D03*
D30*
X113800000Y-91250000D03*
X113800000Y-93950000D03*
D29*
X65850000Y-71800000D03*
X68550000Y-71800000D03*
X68550000Y-77200000D03*
X65850000Y-77200000D03*
X68550000Y-67800000D03*
X65850000Y-67800000D03*
D31*
X90800000Y-79800000D03*
D32*
X90800000Y-77260000D03*
X90800000Y-74720000D03*
D13*
X77850000Y-73850000D03*
X77850000Y-74800000D03*
X77850000Y-75750000D03*
X80550000Y-75750000D03*
X80550000Y-73850000D03*
D33*
X83450000Y-88600000D03*
X89750000Y-88600000D03*
D34*
X68580000Y-75250000D03*
X68580000Y-74600000D03*
X68580000Y-73950000D03*
X65920000Y-73950000D03*
X65920000Y-74600000D03*
X65920000Y-75250000D03*
D24*
X100330000Y-101600000D03*
D25*
X102870000Y-101600000D03*
X105410000Y-101600000D03*
X107950000Y-101600000D03*
D15*
X127000000Y-57920000D03*
X124460000Y-57920000D03*
X112920000Y-77820000D03*
X115460000Y-77820000D03*
X112920000Y-57920000D03*
X115460000Y-57920000D03*
X124460000Y-77820000D03*
X127000000Y-77820000D03*
D35*
X69800000Y-71800000D03*
X109000000Y-68800000D03*
X109000000Y-64600000D03*
X86400000Y-66200000D03*
X77000000Y-74800000D03*
X71400000Y-72200000D03*
X127800000Y-92800000D03*
X68600000Y-75800000D03*
X72400000Y-77400000D03*
X85600000Y-76200000D03*
X70600000Y-68000000D03*
X92600000Y-58400000D03*
X81800000Y-80000000D03*
X75000000Y-73000000D03*
X75200000Y-75400000D03*
X83600000Y-66200000D03*
X81600000Y-73800000D03*
X90200000Y-58400000D03*
X77200000Y-64400000D03*
X77400000Y-66600000D03*
X103000000Y-72200000D03*
X82000000Y-66400000D03*
X90800000Y-71200000D03*
X109800000Y-75200000D03*
X75600000Y-66400000D03*
X77000000Y-70600000D03*
X76400000Y-82600000D03*
X78400000Y-98200000D03*
X78800000Y-90800000D03*
X78800000Y-82600000D03*
X69400000Y-79600000D03*
X69400000Y-81600000D03*
X76400000Y-90800000D03*
X104400000Y-70400000D03*
X128600000Y-89800000D03*
X114800000Y-67000000D03*
X127400000Y-75600000D03*
X116200000Y-67400000D03*
X87500000Y-64700000D03*
X82800000Y-60000000D03*
X105800000Y-65400000D03*
X85600000Y-59800000D03*
X87600000Y-59800000D03*
X85800000Y-64200000D03*
X80250000Y-60250000D03*
X104400000Y-61600000D03*
X88000000Y-61000000D03*
X85600000Y-60600000D03*
X79200000Y-63600000D03*
X79200000Y-70400000D03*
X83400000Y-73000000D03*
X84600000Y-66200000D03*
X78200000Y-64400000D03*
X78200000Y-71000000D03*
X83200000Y-56800000D03*
X75000000Y-60250000D03*
X118400000Y-76600000D03*
X118400000Y-78000000D03*
X122000000Y-76600000D03*
X120600000Y-75000000D03*
X122000000Y-78000000D03*
X120800000Y-76600000D03*
X119600000Y-76600000D03*
X119600000Y-78000000D03*
X118200000Y-96000000D03*
X118200000Y-94800000D03*
X118200000Y-93400000D03*
X117000000Y-93400000D03*
X117000000Y-94800000D03*
X117000000Y-96000000D03*
X115600000Y-96000000D03*
X115600000Y-94800000D03*
X115600000Y-93400000D03*
X120800000Y-78000000D03*
X114200000Y-71400000D03*
X113800000Y-92600000D03*
X98800000Y-69400000D03*
X116800000Y-75600000D03*
X85000000Y-97400000D03*
X76200000Y-86800000D03*
X76200000Y-94800000D03*
X123000000Y-76000000D03*
X115400000Y-91000000D03*
X79200000Y-98800000D03*
D36*
X69800000Y-71800000D02*
X68550000Y-71800000D01*
X73650000Y-65750000D02*
X73650000Y-68750000D01*
X73650000Y-68750000D02*
X73400000Y-69000000D01*
X73400000Y-69000000D02*
X71200000Y-69000000D01*
X71200000Y-69000000D02*
X70400000Y-69800000D01*
X70400000Y-69800000D02*
X69600000Y-69800000D01*
X74000000Y-65750000D02*
X73650000Y-65750000D01*
X69600000Y-69800000D02*
X68550000Y-69800000D01*
X68550000Y-71800000D02*
X68550000Y-69800000D01*
X81385000Y-68000000D02*
X81385000Y-66885000D01*
X80250000Y-65750000D02*
X74000000Y-65750000D01*
X81385000Y-66885000D02*
X80250000Y-65750000D01*
X68600000Y-71800000D02*
X68750000Y-71800000D01*
D37*
X109000000Y-68800000D02*
X109000000Y-64600000D01*
X86465000Y-68000000D02*
X86465000Y-66265000D01*
X86465000Y-66265000D02*
X86400000Y-66200000D01*
D36*
X77850000Y-74800000D02*
X77000000Y-74800000D01*
X72450000Y-72200000D02*
X71400000Y-72200000D01*
D37*
X127650000Y-93800000D02*
X127650000Y-92950000D01*
X127650000Y-92950000D02*
X127800000Y-92800000D01*
X127650000Y-91600000D02*
X127650000Y-92650000D01*
X127650000Y-92650000D02*
X127800000Y-92800000D01*
D38*
X68580000Y-75250000D02*
X68580000Y-75780000D01*
X68580000Y-75780000D02*
X68600000Y-75800000D01*
X72450000Y-76200000D02*
X72450000Y-77350000D01*
X72450000Y-77350000D02*
X72400000Y-77400000D01*
D37*
X85850000Y-77000000D02*
X85850000Y-76450000D01*
X85850000Y-76450000D02*
X85600000Y-76200000D01*
D36*
X72000000Y-67250000D02*
X71350000Y-67250000D01*
X71350000Y-67250000D02*
X70600000Y-68000000D01*
D37*
X91850000Y-58400000D02*
X92600000Y-58400000D01*
D38*
X83250000Y-80000000D02*
X81800000Y-80000000D01*
X83250000Y-80000000D02*
X81400000Y-80000000D01*
X81400000Y-80000000D02*
X80250000Y-78850000D01*
X80250000Y-78850000D02*
X80250000Y-78000000D01*
D36*
X65850000Y-65800000D02*
X65850000Y-63190000D01*
X65850000Y-63190000D02*
X67040000Y-62000000D01*
X65850000Y-69800000D02*
X65400000Y-69800000D01*
X65400000Y-69800000D02*
X64600000Y-69000000D01*
X64600000Y-69000000D02*
X64600000Y-66200000D01*
X64600000Y-66200000D02*
X65000000Y-65800000D01*
X65000000Y-65800000D02*
X65850000Y-65800000D01*
X87610000Y-50980000D02*
X87610000Y-50390000D01*
X75000000Y-73000000D02*
X75150000Y-72850000D01*
X75150000Y-72850000D02*
X75150000Y-72800000D01*
X78845000Y-69155000D02*
X78045000Y-69155000D01*
X78045000Y-69155000D02*
X77400000Y-69800000D01*
X77400000Y-69800000D02*
X75600000Y-69800000D01*
X75600000Y-69800000D02*
X75150000Y-70250000D01*
X75150000Y-70250000D02*
X75150000Y-72800000D01*
X78845000Y-69155000D02*
X78845000Y-68000000D01*
X75200000Y-75400000D02*
X75150000Y-75450000D01*
X75150000Y-75450000D02*
X75150000Y-76200000D01*
X74050000Y-69250000D02*
X77350000Y-69250000D01*
X77350000Y-69250000D02*
X77575000Y-69025000D01*
X77575000Y-69025000D02*
X77575000Y-68000000D01*
X74050000Y-71250000D02*
X74050000Y-69250000D01*
X75150000Y-74250000D02*
X75150000Y-76400000D01*
X75150000Y-74250000D02*
X74300000Y-74250000D01*
X74050000Y-74000000D02*
X74050000Y-71250000D01*
X74300000Y-74250000D02*
X74050000Y-74000000D01*
D38*
X80550000Y-75750000D02*
X79200000Y-75750000D01*
X79200000Y-75750000D02*
X79200000Y-75800000D01*
X77850000Y-73850000D02*
X79050000Y-73850000D01*
X79050000Y-73850000D02*
X79200000Y-74000000D01*
X79200000Y-74000000D02*
X79200000Y-75800000D01*
X79200000Y-75800000D02*
X79200000Y-76600000D01*
X79200000Y-76600000D02*
X77800000Y-78000000D01*
X77800000Y-78000000D02*
X77750000Y-78000000D01*
D36*
X77750000Y-78000000D02*
X77750000Y-77850000D01*
D38*
X78700000Y-81000000D02*
X78700000Y-80700000D01*
X78700000Y-80700000D02*
X77750000Y-79750000D01*
X77750000Y-79750000D02*
X77750000Y-78000000D01*
D37*
X83900000Y-85000000D02*
X83900000Y-84300000D01*
X83900000Y-84300000D02*
X80600000Y-81000000D01*
X80600000Y-81000000D02*
X78700000Y-81000000D01*
X83900000Y-85000000D02*
X83900000Y-84900000D01*
D38*
X83900000Y-84400000D02*
X83400000Y-84400000D01*
D37*
X83600000Y-66200000D02*
X83600000Y-64000000D01*
X86600000Y-62000000D02*
X86600000Y-59400000D01*
X86400000Y-62200000D02*
X86600000Y-62000000D01*
X85400000Y-62200000D02*
X86400000Y-62200000D01*
X84000000Y-63600000D02*
X85400000Y-62200000D01*
X86600000Y-58635000D02*
X86600000Y-59400000D01*
X83600000Y-64000000D02*
X84000000Y-63600000D01*
X83350000Y-77000000D02*
X83350000Y-75550000D01*
X83350000Y-75550000D02*
X81600000Y-73800000D01*
X80550000Y-73850000D02*
X81550000Y-73850000D01*
X81550000Y-73850000D02*
X81600000Y-73800000D01*
X89350000Y-58400000D02*
X86565000Y-58400000D01*
X86565000Y-58400000D02*
X86465000Y-58500000D01*
X86600000Y-58635000D02*
X86465000Y-58500000D01*
D38*
X86465000Y-58500000D02*
X89250000Y-58500000D01*
X89250000Y-58500000D02*
X89350000Y-58400000D01*
X90200000Y-58400000D02*
X89350000Y-58400000D01*
X83350000Y-77000000D02*
X83350000Y-78950000D01*
X83350000Y-78950000D02*
X83250000Y-79050000D01*
D36*
X83250000Y-77100000D02*
X83350000Y-77000000D01*
X88000000Y-58500000D02*
X89250000Y-58500000D01*
X89250000Y-58500000D02*
X89350000Y-58400000D01*
X89350000Y-58400000D02*
X89600000Y-58400000D01*
X86465000Y-58500000D02*
X88000000Y-58500000D01*
X88000000Y-58500000D02*
X89250000Y-58500000D01*
X89250000Y-58500000D02*
X89350000Y-58400000D01*
X77200000Y-64400000D02*
X77000000Y-64200000D01*
X77000000Y-64200000D02*
X72000000Y-64200000D01*
X76305000Y-68000000D02*
X76305000Y-67095000D01*
X76305000Y-67095000D02*
X76800000Y-66600000D01*
X76800000Y-66600000D02*
X77400000Y-66600000D01*
X72000000Y-64000000D02*
X72000000Y-64200000D01*
X72000000Y-64200000D02*
X72000000Y-64250000D01*
X72000000Y-64250000D02*
X72000000Y-64750000D01*
X71000000Y-65750000D02*
X68600000Y-65750000D01*
X72000000Y-64750000D02*
X71000000Y-65750000D01*
X72000000Y-64000000D02*
X72000000Y-62100000D01*
X94400000Y-72200000D02*
X103000000Y-72200000D01*
X84600000Y-70400000D02*
X85200000Y-70400000D01*
X85200000Y-70400000D02*
X87000000Y-72200000D01*
X87000000Y-72200000D02*
X94400000Y-72200000D01*
X80115000Y-68000000D02*
X80115000Y-68715000D01*
X80115000Y-68715000D02*
X81800000Y-70400000D01*
X81800000Y-70400000D02*
X84600000Y-70400000D01*
X87000000Y-71200000D02*
X90800000Y-71200000D01*
X82655000Y-68000000D02*
X82655000Y-67055000D01*
X82655000Y-67055000D02*
X82000000Y-66400000D01*
X83200000Y-69800000D02*
X85600000Y-69800000D01*
X85600000Y-69800000D02*
X87000000Y-71200000D01*
X82655000Y-68000000D02*
X82655000Y-69255000D01*
X82655000Y-69255000D02*
X83200000Y-69800000D01*
X82655000Y-68000000D02*
X82655000Y-68255000D01*
X95600000Y-75200000D02*
X109800000Y-75200000D01*
X75035000Y-68000000D02*
X75035000Y-66965000D01*
X75035000Y-66965000D02*
X75600000Y-66400000D01*
X81200000Y-71000000D02*
X84600000Y-71000000D01*
X84600000Y-71000000D02*
X86600000Y-73000000D01*
X86600000Y-73000000D02*
X93400000Y-73000000D01*
X93400000Y-73000000D02*
X95600000Y-75200000D01*
X78400000Y-69600000D02*
X79800000Y-69600000D01*
X79800000Y-69600000D02*
X81200000Y-71000000D01*
X77000000Y-70600000D02*
X77400000Y-70600000D01*
X77400000Y-70600000D02*
X78400000Y-69600000D01*
X89750000Y-88600000D02*
X88200000Y-88600000D01*
X86600000Y-81600000D02*
X85950000Y-80950000D01*
X86600000Y-87000000D02*
X86600000Y-81600000D01*
X88200000Y-88600000D02*
X86600000Y-87000000D01*
D37*
X88900000Y-85000000D02*
X88900000Y-87750000D01*
X88900000Y-87750000D02*
X89750000Y-88600000D01*
D36*
X113800000Y-91250000D02*
X113800000Y-89400000D01*
X111400000Y-91200000D02*
X111400000Y-89400000D01*
D38*
X90800000Y-79800000D02*
X90800000Y-83100000D01*
D36*
X89650000Y-88250000D02*
X88850000Y-88250000D01*
X89650000Y-88250000D02*
X89050000Y-88250000D01*
D38*
X88750000Y-88250000D02*
X89650000Y-88250000D01*
D36*
X73649998Y-74200000D02*
X73649998Y-77049998D01*
X73649998Y-77049998D02*
X74400000Y-77800000D01*
X74400000Y-77800000D02*
X75800000Y-77800000D01*
X75800000Y-77800000D02*
X76400000Y-78400000D01*
X76400000Y-81600000D02*
X76400000Y-78400000D01*
X76400000Y-78400000D02*
X76400000Y-78200000D01*
X73649998Y-74249998D02*
X73649998Y-74200000D01*
X73649998Y-74200000D02*
X73649998Y-70449998D01*
X76400000Y-82600000D02*
X76400000Y-81600000D01*
X73649998Y-70449998D02*
X73450000Y-70250000D01*
X73450000Y-70250000D02*
X72450000Y-70250000D01*
X76400000Y-82600000D02*
X76190000Y-82600000D01*
X76190000Y-82600000D02*
X73700000Y-85090000D01*
X73700000Y-85700000D02*
X73700000Y-85090000D01*
D37*
X67310000Y-85090000D02*
X73700000Y-85090000D01*
X78300000Y-92200000D02*
X83900000Y-92200000D01*
X78100000Y-95050000D02*
X78100000Y-92400000D01*
X78100000Y-92400000D02*
X78300000Y-92200000D01*
X82850000Y-95500000D02*
X82850000Y-93250000D01*
X82850000Y-93250000D02*
X83900000Y-92200000D01*
D36*
X86000000Y-87200000D02*
X86000000Y-83800000D01*
X86000000Y-83800000D02*
X85200000Y-83000000D01*
X85200000Y-83000000D02*
X84000000Y-83000000D01*
X84000000Y-83000000D02*
X83250000Y-82250000D01*
X83250000Y-82250000D02*
X83250000Y-80950000D01*
X83450000Y-88600000D02*
X84600000Y-88600000D01*
X84600000Y-88600000D02*
X86000000Y-87200000D01*
X78400000Y-98200000D02*
X78600000Y-98000000D01*
X78600000Y-98000000D02*
X82200000Y-98000000D01*
X82200000Y-98000000D02*
X82850000Y-97350000D01*
X82850000Y-97350000D02*
X82850000Y-95500000D01*
X78800000Y-90800000D02*
X78800000Y-91700000D01*
X78800000Y-91700000D02*
X78300000Y-92200000D01*
X78800000Y-82600000D02*
X78800000Y-84990000D01*
X78800000Y-84990000D02*
X78700000Y-85090000D01*
X83350000Y-88250000D02*
X83550000Y-88250000D01*
X83350000Y-88250000D02*
X84350000Y-88250000D01*
D10*
X83350000Y-88250000D02*
X84150000Y-88250000D01*
D37*
X83100000Y-88000000D02*
X83350000Y-88250000D01*
X83350000Y-88250000D02*
X83350000Y-91450000D01*
X83350000Y-91450000D02*
X83900000Y-92000000D01*
X83775000Y-92125000D02*
X83900000Y-92000000D01*
X79000000Y-92000000D02*
X78875000Y-92125000D01*
D36*
X83350000Y-87600000D02*
X83350000Y-88250000D01*
D10*
X83350000Y-87600000D02*
X83350000Y-88250000D01*
D36*
X82950000Y-87850000D02*
X83350000Y-88250000D01*
D37*
X83100000Y-88000000D02*
X83350000Y-88250000D01*
X83375000Y-88275000D02*
X83350000Y-88250000D01*
X78875000Y-92125000D02*
X79375000Y-92125000D01*
X78875000Y-92125000D02*
X78875000Y-91875000D01*
D36*
X65600000Y-83400000D02*
X67200000Y-81800000D01*
X67200000Y-81800000D02*
X67400000Y-81600000D01*
X67400000Y-81600000D02*
X69400000Y-81600000D01*
X69400000Y-79600000D02*
X71200000Y-77800000D01*
X71200000Y-77800000D02*
X71200000Y-74800000D01*
X71200000Y-74800000D02*
X71750000Y-74250000D01*
X71750000Y-74250000D02*
X72450000Y-74250000D01*
X72650000Y-74250000D02*
X72450000Y-74250000D01*
X67290000Y-92700000D02*
X67290000Y-92290000D01*
X67290000Y-92290000D02*
X65600000Y-90600000D01*
X65600000Y-90600000D02*
X65600000Y-83400000D01*
X76400000Y-90800000D02*
X75000000Y-92200000D01*
X75000000Y-92200000D02*
X73300000Y-92200000D01*
D37*
X67290000Y-92700000D02*
X67290000Y-92310000D01*
X67290000Y-92310000D02*
X67400000Y-92200000D01*
X67400000Y-92200000D02*
X73300000Y-92200000D01*
D36*
X68600000Y-79000000D02*
X68800000Y-78800000D01*
X68800000Y-78800000D02*
X69000000Y-78600000D01*
X69000000Y-78600000D02*
X69600000Y-78600000D01*
X69600000Y-78600000D02*
X69800000Y-78400000D01*
X68600000Y-79000000D02*
X67000000Y-80600000D01*
D37*
X64800000Y-82800000D02*
X67000000Y-80600000D01*
X67000000Y-80600000D02*
X73300000Y-80600000D01*
X73300000Y-80600000D02*
X73700000Y-81000000D01*
D36*
X68580000Y-73950000D02*
X69550000Y-73950000D01*
X69550000Y-73950000D02*
X69800000Y-74200000D01*
X69800000Y-74200000D02*
X69800000Y-78400000D01*
D37*
X92710000Y-101600000D02*
X92710000Y-101460000D01*
X92710000Y-101460000D02*
X89750000Y-98500000D01*
X92710000Y-101600000D02*
X89550000Y-101600000D01*
X89550000Y-101600000D02*
X89350000Y-101800000D01*
X89350000Y-101800000D02*
X89350000Y-100650000D01*
X89350000Y-100650000D02*
X89750000Y-100250000D01*
X89750000Y-100250000D02*
X89750000Y-98500000D01*
D36*
X89350000Y-101800000D02*
X92510000Y-101800000D01*
X92510000Y-101800000D02*
X92710000Y-101600000D01*
X79800000Y-101800000D02*
X79800000Y-102200000D01*
X79800000Y-102200000D02*
X81400000Y-103800000D01*
D37*
X92710000Y-101600000D02*
X92710000Y-102690000D01*
X92710000Y-102690000D02*
X91600000Y-103800000D01*
X91600000Y-103800000D02*
X81400000Y-103800000D01*
X81400000Y-103800000D02*
X75600000Y-103800000D01*
X75600000Y-103800000D02*
X69200000Y-97400000D01*
X69200000Y-97400000D02*
X66000000Y-97400000D01*
X66000000Y-97400000D02*
X64800000Y-96200000D01*
X64800000Y-96200000D02*
X64800000Y-82800000D01*
X92710000Y-101600000D02*
X92710000Y-102710000D01*
X92710000Y-102710000D02*
X93800000Y-103800000D01*
X98130000Y-103800000D02*
X100330000Y-101600000D01*
X93800000Y-103800000D02*
X98130000Y-103800000D01*
X100330000Y-101330000D02*
X100330000Y-101600000D01*
D38*
X92710000Y-102690000D02*
X92710000Y-101600000D01*
X93250000Y-101750000D02*
X92000000Y-101750000D01*
X123150000Y-91600000D02*
X125550000Y-91600000D01*
X123350000Y-93800000D02*
X125550000Y-93800000D01*
D36*
X83925000Y-68000000D02*
X83925000Y-67525000D01*
X83925000Y-67525000D02*
X82600000Y-66200000D01*
X82600000Y-66200000D02*
X82600000Y-65800000D01*
X82600000Y-65800000D02*
X82050000Y-65250000D01*
X72775000Y-65975000D02*
X71425000Y-65975000D01*
X71425000Y-65975000D02*
X69600000Y-67800000D01*
X69600000Y-67800000D02*
X68550000Y-67800000D01*
X68600000Y-67750000D02*
X68550000Y-67800000D01*
X72750000Y-66000000D02*
X72775000Y-65975000D01*
X72775000Y-65975000D02*
X73500000Y-65250000D01*
X73500000Y-65250000D02*
X82050000Y-65250000D01*
X95200000Y-70400000D02*
X104400000Y-70400000D01*
X85800000Y-69200000D02*
X87000000Y-70400000D01*
X87000000Y-70400000D02*
X95200000Y-70400000D01*
X85195000Y-68000000D02*
X85195000Y-68595000D01*
X85195000Y-68595000D02*
X85800000Y-69200000D01*
X93400000Y-58000000D02*
X93400000Y-59400000D01*
X126600000Y-92400000D02*
X126400000Y-92600000D01*
X126400000Y-92600000D02*
X124400000Y-92600000D01*
X124400000Y-92600000D02*
X124200000Y-92800000D01*
X124200000Y-92800000D02*
X121450000Y-92800000D01*
X120450000Y-93800000D02*
X121450000Y-92800000D01*
X128600000Y-89800000D02*
X128200000Y-90200000D01*
X128200000Y-90200000D02*
X127600000Y-90200000D01*
X127600000Y-90200000D02*
X126600000Y-91200000D01*
X126600000Y-91200000D02*
X126600000Y-92400000D01*
X115000000Y-67000000D02*
X114800000Y-67000000D01*
X106800000Y-61200000D02*
X113800000Y-61200000D01*
X113800000Y-61200000D02*
X115000000Y-62400000D01*
X115000000Y-62400000D02*
X115000000Y-67000000D01*
X85600000Y-57400000D02*
X92800000Y-57400000D01*
X85600000Y-57400000D02*
X85195000Y-57805000D01*
X92800000Y-57400000D02*
X93400000Y-58000000D01*
X105800000Y-60200000D02*
X106800000Y-61200000D01*
X94200000Y-60200000D02*
X105800000Y-60200000D01*
X93400000Y-59400000D02*
X94200000Y-60200000D01*
X85195000Y-58500000D02*
X85195000Y-57805000D01*
X103400000Y-59600000D02*
X106000000Y-59600000D01*
X115600000Y-62200000D02*
X115600000Y-67400000D01*
X114000000Y-60600000D02*
X115600000Y-62200000D01*
X107000000Y-60600000D02*
X114000000Y-60600000D01*
X120450000Y-91600000D02*
X121650000Y-90400000D01*
X126800000Y-90400000D02*
X121650000Y-90400000D01*
X128600000Y-88600000D02*
X126800000Y-90400000D01*
X128600000Y-76800000D02*
X128600000Y-88600000D01*
X127400000Y-75600000D02*
X128600000Y-76800000D01*
X115600000Y-67400000D02*
X116200000Y-67400000D01*
X94000000Y-59200000D02*
X94400000Y-59600000D01*
X94400000Y-59600000D02*
X103400000Y-59600000D01*
X83925000Y-57475000D02*
X84600000Y-56800000D01*
X84600000Y-56800000D02*
X93000000Y-56800000D01*
X93000000Y-56800000D02*
X94000000Y-57800000D01*
X83925000Y-57475002D02*
X83925000Y-58500000D01*
X83925000Y-57475002D02*
X83925000Y-57475000D01*
X94000000Y-57800000D02*
X94000000Y-59200000D01*
X106000000Y-59600000D02*
X107000000Y-60600000D01*
X87500000Y-64700000D02*
X88000000Y-65200000D01*
X88000000Y-65200000D02*
X88000000Y-66080000D01*
X88000000Y-66080000D02*
X89600000Y-67680000D01*
X82655000Y-58500000D02*
X82655000Y-59855000D01*
X82655000Y-59855000D02*
X82800000Y-60000000D01*
X104000000Y-60800000D02*
X93800000Y-60800000D01*
X93200000Y-60400000D02*
X88200000Y-60400000D01*
X105800000Y-65400000D02*
X105800000Y-62000000D01*
X88200000Y-60400000D02*
X87600000Y-59800000D01*
X104600000Y-60800000D02*
X104000000Y-60800000D01*
X105800000Y-62000000D02*
X104600000Y-60800000D01*
X83800000Y-60800000D02*
X82000000Y-60800000D01*
X83800000Y-60800000D02*
X84800000Y-59800000D01*
X84800000Y-59800000D02*
X85600000Y-59800000D01*
X81385000Y-60185000D02*
X81385000Y-58500000D01*
X81385000Y-60185000D02*
X82000000Y-60800000D01*
X93400000Y-60400000D02*
X93200000Y-60400000D01*
X93800000Y-60800000D02*
X93400000Y-60400000D01*
X85800000Y-64200000D02*
X86400000Y-64200000D01*
X86400000Y-64200000D02*
X86800000Y-63800000D01*
X86800000Y-63800000D02*
X87800000Y-63800000D01*
X87800000Y-63800000D02*
X89140000Y-65140000D01*
X89140000Y-65140000D02*
X89600000Y-65140000D01*
X89140000Y-65140000D02*
X89600000Y-65140000D01*
X80115000Y-60115000D02*
X80115000Y-58500000D01*
X80250000Y-60250000D02*
X80115000Y-60115000D01*
D39*
X77450000Y-53520000D02*
X77450000Y-53950000D01*
D36*
X93000000Y-61000000D02*
X93600000Y-61600000D01*
X93000000Y-61000000D02*
X88000000Y-61000000D01*
X80200000Y-61600000D02*
X84600000Y-61600000D01*
X84600000Y-61600000D02*
X85600000Y-60600000D01*
X78845000Y-60245000D02*
X78845000Y-60000000D01*
X78845000Y-60245000D02*
X80200000Y-61600000D01*
X93600000Y-61600000D02*
X104400000Y-61600000D01*
X78845000Y-60000000D02*
X78845000Y-60045000D01*
X78845000Y-58500000D02*
X78845000Y-60000000D01*
X78845000Y-60000000D02*
X78845000Y-60045000D01*
X79200000Y-63600000D02*
X77600000Y-62400000D01*
X77600000Y-62400000D02*
X77575000Y-61575000D01*
X84200000Y-71600000D02*
X88000000Y-75400000D01*
X80200000Y-71400000D02*
X80400000Y-71600000D01*
X80400000Y-71600000D02*
X84200000Y-71600000D01*
X79200000Y-70400000D02*
X80200000Y-71400000D01*
X88000000Y-75400000D02*
X88000000Y-79400000D01*
X88000000Y-79400000D02*
X87400000Y-80000000D01*
X87400000Y-80000000D02*
X85950000Y-80000000D01*
X77575000Y-58500000D02*
X77575000Y-61575000D01*
X77750000Y-58675000D02*
X77575000Y-58500000D01*
X83400000Y-73000000D02*
X83200000Y-72800000D01*
X83200000Y-72800000D02*
X83200000Y-72200000D01*
X84600000Y-64200000D02*
X85600000Y-63200000D01*
X85600000Y-63200000D02*
X86600000Y-63200000D01*
X86600000Y-63200000D02*
X87200000Y-62600000D01*
X87200000Y-62600000D02*
X89600000Y-62600000D01*
X84600000Y-66200000D02*
X84600000Y-64200000D01*
X76305000Y-62505000D02*
X76305000Y-58500000D01*
X78200000Y-64400000D02*
X76305000Y-62505000D01*
X78200000Y-71000000D02*
X79400000Y-72200000D01*
X79400000Y-72200000D02*
X83200000Y-72200000D01*
X83200000Y-72200000D02*
X84000000Y-72200000D01*
X84000000Y-72200000D02*
X84800000Y-73000000D01*
X84800000Y-73000000D02*
X87400000Y-75600000D01*
X87400000Y-75600000D02*
X87400000Y-78600000D01*
X87400000Y-78600000D02*
X86950000Y-79050000D01*
X86950000Y-79050000D02*
X85950000Y-79050000D01*
X78400000Y-71200000D02*
X78200000Y-71000000D01*
X76305000Y-58500000D02*
X76305000Y-57895000D01*
X76250000Y-58555000D02*
X76305000Y-58500000D01*
X75035000Y-58500000D02*
X75035000Y-57365000D01*
X75035000Y-57365000D02*
X75200000Y-57200000D01*
X75200000Y-57200000D02*
X82800000Y-57200000D01*
X82800000Y-57200000D02*
X83200000Y-56800000D01*
X75035000Y-60215000D02*
X75035000Y-58500000D01*
X75000000Y-60250000D02*
X75035000Y-60215000D01*
D37*
X67040000Y-59460000D02*
X65260000Y-59460000D01*
X64800000Y-59000000D02*
X64800000Y-58200000D01*
X65260000Y-59460000D02*
X64800000Y-59000000D01*
D38*
X121400000Y-55400000D02*
X121400000Y-55000000D01*
X121400000Y-55000000D02*
X122000000Y-54400000D01*
X122000000Y-54400000D02*
X122000000Y-49200000D01*
X122000000Y-49200000D02*
X122200000Y-49000000D01*
D36*
X107210000Y-57970000D02*
X109750000Y-57970000D01*
D37*
X109750000Y-57970000D02*
X109750000Y-56250000D01*
X109750000Y-56250000D02*
X110600000Y-55400000D01*
X110600000Y-55400000D02*
X121400000Y-55400000D01*
X121400000Y-55400000D02*
X122400000Y-55400000D01*
X74910000Y-50980000D02*
X74910000Y-50490000D01*
X74910000Y-50490000D02*
X76400000Y-49000000D01*
X76400000Y-49000000D02*
X122200000Y-49000000D01*
X72370000Y-50980000D02*
X74910000Y-50980000D01*
X83500000Y-55500000D02*
X109100000Y-55500000D01*
X109100000Y-55500000D02*
X109750000Y-56150000D01*
X109750000Y-56150000D02*
X109750000Y-57970000D01*
D36*
X72000000Y-59400000D02*
X72000000Y-58250000D01*
X72000000Y-58250000D02*
X71375000Y-57625000D01*
D37*
X70750000Y-58250000D02*
X71375000Y-57625000D01*
X71375000Y-57625000D02*
X73250000Y-55750000D01*
X73500000Y-55500000D02*
X83500000Y-55500000D01*
X73250000Y-55750000D02*
X73500000Y-55500000D01*
D36*
X71000000Y-56000000D02*
X71000000Y-58000000D01*
X71000000Y-52500000D02*
X71000000Y-56000000D01*
X72370000Y-51130000D02*
X71000000Y-52500000D01*
X71000000Y-58000000D02*
X70750000Y-58250000D01*
X72370000Y-50980000D02*
X72370000Y-51130000D01*
D37*
X67040000Y-59460000D02*
X69540000Y-59460000D01*
X69540000Y-59460000D02*
X70750000Y-58250000D01*
D36*
X118400000Y-78000000D02*
X118400000Y-76600000D01*
X120800000Y-76600000D02*
X120600000Y-75800000D01*
X120600000Y-75800000D02*
X120600000Y-75000000D01*
X120800000Y-78000000D02*
X122000000Y-78000000D01*
X120800000Y-76600000D02*
X119600000Y-76600000D01*
X119600000Y-78000000D02*
X117800000Y-78000000D01*
X113030000Y-101600000D02*
X113030000Y-98570000D01*
X113030000Y-98570000D02*
X115600000Y-96000000D01*
X118200000Y-96000000D02*
X118200000Y-94800000D01*
X118200000Y-93400000D02*
X117000000Y-93400000D01*
X117000000Y-94800000D02*
X117000000Y-96000000D01*
X115600000Y-96000000D02*
X115600000Y-94800000D01*
D37*
X124460000Y-57920000D02*
X124460000Y-71340000D01*
X124460000Y-71340000D02*
X120600000Y-75800000D01*
X120600000Y-75800000D02*
X120800000Y-78000000D01*
D36*
X114200000Y-71400000D02*
X117600000Y-71400000D01*
D37*
X126650000Y-81750000D02*
X126650000Y-81050000D01*
X126650000Y-81050000D02*
X124460000Y-78860000D01*
X124460000Y-78860000D02*
X124460000Y-77820000D01*
X126650000Y-81750000D02*
X126650000Y-80010000D01*
X126650000Y-80010000D02*
X124460000Y-77820000D01*
X127000000Y-77820000D02*
X127000000Y-81400000D01*
X127000000Y-81400000D02*
X126650000Y-81750000D01*
X124460000Y-77820000D02*
X127000000Y-77820000D01*
X126400000Y-81500000D02*
X126650000Y-81750000D01*
X107950000Y-101600000D02*
X107950000Y-96550000D01*
X107950000Y-96550000D02*
X108000000Y-96500000D01*
D36*
X107200000Y-69400000D02*
X98800000Y-69400000D01*
X109400000Y-71600000D02*
X107200000Y-69400000D01*
X112800000Y-71600000D02*
X109400000Y-71600000D01*
X116800000Y-75600000D02*
X112800000Y-71600000D01*
X113400000Y-92600000D02*
X113800000Y-92600000D01*
X105800000Y-98200000D02*
X106200000Y-97800000D01*
X97600000Y-98200000D02*
X105800000Y-98200000D01*
X96400000Y-97000000D02*
X97600000Y-98200000D01*
X89000000Y-97000000D02*
X96400000Y-97000000D01*
X87850000Y-98150000D02*
X89000000Y-97000000D01*
X113400000Y-92600000D02*
X113800000Y-92600000D01*
X110400000Y-92600000D02*
X113400000Y-92600000D01*
X110200000Y-92400000D02*
X110400000Y-92600000D01*
X110000000Y-92200000D02*
X110200000Y-92400000D01*
X108400000Y-92200000D02*
X110000000Y-92200000D01*
X108200000Y-92400000D02*
X108400000Y-92200000D01*
X108200000Y-94400000D02*
X108200000Y-92400000D01*
X107600000Y-95000000D02*
X108200000Y-94400000D01*
X106600000Y-95000000D02*
X107600000Y-95000000D01*
X106200000Y-95400000D02*
X106600000Y-95000000D01*
X106200000Y-97800000D02*
X106200000Y-95400000D01*
X87850000Y-98500000D02*
X87850000Y-98150000D01*
X82600000Y-101800000D02*
X86650000Y-101800000D01*
X86650000Y-101800000D02*
X87850000Y-100600000D01*
X87850000Y-100600000D02*
X87850000Y-98500000D01*
X85000000Y-97400000D02*
X84750000Y-97150000D01*
X84750000Y-97150000D02*
X84750000Y-95500000D01*
X84750000Y-95500000D02*
X84750000Y-95450000D01*
X77700000Y-89850000D02*
X77250000Y-89850000D01*
X77250000Y-89850000D02*
X76400000Y-89000000D01*
X76400000Y-89000000D02*
X76400000Y-87000000D01*
X76400000Y-87000000D02*
X76200000Y-86800000D01*
X77700000Y-89850000D02*
X77050000Y-89850000D01*
X78100000Y-96950000D02*
X76950000Y-96950000D01*
X76950000Y-96950000D02*
X76600000Y-96600000D01*
X76600000Y-96600000D02*
X76600000Y-95200000D01*
X76600000Y-95200000D02*
X76200000Y-94800000D01*
X123000000Y-79400000D02*
X123000000Y-80150000D01*
X123000000Y-80150000D02*
X123650000Y-80800000D01*
X123650000Y-80800000D02*
X123650000Y-80650000D01*
X123000000Y-79400000D02*
X123000000Y-76000000D01*
X123650000Y-80800000D02*
X124000000Y-80800000D01*
X124000000Y-80800000D02*
X125200000Y-82000000D01*
X125200000Y-82000000D02*
X125200000Y-82800000D01*
X125200000Y-82800000D02*
X127200000Y-84800000D01*
X127200000Y-84800000D02*
X127200000Y-87200000D01*
D39*
X123650000Y-80800000D02*
X124200000Y-80800000D01*
D36*
X115175000Y-91225000D02*
X115400000Y-91000000D01*
X115175000Y-91225000D02*
X115175000Y-92575000D01*
X115200000Y-92550000D02*
X115175000Y-92575000D01*
X115175000Y-92575000D02*
X113800000Y-93950000D01*
X108950000Y-93500000D02*
X110900000Y-93500000D01*
X110900000Y-93500000D02*
X111400000Y-94000000D01*
X113800000Y-93950000D02*
X111450000Y-93950000D01*
X111450000Y-93950000D02*
X111400000Y-94000000D01*
X83800000Y-98500000D02*
X79500000Y-98500000D01*
X79500000Y-98500000D02*
X79200000Y-98800000D01*
X83800000Y-98500000D02*
X83500000Y-98500000D01*
D37*
X88800000Y-95500000D02*
X88800000Y-92300000D01*
X88800000Y-92300000D02*
X88900000Y-92200000D01*
X88800000Y-95500000D02*
X86900000Y-95500000D01*
X86900000Y-95500000D02*
X86200000Y-96200000D01*
X86200000Y-96200000D02*
X86200000Y-98000000D01*
X86200000Y-98000000D02*
X85700000Y-98500000D01*
X85700000Y-98500000D02*
X83800000Y-98500000D01*
D36*
X65920000Y-73950000D02*
X65920000Y-71870000D01*
X65920000Y-71870000D02*
X65850000Y-71800000D01*
X65920000Y-71820000D02*
X65900000Y-71800000D01*
X68550000Y-77200000D02*
X67600000Y-77200000D01*
X67600000Y-77200000D02*
X67200000Y-76800000D01*
X67200000Y-76800000D02*
X67200000Y-75000000D01*
X67200000Y-75000000D02*
X66800000Y-74600000D01*
X66800000Y-74600000D02*
X65920000Y-74600000D01*
X65850000Y-77200000D02*
X65850000Y-75320000D01*
X65850000Y-75320000D02*
X65920000Y-75250000D01*
X67200000Y-70400000D02*
X67200000Y-68400000D01*
X67200000Y-74400000D02*
X67200000Y-70400000D01*
X68580000Y-74600000D02*
X67400000Y-74600000D01*
X67400000Y-74600000D02*
X67200000Y-74400000D01*
X67200000Y-68400000D02*
X66600000Y-67800000D01*
X66600000Y-67800000D02*
X65850000Y-67800000D01*
G36*
X75901371Y-83442793D02*
X75992690Y-86182358D01*
X75832286Y-86248636D01*
X75649278Y-86431324D01*
X75550113Y-86670140D01*
X75549888Y-86928726D01*
X75648636Y-87167714D01*
X75831324Y-87350722D01*
X75950000Y-87400001D01*
X75950000Y-88309672D01*
X75946715Y-88301741D01*
X75848259Y-88203284D01*
X75719619Y-88150000D01*
X75062500Y-88150000D01*
X74975000Y-88237500D01*
X74975000Y-88700000D01*
X74995000Y-88700000D01*
X74995000Y-89100000D01*
X74975000Y-89100000D01*
X74975000Y-89562500D01*
X75062500Y-89650000D01*
X75719619Y-89650000D01*
X75848259Y-89596716D01*
X75946715Y-89498259D01*
X76000000Y-89369620D01*
X76000000Y-89195773D01*
X76050000Y-89270603D01*
X76050000Y-89408578D01*
X75558578Y-89900000D01*
X66050000Y-89900000D01*
X66050000Y-89187500D01*
X73400000Y-89187500D01*
X73400000Y-89369620D01*
X73453285Y-89498259D01*
X73551741Y-89596716D01*
X73680381Y-89650000D01*
X74337500Y-89650000D01*
X74425000Y-89562500D01*
X74425000Y-89100000D01*
X73487500Y-89100000D01*
X73400000Y-89187500D01*
X66050000Y-89187500D01*
X66050000Y-88602581D01*
X66461052Y-88877237D01*
X66977675Y-88980000D01*
X67642325Y-88980000D01*
X68158948Y-88877237D01*
X68596919Y-88584594D01*
X68699961Y-88430380D01*
X73400000Y-88430380D01*
X73400000Y-88612500D01*
X73487500Y-88700000D01*
X74425000Y-88700000D01*
X74425000Y-88237500D01*
X74337500Y-88150000D01*
X73680381Y-88150000D01*
X73551741Y-88203284D01*
X73453285Y-88301741D01*
X73400000Y-88430380D01*
X68699961Y-88430380D01*
X68889562Y-88146623D01*
X68992325Y-87630000D01*
X68889562Y-87113377D01*
X68596919Y-86675406D01*
X68244609Y-86440000D01*
X68679620Y-86440000D01*
X68808259Y-86386715D01*
X68906716Y-86288259D01*
X68960000Y-86159619D01*
X68960000Y-85452500D01*
X71600000Y-85452500D01*
X71600000Y-86059620D01*
X71653285Y-86188259D01*
X71751741Y-86286716D01*
X71880381Y-86340000D01*
X73337500Y-86340000D01*
X73425000Y-86252500D01*
X73425000Y-85365000D01*
X73975000Y-85365000D01*
X73975000Y-86252500D01*
X74062500Y-86340000D01*
X75519619Y-86340000D01*
X75648259Y-86286716D01*
X75746715Y-86188259D01*
X75800000Y-86059620D01*
X75800000Y-85452500D01*
X75712500Y-85365000D01*
X73975000Y-85365000D01*
X73425000Y-85365000D01*
X71687500Y-85365000D01*
X71600000Y-85452500D01*
X68960000Y-85452500D01*
X68872500Y-85365000D01*
X67585000Y-85365000D01*
X67585000Y-85385000D01*
X67035000Y-85385000D01*
X67035000Y-85365000D01*
X67015000Y-85365000D01*
X67015000Y-84815000D01*
X67035000Y-84815000D01*
X67035000Y-83827500D01*
X67585000Y-83827500D01*
X67585000Y-84815000D01*
X68872500Y-84815000D01*
X68960000Y-84727500D01*
X68960000Y-84120380D01*
X71600000Y-84120380D01*
X71600000Y-84727500D01*
X71687500Y-84815000D01*
X73425000Y-84815000D01*
X73425000Y-83927500D01*
X73975000Y-83927500D01*
X73975000Y-84815000D01*
X75712500Y-84815000D01*
X75800000Y-84727500D01*
X75800000Y-84120380D01*
X75746715Y-83991741D01*
X75648259Y-83893284D01*
X75519619Y-83840000D01*
X74062500Y-83840000D01*
X73975000Y-83927500D01*
X73425000Y-83927500D01*
X73337500Y-83840000D01*
X71880381Y-83840000D01*
X71751741Y-83893284D01*
X71653285Y-83991741D01*
X71600000Y-84120380D01*
X68960000Y-84120380D01*
X68960000Y-84020381D01*
X68906716Y-83891741D01*
X68808259Y-83793285D01*
X68679620Y-83740000D01*
X67672500Y-83740000D01*
X67585000Y-83827500D01*
X67035000Y-83827500D01*
X66947500Y-83740000D01*
X66050000Y-83740000D01*
X66050000Y-83586396D01*
X66536396Y-83100000D01*
X75558578Y-83100000D01*
X75901371Y-83442793D01*
X75901371Y-83442793D01*
G37*
X75901371Y-83442793D02*
X75992690Y-86182358D01*
X75832286Y-86248636D01*
X75649278Y-86431324D01*
X75550113Y-86670140D01*
X75549888Y-86928726D01*
X75648636Y-87167714D01*
X75831324Y-87350722D01*
X75950000Y-87400001D01*
X75950000Y-88309672D01*
X75946715Y-88301741D01*
X75848259Y-88203284D01*
X75719619Y-88150000D01*
X75062500Y-88150000D01*
X74975000Y-88237500D01*
X74975000Y-88700000D01*
X74995000Y-88700000D01*
X74995000Y-89100000D01*
X74975000Y-89100000D01*
X74975000Y-89562500D01*
X75062500Y-89650000D01*
X75719619Y-89650000D01*
X75848259Y-89596716D01*
X75946715Y-89498259D01*
X76000000Y-89369620D01*
X76000000Y-89195773D01*
X76050000Y-89270603D01*
X76050000Y-89408578D01*
X75558578Y-89900000D01*
X66050000Y-89900000D01*
X66050000Y-89187500D01*
X73400000Y-89187500D01*
X73400000Y-89369620D01*
X73453285Y-89498259D01*
X73551741Y-89596716D01*
X73680381Y-89650000D01*
X74337500Y-89650000D01*
X74425000Y-89562500D01*
X74425000Y-89100000D01*
X73487500Y-89100000D01*
X73400000Y-89187500D01*
X66050000Y-89187500D01*
X66050000Y-88602581D01*
X66461052Y-88877237D01*
X66977675Y-88980000D01*
X67642325Y-88980000D01*
X68158948Y-88877237D01*
X68596919Y-88584594D01*
X68699961Y-88430380D01*
X73400000Y-88430380D01*
X73400000Y-88612500D01*
X73487500Y-88700000D01*
X74425000Y-88700000D01*
X74425000Y-88237500D01*
X74337500Y-88150000D01*
X73680381Y-88150000D01*
X73551741Y-88203284D01*
X73453285Y-88301741D01*
X73400000Y-88430380D01*
X68699961Y-88430380D01*
X68889562Y-88146623D01*
X68992325Y-87630000D01*
X68889562Y-87113377D01*
X68596919Y-86675406D01*
X68244609Y-86440000D01*
X68679620Y-86440000D01*
X68808259Y-86386715D01*
X68906716Y-86288259D01*
X68960000Y-86159619D01*
X68960000Y-85452500D01*
X71600000Y-85452500D01*
X71600000Y-86059620D01*
X71653285Y-86188259D01*
X71751741Y-86286716D01*
X71880381Y-86340000D01*
X73337500Y-86340000D01*
X73425000Y-86252500D01*
X73425000Y-85365000D01*
X73975000Y-85365000D01*
X73975000Y-86252500D01*
X74062500Y-86340000D01*
X75519619Y-86340000D01*
X75648259Y-86286716D01*
X75746715Y-86188259D01*
X75800000Y-86059620D01*
X75800000Y-85452500D01*
X75712500Y-85365000D01*
X73975000Y-85365000D01*
X73425000Y-85365000D01*
X71687500Y-85365000D01*
X71600000Y-85452500D01*
X68960000Y-85452500D01*
X68872500Y-85365000D01*
X67585000Y-85365000D01*
X67585000Y-85385000D01*
X67035000Y-85385000D01*
X67035000Y-85365000D01*
X67015000Y-85365000D01*
X67015000Y-84815000D01*
X67035000Y-84815000D01*
X67035000Y-83827500D01*
X67585000Y-83827500D01*
X67585000Y-84815000D01*
X68872500Y-84815000D01*
X68960000Y-84727500D01*
X68960000Y-84120380D01*
X71600000Y-84120380D01*
X71600000Y-84727500D01*
X71687500Y-84815000D01*
X73425000Y-84815000D01*
X73425000Y-83927500D01*
X73975000Y-83927500D01*
X73975000Y-84815000D01*
X75712500Y-84815000D01*
X75800000Y-84727500D01*
X75800000Y-84120380D01*
X75746715Y-83991741D01*
X75648259Y-83893284D01*
X75519619Y-83840000D01*
X74062500Y-83840000D01*
X73975000Y-83927500D01*
X73425000Y-83927500D01*
X73337500Y-83840000D01*
X71880381Y-83840000D01*
X71751741Y-83893284D01*
X71653285Y-83991741D01*
X71600000Y-84120380D01*
X68960000Y-84120380D01*
X68960000Y-84020381D01*
X68906716Y-83891741D01*
X68808259Y-83793285D01*
X68679620Y-83740000D01*
X67672500Y-83740000D01*
X67585000Y-83827500D01*
X67035000Y-83827500D01*
X66947500Y-83740000D01*
X66050000Y-83740000D01*
X66050000Y-83586396D01*
X66536396Y-83100000D01*
X75558578Y-83100000D01*
X75901371Y-83442793D01*
G36*
X76050000Y-94158678D02*
X75832286Y-94248636D01*
X75649278Y-94431324D01*
X75550113Y-94670140D01*
X75549888Y-94928726D01*
X75648636Y-95167714D01*
X75730778Y-95250000D01*
X75462500Y-95250000D01*
X75375000Y-95337500D01*
X75375000Y-95800000D01*
X75395000Y-95800000D01*
X75395000Y-96200000D01*
X75375000Y-96200000D01*
X75375000Y-96662500D01*
X75462500Y-96750000D01*
X76050000Y-96750000D01*
X76050000Y-97400000D01*
X76068816Y-97500000D01*
X70360660Y-97500000D01*
X69730330Y-96869670D01*
X69487013Y-96707090D01*
X69200000Y-96650000D01*
X66310660Y-96650000D01*
X65550000Y-95889340D01*
X65550000Y-95240000D01*
X65607675Y-95240000D01*
X65710438Y-95756623D01*
X66003081Y-96194594D01*
X66441052Y-96487237D01*
X66957675Y-96590000D01*
X67622325Y-96590000D01*
X68138948Y-96487237D01*
X68437875Y-96287500D01*
X73800000Y-96287500D01*
X73800000Y-96469620D01*
X73853285Y-96598259D01*
X73951741Y-96696716D01*
X74080381Y-96750000D01*
X74737500Y-96750000D01*
X74825000Y-96662500D01*
X74825000Y-96200000D01*
X73887500Y-96200000D01*
X73800000Y-96287500D01*
X68437875Y-96287500D01*
X68576919Y-96194594D01*
X68869562Y-95756623D01*
X68914564Y-95530380D01*
X73800000Y-95530380D01*
X73800000Y-95712500D01*
X73887500Y-95800000D01*
X74825000Y-95800000D01*
X74825000Y-95337500D01*
X74737500Y-95250000D01*
X74080381Y-95250000D01*
X73951741Y-95303284D01*
X73853285Y-95401741D01*
X73800000Y-95530380D01*
X68914564Y-95530380D01*
X68972325Y-95240000D01*
X68869562Y-94723377D01*
X68576919Y-94285406D01*
X68224609Y-94050000D01*
X68659620Y-94050000D01*
X68788259Y-93996715D01*
X68886716Y-93898259D01*
X68940000Y-93769619D01*
X68940000Y-93062500D01*
X68852500Y-92975000D01*
X67565000Y-92975000D01*
X67565000Y-92995000D01*
X67015000Y-92995000D01*
X67015000Y-92975000D01*
X65727500Y-92975000D01*
X65640000Y-93062500D01*
X65640000Y-93769619D01*
X65693284Y-93898259D01*
X65791741Y-93996715D01*
X65920380Y-94050000D01*
X66355391Y-94050000D01*
X66003081Y-94285406D01*
X65710438Y-94723377D01*
X65607675Y-95240000D01*
X65550000Y-95240000D01*
X65550000Y-92562500D01*
X71200000Y-92562500D01*
X71200000Y-93169620D01*
X71253285Y-93298259D01*
X71351741Y-93396716D01*
X71480381Y-93450000D01*
X72937500Y-93450000D01*
X73025000Y-93362500D01*
X73025000Y-92475000D01*
X73575000Y-92475000D01*
X73575000Y-93362500D01*
X73662500Y-93450000D01*
X75119619Y-93450000D01*
X75248259Y-93396716D01*
X75346715Y-93298259D01*
X75400000Y-93169620D01*
X75400000Y-92562500D01*
X75312500Y-92475000D01*
X73575000Y-92475000D01*
X73025000Y-92475000D01*
X71287500Y-92475000D01*
X71200000Y-92562500D01*
X65550000Y-92562500D01*
X65550000Y-91630381D01*
X65640000Y-91630381D01*
X65640000Y-92337500D01*
X65727500Y-92425000D01*
X67015000Y-92425000D01*
X67015000Y-91437500D01*
X67565000Y-91437500D01*
X67565000Y-92425000D01*
X68852500Y-92425000D01*
X68940000Y-92337500D01*
X68940000Y-91630381D01*
X68886716Y-91501741D01*
X68788259Y-91403285D01*
X68659620Y-91350000D01*
X67652500Y-91350000D01*
X67565000Y-91437500D01*
X67015000Y-91437500D01*
X66927500Y-91350000D01*
X65920380Y-91350000D01*
X65791741Y-91403285D01*
X65693284Y-91501741D01*
X65640000Y-91630381D01*
X65550000Y-91630381D01*
X65550000Y-91230380D01*
X71200000Y-91230380D01*
X71200000Y-91837500D01*
X71287500Y-91925000D01*
X73025000Y-91925000D01*
X73025000Y-91037500D01*
X73575000Y-91037500D01*
X73575000Y-91925000D01*
X75312500Y-91925000D01*
X75400000Y-91837500D01*
X75400000Y-91230380D01*
X75346715Y-91101741D01*
X75248259Y-91003284D01*
X75119619Y-90950000D01*
X73662500Y-90950000D01*
X73575000Y-91037500D01*
X73025000Y-91037500D01*
X72937500Y-90950000D01*
X71480381Y-90950000D01*
X71351741Y-91003284D01*
X71253285Y-91101741D01*
X71200000Y-91230380D01*
X65550000Y-91230380D01*
X65550000Y-90700000D01*
X76050000Y-90700000D01*
X76050000Y-94158678D01*
X76050000Y-94158678D01*
G37*
X76050000Y-94158678D02*
X75832286Y-94248636D01*
X75649278Y-94431324D01*
X75550113Y-94670140D01*
X75549888Y-94928726D01*
X75648636Y-95167714D01*
X75730778Y-95250000D01*
X75462500Y-95250000D01*
X75375000Y-95337500D01*
X75375000Y-95800000D01*
X75395000Y-95800000D01*
X75395000Y-96200000D01*
X75375000Y-96200000D01*
X75375000Y-96662500D01*
X75462500Y-96750000D01*
X76050000Y-96750000D01*
X76050000Y-97400000D01*
X76068816Y-97500000D01*
X70360660Y-97500000D01*
X69730330Y-96869670D01*
X69487013Y-96707090D01*
X69200000Y-96650000D01*
X66310660Y-96650000D01*
X65550000Y-95889340D01*
X65550000Y-95240000D01*
X65607675Y-95240000D01*
X65710438Y-95756623D01*
X66003081Y-96194594D01*
X66441052Y-96487237D01*
X66957675Y-96590000D01*
X67622325Y-96590000D01*
X68138948Y-96487237D01*
X68437875Y-96287500D01*
X73800000Y-96287500D01*
X73800000Y-96469620D01*
X73853285Y-96598259D01*
X73951741Y-96696716D01*
X74080381Y-96750000D01*
X74737500Y-96750000D01*
X74825000Y-96662500D01*
X74825000Y-96200000D01*
X73887500Y-96200000D01*
X73800000Y-96287500D01*
X68437875Y-96287500D01*
X68576919Y-96194594D01*
X68869562Y-95756623D01*
X68914564Y-95530380D01*
X73800000Y-95530380D01*
X73800000Y-95712500D01*
X73887500Y-95800000D01*
X74825000Y-95800000D01*
X74825000Y-95337500D01*
X74737500Y-95250000D01*
X74080381Y-95250000D01*
X73951741Y-95303284D01*
X73853285Y-95401741D01*
X73800000Y-95530380D01*
X68914564Y-95530380D01*
X68972325Y-95240000D01*
X68869562Y-94723377D01*
X68576919Y-94285406D01*
X68224609Y-94050000D01*
X68659620Y-94050000D01*
X68788259Y-93996715D01*
X68886716Y-93898259D01*
X68940000Y-93769619D01*
X68940000Y-93062500D01*
X68852500Y-92975000D01*
X67565000Y-92975000D01*
X67565000Y-92995000D01*
X67015000Y-92995000D01*
X67015000Y-92975000D01*
X65727500Y-92975000D01*
X65640000Y-93062500D01*
X65640000Y-93769619D01*
X65693284Y-93898259D01*
X65791741Y-93996715D01*
X65920380Y-94050000D01*
X66355391Y-94050000D01*
X66003081Y-94285406D01*
X65710438Y-94723377D01*
X65607675Y-95240000D01*
X65550000Y-95240000D01*
X65550000Y-92562500D01*
X71200000Y-92562500D01*
X71200000Y-93169620D01*
X71253285Y-93298259D01*
X71351741Y-93396716D01*
X71480381Y-93450000D01*
X72937500Y-93450000D01*
X73025000Y-93362500D01*
X73025000Y-92475000D01*
X73575000Y-92475000D01*
X73575000Y-93362500D01*
X73662500Y-93450000D01*
X75119619Y-93450000D01*
X75248259Y-93396716D01*
X75346715Y-93298259D01*
X75400000Y-93169620D01*
X75400000Y-92562500D01*
X75312500Y-92475000D01*
X73575000Y-92475000D01*
X73025000Y-92475000D01*
X71287500Y-92475000D01*
X71200000Y-92562500D01*
X65550000Y-92562500D01*
X65550000Y-91630381D01*
X65640000Y-91630381D01*
X65640000Y-92337500D01*
X65727500Y-92425000D01*
X67015000Y-92425000D01*
X67015000Y-91437500D01*
X67565000Y-91437500D01*
X67565000Y-92425000D01*
X68852500Y-92425000D01*
X68940000Y-92337500D01*
X68940000Y-91630381D01*
X68886716Y-91501741D01*
X68788259Y-91403285D01*
X68659620Y-91350000D01*
X67652500Y-91350000D01*
X67565000Y-91437500D01*
X67015000Y-91437500D01*
X66927500Y-91350000D01*
X65920380Y-91350000D01*
X65791741Y-91403285D01*
X65693284Y-91501741D01*
X65640000Y-91630381D01*
X65550000Y-91630381D01*
X65550000Y-91230380D01*
X71200000Y-91230380D01*
X71200000Y-91837500D01*
X71287500Y-91925000D01*
X73025000Y-91925000D01*
X73025000Y-91037500D01*
X73575000Y-91037500D01*
X73575000Y-91925000D01*
X75312500Y-91925000D01*
X75400000Y-91837500D01*
X75400000Y-91230380D01*
X75346715Y-91101741D01*
X75248259Y-91003284D01*
X75119619Y-90950000D01*
X73662500Y-90950000D01*
X73575000Y-91037500D01*
X73025000Y-91037500D01*
X72937500Y-90950000D01*
X71480381Y-90950000D01*
X71351741Y-91003284D01*
X71253285Y-91101741D01*
X71200000Y-91230380D01*
X65550000Y-91230380D01*
X65550000Y-90700000D01*
X76050000Y-90700000D01*
X76050000Y-94158678D01*
G36*
X82201722Y-83743144D02*
X82150000Y-83743144D01*
X82020298Y-83767549D01*
X81901175Y-83844203D01*
X81821259Y-83961163D01*
X81793144Y-84100000D01*
X81793144Y-85900000D01*
X81817549Y-86029702D01*
X81894203Y-86148825D01*
X82011163Y-86228741D01*
X82150000Y-86256856D01*
X84100000Y-86256856D01*
X84100000Y-87000000D01*
X83812500Y-87000000D01*
X83725000Y-87087500D01*
X83725000Y-88325000D01*
X84912500Y-88325000D01*
X85000000Y-88237500D01*
X85000000Y-87700000D01*
X85158578Y-87700000D01*
X86300000Y-88841422D01*
X86300000Y-90850000D01*
X85600000Y-90850000D01*
X85472790Y-90873936D01*
X85355955Y-90949117D01*
X85355352Y-90950000D01*
X84262500Y-90950000D01*
X84175000Y-91037500D01*
X84175000Y-91925000D01*
X84195000Y-91925000D01*
X84195000Y-92475000D01*
X84175000Y-92475000D01*
X84175000Y-92495000D01*
X83625000Y-92495000D01*
X83625000Y-92475000D01*
X81887500Y-92475000D01*
X81800000Y-92562500D01*
X81800000Y-93169620D01*
X81853285Y-93298259D01*
X81951741Y-93396716D01*
X82080381Y-93450000D01*
X83537193Y-93450000D01*
X82972223Y-93934260D01*
X82882459Y-94052800D01*
X82850208Y-94187938D01*
X82849792Y-94200000D01*
X82574998Y-94200000D01*
X82574998Y-94212498D01*
X82562500Y-94200000D01*
X82380380Y-94200000D01*
X82251741Y-94253285D01*
X82153284Y-94351741D01*
X82100000Y-94480381D01*
X82100000Y-95137500D01*
X82187500Y-95225000D01*
X82650000Y-95225000D01*
X82650000Y-95205000D01*
X82815137Y-95205000D01*
X82794792Y-95795000D01*
X82650000Y-95795000D01*
X82650000Y-95775000D01*
X82187500Y-95775000D01*
X82100000Y-95862500D01*
X82100000Y-96519619D01*
X82153284Y-96648259D01*
X82251741Y-96746715D01*
X82380380Y-96800000D01*
X82562500Y-96800000D01*
X82574998Y-96787502D01*
X82574998Y-96800000D01*
X82760137Y-96800000D01*
X82742896Y-97300000D01*
X79406856Y-97300000D01*
X79406856Y-96550000D01*
X79382451Y-96420298D01*
X79305797Y-96301175D01*
X79188837Y-96221259D01*
X79050000Y-96193144D01*
X77150000Y-96193144D01*
X77050000Y-96211960D01*
X77050000Y-95787416D01*
X77080381Y-95800000D01*
X77737500Y-95800000D01*
X77825000Y-95712500D01*
X77825000Y-95250000D01*
X78375000Y-95250000D01*
X78375000Y-95712500D01*
X78462500Y-95800000D01*
X79119619Y-95800000D01*
X79248259Y-95746716D01*
X79346715Y-95648259D01*
X79400000Y-95519620D01*
X79400000Y-95337500D01*
X79312500Y-95250000D01*
X78375000Y-95250000D01*
X77825000Y-95250000D01*
X77805000Y-95250000D01*
X77805000Y-94850000D01*
X77825000Y-94850000D01*
X77825000Y-94387500D01*
X78375000Y-94387500D01*
X78375000Y-94850000D01*
X79312500Y-94850000D01*
X79400000Y-94762500D01*
X79400000Y-94580380D01*
X79346715Y-94451741D01*
X79248259Y-94353284D01*
X79119619Y-94300000D01*
X78462500Y-94300000D01*
X78375000Y-94387500D01*
X77825000Y-94387500D01*
X77737500Y-94300000D01*
X77080381Y-94300000D01*
X76951741Y-94353284D01*
X76853285Y-94451741D01*
X76806285Y-94565206D01*
X76751364Y-94432286D01*
X76568676Y-94249278D01*
X76500000Y-94220761D01*
X76500000Y-93450000D01*
X77937500Y-93450000D01*
X78025000Y-93362500D01*
X78025000Y-92475000D01*
X78575000Y-92475000D01*
X78575000Y-93362500D01*
X78662500Y-93450000D01*
X80119619Y-93450000D01*
X80248259Y-93396716D01*
X80346715Y-93298259D01*
X80400000Y-93169620D01*
X80400000Y-92562500D01*
X80312500Y-92475000D01*
X78575000Y-92475000D01*
X78025000Y-92475000D01*
X78005000Y-92475000D01*
X78005000Y-91925000D01*
X78025000Y-91925000D01*
X78025000Y-91037500D01*
X78575000Y-91037500D01*
X78575000Y-91925000D01*
X80312500Y-91925000D01*
X80400000Y-91837500D01*
X80400000Y-91230380D01*
X81800000Y-91230380D01*
X81800000Y-91837500D01*
X81887500Y-91925000D01*
X83625000Y-91925000D01*
X83625000Y-91037500D01*
X83537500Y-90950000D01*
X82080381Y-90950000D01*
X81951741Y-91003284D01*
X81853285Y-91101741D01*
X81800000Y-91230380D01*
X80400000Y-91230380D01*
X80346715Y-91101741D01*
X80248259Y-91003284D01*
X80119619Y-90950000D01*
X78662500Y-90950000D01*
X78575000Y-91037500D01*
X78025000Y-91037500D01*
X77937500Y-90950000D01*
X77041524Y-90950000D01*
X77049887Y-90929860D01*
X77050112Y-90671274D01*
X77023495Y-90606856D01*
X78650000Y-90606856D01*
X78779702Y-90582451D01*
X78898825Y-90505797D01*
X78978741Y-90388837D01*
X79006856Y-90250000D01*
X79006856Y-89450000D01*
X78982451Y-89320298D01*
X78905797Y-89201175D01*
X78788837Y-89121259D01*
X78650000Y-89093144D01*
X77129540Y-89093144D01*
X76998896Y-88962500D01*
X81900000Y-88962500D01*
X81900000Y-89919620D01*
X81953285Y-90048259D01*
X82051741Y-90146716D01*
X82180381Y-90200000D01*
X83087500Y-90200000D01*
X83175000Y-90112500D01*
X83175000Y-88875000D01*
X83725000Y-88875000D01*
X83725000Y-90112500D01*
X83812500Y-90200000D01*
X84719619Y-90200000D01*
X84848259Y-90146716D01*
X84946715Y-90048259D01*
X85000000Y-89919620D01*
X85000000Y-88962500D01*
X84912500Y-88875000D01*
X83725000Y-88875000D01*
X83175000Y-88875000D01*
X81987500Y-88875000D01*
X81900000Y-88962500D01*
X76998896Y-88962500D01*
X76850000Y-88813604D01*
X76850000Y-88700000D01*
X77337500Y-88700000D01*
X77425000Y-88612500D01*
X77425000Y-88150000D01*
X77975000Y-88150000D01*
X77975000Y-88612500D01*
X78062500Y-88700000D01*
X78719619Y-88700000D01*
X78848259Y-88646716D01*
X78946715Y-88548259D01*
X79000000Y-88419620D01*
X79000000Y-88237500D01*
X78912500Y-88150000D01*
X77975000Y-88150000D01*
X77425000Y-88150000D01*
X77405000Y-88150000D01*
X77405000Y-87750000D01*
X77425000Y-87750000D01*
X77425000Y-87287500D01*
X77975000Y-87287500D01*
X77975000Y-87750000D01*
X78912500Y-87750000D01*
X79000000Y-87662500D01*
X79000000Y-87480380D01*
X78946715Y-87351741D01*
X78875355Y-87280380D01*
X81900000Y-87280380D01*
X81900000Y-88237500D01*
X81987500Y-88325000D01*
X83175000Y-88325000D01*
X83175000Y-87087500D01*
X83087500Y-87000000D01*
X82180381Y-87000000D01*
X82051741Y-87053284D01*
X81953285Y-87151741D01*
X81900000Y-87280380D01*
X78875355Y-87280380D01*
X78848259Y-87253284D01*
X78719619Y-87200000D01*
X78062500Y-87200000D01*
X77975000Y-87287500D01*
X77425000Y-87287500D01*
X77337500Y-87200000D01*
X76850000Y-87200000D01*
X76850000Y-87000000D01*
X76840530Y-86952393D01*
X76849887Y-86929860D01*
X76850112Y-86671274D01*
X76751364Y-86432286D01*
X76568676Y-86249278D01*
X76500000Y-86220761D01*
X76500000Y-85452500D01*
X76600000Y-85452500D01*
X76600000Y-86059620D01*
X76653285Y-86188259D01*
X76751741Y-86286716D01*
X76880381Y-86340000D01*
X78337500Y-86340000D01*
X78425000Y-86252500D01*
X78425000Y-85365000D01*
X78975000Y-85365000D01*
X78975000Y-86252500D01*
X79062500Y-86340000D01*
X80519619Y-86340000D01*
X80648259Y-86286716D01*
X80746715Y-86188259D01*
X80800000Y-86059620D01*
X80800000Y-85452500D01*
X80712500Y-85365000D01*
X78975000Y-85365000D01*
X78425000Y-85365000D01*
X76687500Y-85365000D01*
X76600000Y-85452500D01*
X76500000Y-85452500D01*
X76500000Y-84120380D01*
X76600000Y-84120380D01*
X76600000Y-84727500D01*
X76687500Y-84815000D01*
X78425000Y-84815000D01*
X78425000Y-83927500D01*
X78975000Y-83927500D01*
X78975000Y-84815000D01*
X80712500Y-84815000D01*
X80800000Y-84727500D01*
X80800000Y-84120380D01*
X80746715Y-83991741D01*
X80648259Y-83893284D01*
X80519619Y-83840000D01*
X79062500Y-83840000D01*
X78975000Y-83927500D01*
X78425000Y-83927500D01*
X78337500Y-83840000D01*
X76880381Y-83840000D01*
X76751741Y-83893284D01*
X76653285Y-83991741D01*
X76600000Y-84120380D01*
X76500000Y-84120380D01*
X76500000Y-84035079D01*
X77248063Y-83100000D01*
X81558578Y-83100000D01*
X82201722Y-83743144D01*
X82201722Y-83743144D01*
G37*
X82201722Y-83743144D02*
X82150000Y-83743144D01*
X82020298Y-83767549D01*
X81901175Y-83844203D01*
X81821259Y-83961163D01*
X81793144Y-84100000D01*
X81793144Y-85900000D01*
X81817549Y-86029702D01*
X81894203Y-86148825D01*
X82011163Y-86228741D01*
X82150000Y-86256856D01*
X84100000Y-86256856D01*
X84100000Y-87000000D01*
X83812500Y-87000000D01*
X83725000Y-87087500D01*
X83725000Y-88325000D01*
X84912500Y-88325000D01*
X85000000Y-88237500D01*
X85000000Y-87700000D01*
X85158578Y-87700000D01*
X86300000Y-88841422D01*
X86300000Y-90850000D01*
X85600000Y-90850000D01*
X85472790Y-90873936D01*
X85355955Y-90949117D01*
X85355352Y-90950000D01*
X84262500Y-90950000D01*
X84175000Y-91037500D01*
X84175000Y-91925000D01*
X84195000Y-91925000D01*
X84195000Y-92475000D01*
X84175000Y-92475000D01*
X84175000Y-92495000D01*
X83625000Y-92495000D01*
X83625000Y-92475000D01*
X81887500Y-92475000D01*
X81800000Y-92562500D01*
X81800000Y-93169620D01*
X81853285Y-93298259D01*
X81951741Y-93396716D01*
X82080381Y-93450000D01*
X83537193Y-93450000D01*
X82972223Y-93934260D01*
X82882459Y-94052800D01*
X82850208Y-94187938D01*
X82849792Y-94200000D01*
X82574998Y-94200000D01*
X82574998Y-94212498D01*
X82562500Y-94200000D01*
X82380380Y-94200000D01*
X82251741Y-94253285D01*
X82153284Y-94351741D01*
X82100000Y-94480381D01*
X82100000Y-95137500D01*
X82187500Y-95225000D01*
X82650000Y-95225000D01*
X82650000Y-95205000D01*
X82815137Y-95205000D01*
X82794792Y-95795000D01*
X82650000Y-95795000D01*
X82650000Y-95775000D01*
X82187500Y-95775000D01*
X82100000Y-95862500D01*
X82100000Y-96519619D01*
X82153284Y-96648259D01*
X82251741Y-96746715D01*
X82380380Y-96800000D01*
X82562500Y-96800000D01*
X82574998Y-96787502D01*
X82574998Y-96800000D01*
X82760137Y-96800000D01*
X82742896Y-97300000D01*
X79406856Y-97300000D01*
X79406856Y-96550000D01*
X79382451Y-96420298D01*
X79305797Y-96301175D01*
X79188837Y-96221259D01*
X79050000Y-96193144D01*
X77150000Y-96193144D01*
X77050000Y-96211960D01*
X77050000Y-95787416D01*
X77080381Y-95800000D01*
X77737500Y-95800000D01*
X77825000Y-95712500D01*
X77825000Y-95250000D01*
X78375000Y-95250000D01*
X78375000Y-95712500D01*
X78462500Y-95800000D01*
X79119619Y-95800000D01*
X79248259Y-95746716D01*
X79346715Y-95648259D01*
X79400000Y-95519620D01*
X79400000Y-95337500D01*
X79312500Y-95250000D01*
X78375000Y-95250000D01*
X77825000Y-95250000D01*
X77805000Y-95250000D01*
X77805000Y-94850000D01*
X77825000Y-94850000D01*
X77825000Y-94387500D01*
X78375000Y-94387500D01*
X78375000Y-94850000D01*
X79312500Y-94850000D01*
X79400000Y-94762500D01*
X79400000Y-94580380D01*
X79346715Y-94451741D01*
X79248259Y-94353284D01*
X79119619Y-94300000D01*
X78462500Y-94300000D01*
X78375000Y-94387500D01*
X77825000Y-94387500D01*
X77737500Y-94300000D01*
X77080381Y-94300000D01*
X76951741Y-94353284D01*
X76853285Y-94451741D01*
X76806285Y-94565206D01*
X76751364Y-94432286D01*
X76568676Y-94249278D01*
X76500000Y-94220761D01*
X76500000Y-93450000D01*
X77937500Y-93450000D01*
X78025000Y-93362500D01*
X78025000Y-92475000D01*
X78575000Y-92475000D01*
X78575000Y-93362500D01*
X78662500Y-93450000D01*
X80119619Y-93450000D01*
X80248259Y-93396716D01*
X80346715Y-93298259D01*
X80400000Y-93169620D01*
X80400000Y-92562500D01*
X80312500Y-92475000D01*
X78575000Y-92475000D01*
X78025000Y-92475000D01*
X78005000Y-92475000D01*
X78005000Y-91925000D01*
X78025000Y-91925000D01*
X78025000Y-91037500D01*
X78575000Y-91037500D01*
X78575000Y-91925000D01*
X80312500Y-91925000D01*
X80400000Y-91837500D01*
X80400000Y-91230380D01*
X81800000Y-91230380D01*
X81800000Y-91837500D01*
X81887500Y-91925000D01*
X83625000Y-91925000D01*
X83625000Y-91037500D01*
X83537500Y-90950000D01*
X82080381Y-90950000D01*
X81951741Y-91003284D01*
X81853285Y-91101741D01*
X81800000Y-91230380D01*
X80400000Y-91230380D01*
X80346715Y-91101741D01*
X80248259Y-91003284D01*
X80119619Y-90950000D01*
X78662500Y-90950000D01*
X78575000Y-91037500D01*
X78025000Y-91037500D01*
X77937500Y-90950000D01*
X77041524Y-90950000D01*
X77049887Y-90929860D01*
X77050112Y-90671274D01*
X77023495Y-90606856D01*
X78650000Y-90606856D01*
X78779702Y-90582451D01*
X78898825Y-90505797D01*
X78978741Y-90388837D01*
X79006856Y-90250000D01*
X79006856Y-89450000D01*
X78982451Y-89320298D01*
X78905797Y-89201175D01*
X78788837Y-89121259D01*
X78650000Y-89093144D01*
X77129540Y-89093144D01*
X76998896Y-88962500D01*
X81900000Y-88962500D01*
X81900000Y-89919620D01*
X81953285Y-90048259D01*
X82051741Y-90146716D01*
X82180381Y-90200000D01*
X83087500Y-90200000D01*
X83175000Y-90112500D01*
X83175000Y-88875000D01*
X83725000Y-88875000D01*
X83725000Y-90112500D01*
X83812500Y-90200000D01*
X84719619Y-90200000D01*
X84848259Y-90146716D01*
X84946715Y-90048259D01*
X85000000Y-89919620D01*
X85000000Y-88962500D01*
X84912500Y-88875000D01*
X83725000Y-88875000D01*
X83175000Y-88875000D01*
X81987500Y-88875000D01*
X81900000Y-88962500D01*
X76998896Y-88962500D01*
X76850000Y-88813604D01*
X76850000Y-88700000D01*
X77337500Y-88700000D01*
X77425000Y-88612500D01*
X77425000Y-88150000D01*
X77975000Y-88150000D01*
X77975000Y-88612500D01*
X78062500Y-88700000D01*
X78719619Y-88700000D01*
X78848259Y-88646716D01*
X78946715Y-88548259D01*
X79000000Y-88419620D01*
X79000000Y-88237500D01*
X78912500Y-88150000D01*
X77975000Y-88150000D01*
X77425000Y-88150000D01*
X77405000Y-88150000D01*
X77405000Y-87750000D01*
X77425000Y-87750000D01*
X77425000Y-87287500D01*
X77975000Y-87287500D01*
X77975000Y-87750000D01*
X78912500Y-87750000D01*
X79000000Y-87662500D01*
X79000000Y-87480380D01*
X78946715Y-87351741D01*
X78875355Y-87280380D01*
X81900000Y-87280380D01*
X81900000Y-88237500D01*
X81987500Y-88325000D01*
X83175000Y-88325000D01*
X83175000Y-87087500D01*
X83087500Y-87000000D01*
X82180381Y-87000000D01*
X82051741Y-87053284D01*
X81953285Y-87151741D01*
X81900000Y-87280380D01*
X78875355Y-87280380D01*
X78848259Y-87253284D01*
X78719619Y-87200000D01*
X78062500Y-87200000D01*
X77975000Y-87287500D01*
X77425000Y-87287500D01*
X77337500Y-87200000D01*
X76850000Y-87200000D01*
X76850000Y-87000000D01*
X76840530Y-86952393D01*
X76849887Y-86929860D01*
X76850112Y-86671274D01*
X76751364Y-86432286D01*
X76568676Y-86249278D01*
X76500000Y-86220761D01*
X76500000Y-85452500D01*
X76600000Y-85452500D01*
X76600000Y-86059620D01*
X76653285Y-86188259D01*
X76751741Y-86286716D01*
X76880381Y-86340000D01*
X78337500Y-86340000D01*
X78425000Y-86252500D01*
X78425000Y-85365000D01*
X78975000Y-85365000D01*
X78975000Y-86252500D01*
X79062500Y-86340000D01*
X80519619Y-86340000D01*
X80648259Y-86286716D01*
X80746715Y-86188259D01*
X80800000Y-86059620D01*
X80800000Y-85452500D01*
X80712500Y-85365000D01*
X78975000Y-85365000D01*
X78425000Y-85365000D01*
X76687500Y-85365000D01*
X76600000Y-85452500D01*
X76500000Y-85452500D01*
X76500000Y-84120380D01*
X76600000Y-84120380D01*
X76600000Y-84727500D01*
X76687500Y-84815000D01*
X78425000Y-84815000D01*
X78425000Y-83927500D01*
X78975000Y-83927500D01*
X78975000Y-84815000D01*
X80712500Y-84815000D01*
X80800000Y-84727500D01*
X80800000Y-84120380D01*
X80746715Y-83991741D01*
X80648259Y-83893284D01*
X80519619Y-83840000D01*
X79062500Y-83840000D01*
X78975000Y-83927500D01*
X78425000Y-83927500D01*
X78337500Y-83840000D01*
X76880381Y-83840000D01*
X76751741Y-83893284D01*
X76653285Y-83991741D01*
X76600000Y-84120380D01*
X76500000Y-84120380D01*
X76500000Y-84035079D01*
X77248063Y-83100000D01*
X81558578Y-83100000D01*
X82201722Y-83743144D01*
G36*
X86800000Y-91837500D02*
X86887500Y-91925000D01*
X88625000Y-91925000D01*
X88625000Y-91905000D01*
X89175000Y-91905000D01*
X89175000Y-91925000D01*
X89195000Y-91925000D01*
X89195000Y-92475000D01*
X89175000Y-92475000D01*
X89175000Y-93362500D01*
X89262500Y-93450000D01*
X90719619Y-93450000D01*
X90848259Y-93396716D01*
X90900000Y-93344974D01*
X90900000Y-95758578D01*
X90108578Y-96550000D01*
X89537416Y-96550000D01*
X89550000Y-96519619D01*
X89550000Y-95862500D01*
X89462500Y-95775000D01*
X89000000Y-95775000D01*
X89000000Y-95795000D01*
X88600000Y-95795000D01*
X88600000Y-95775000D01*
X88137500Y-95775000D01*
X88050000Y-95862500D01*
X88050000Y-96519619D01*
X88103284Y-96648259D01*
X88201741Y-96746715D01*
X88330380Y-96800000D01*
X88512500Y-96800000D01*
X88524998Y-96787502D01*
X88524998Y-96800000D01*
X88563604Y-96800000D01*
X88170460Y-97193144D01*
X87450000Y-97193144D01*
X87320298Y-97217549D01*
X87201175Y-97294203D01*
X87121259Y-97411163D01*
X87093144Y-97550000D01*
X87093144Y-99450000D01*
X87117549Y-99579702D01*
X87194203Y-99698825D01*
X87311163Y-99778741D01*
X87400000Y-99796731D01*
X87400000Y-100100000D01*
X83241422Y-100100000D01*
X83101439Y-99960017D01*
X83111892Y-99656867D01*
X83201741Y-99746715D01*
X83330380Y-99800000D01*
X83512500Y-99800000D01*
X83600000Y-99712500D01*
X83600000Y-98775000D01*
X84000000Y-98775000D01*
X84000000Y-99712500D01*
X84087500Y-99800000D01*
X84269620Y-99800000D01*
X84398259Y-99746715D01*
X84496716Y-99648259D01*
X84550000Y-99519619D01*
X84550000Y-98862500D01*
X84462500Y-98775000D01*
X84000000Y-98775000D01*
X83600000Y-98775000D01*
X83505000Y-98775000D01*
X83505000Y-98225000D01*
X83600000Y-98225000D01*
X83600000Y-97287500D01*
X83512500Y-97200000D01*
X83330380Y-97200000D01*
X83300000Y-97212584D01*
X83300000Y-96797448D01*
X83379702Y-96782451D01*
X83498825Y-96705797D01*
X83578741Y-96588837D01*
X83606856Y-96450000D01*
X83606856Y-94550000D01*
X83993144Y-94550000D01*
X83993144Y-96450000D01*
X84017549Y-96579702D01*
X84094203Y-96698825D01*
X84211163Y-96778741D01*
X84300000Y-96796731D01*
X84300000Y-97150000D01*
X84313566Y-97218204D01*
X84269620Y-97200000D01*
X84087500Y-97200000D01*
X84000000Y-97287500D01*
X84000000Y-98225000D01*
X84462500Y-98225000D01*
X84550000Y-98137500D01*
X84550000Y-97869256D01*
X84631324Y-97950722D01*
X84870140Y-98049887D01*
X85128726Y-98050112D01*
X85367714Y-97951364D01*
X85550722Y-97768676D01*
X85649887Y-97529860D01*
X85650112Y-97271274D01*
X85551364Y-97032286D01*
X85368676Y-96849278D01*
X85230179Y-96791769D01*
X85279702Y-96782451D01*
X85398825Y-96705797D01*
X85478741Y-96588837D01*
X85506856Y-96450000D01*
X85506856Y-94550000D01*
X85493757Y-94480381D01*
X88050000Y-94480381D01*
X88050000Y-95137500D01*
X88137500Y-95225000D01*
X88600000Y-95225000D01*
X88600000Y-94287500D01*
X89000000Y-94287500D01*
X89000000Y-95225000D01*
X89462500Y-95225000D01*
X89550000Y-95137500D01*
X89550000Y-94480381D01*
X89496716Y-94351741D01*
X89398259Y-94253285D01*
X89269620Y-94200000D01*
X89087500Y-94200000D01*
X89000000Y-94287500D01*
X88600000Y-94287500D01*
X88512500Y-94200000D01*
X88330380Y-94200000D01*
X88201741Y-94253285D01*
X88103284Y-94351741D01*
X88050000Y-94480381D01*
X85493757Y-94480381D01*
X85482451Y-94420298D01*
X85405797Y-94301175D01*
X85288837Y-94221259D01*
X85150000Y-94193144D01*
X84350000Y-94193144D01*
X84220298Y-94217549D01*
X84101175Y-94294203D01*
X84021259Y-94411163D01*
X83993144Y-94550000D01*
X83606856Y-94550000D01*
X83600000Y-94513563D01*
X83600000Y-93988851D01*
X84220661Y-93456856D01*
X85650000Y-93456856D01*
X85779702Y-93432451D01*
X85898825Y-93355797D01*
X85978741Y-93238837D01*
X86006856Y-93100000D01*
X86006856Y-92562500D01*
X86800000Y-92562500D01*
X86800000Y-93169620D01*
X86853285Y-93298259D01*
X86951741Y-93396716D01*
X87080381Y-93450000D01*
X88537500Y-93450000D01*
X88625000Y-93362500D01*
X88625000Y-92475000D01*
X86887500Y-92475000D01*
X86800000Y-92562500D01*
X86006856Y-92562500D01*
X86006856Y-91300000D01*
X86800000Y-91300000D01*
X86800000Y-91837500D01*
X86800000Y-91837500D01*
G37*
X86800000Y-91837500D02*
X86887500Y-91925000D01*
X88625000Y-91925000D01*
X88625000Y-91905000D01*
X89175000Y-91905000D01*
X89175000Y-91925000D01*
X89195000Y-91925000D01*
X89195000Y-92475000D01*
X89175000Y-92475000D01*
X89175000Y-93362500D01*
X89262500Y-93450000D01*
X90719619Y-93450000D01*
X90848259Y-93396716D01*
X90900000Y-93344974D01*
X90900000Y-95758578D01*
X90108578Y-96550000D01*
X89537416Y-96550000D01*
X89550000Y-96519619D01*
X89550000Y-95862500D01*
X89462500Y-95775000D01*
X89000000Y-95775000D01*
X89000000Y-95795000D01*
X88600000Y-95795000D01*
X88600000Y-95775000D01*
X88137500Y-95775000D01*
X88050000Y-95862500D01*
X88050000Y-96519619D01*
X88103284Y-96648259D01*
X88201741Y-96746715D01*
X88330380Y-96800000D01*
X88512500Y-96800000D01*
X88524998Y-96787502D01*
X88524998Y-96800000D01*
X88563604Y-96800000D01*
X88170460Y-97193144D01*
X87450000Y-97193144D01*
X87320298Y-97217549D01*
X87201175Y-97294203D01*
X87121259Y-97411163D01*
X87093144Y-97550000D01*
X87093144Y-99450000D01*
X87117549Y-99579702D01*
X87194203Y-99698825D01*
X87311163Y-99778741D01*
X87400000Y-99796731D01*
X87400000Y-100100000D01*
X83241422Y-100100000D01*
X83101439Y-99960017D01*
X83111892Y-99656867D01*
X83201741Y-99746715D01*
X83330380Y-99800000D01*
X83512500Y-99800000D01*
X83600000Y-99712500D01*
X83600000Y-98775000D01*
X84000000Y-98775000D01*
X84000000Y-99712500D01*
X84087500Y-99800000D01*
X84269620Y-99800000D01*
X84398259Y-99746715D01*
X84496716Y-99648259D01*
X84550000Y-99519619D01*
X84550000Y-98862500D01*
X84462500Y-98775000D01*
X84000000Y-98775000D01*
X83600000Y-98775000D01*
X83505000Y-98775000D01*
X83505000Y-98225000D01*
X83600000Y-98225000D01*
X83600000Y-97287500D01*
X83512500Y-97200000D01*
X83330380Y-97200000D01*
X83300000Y-97212584D01*
X83300000Y-96797448D01*
X83379702Y-96782451D01*
X83498825Y-96705797D01*
X83578741Y-96588837D01*
X83606856Y-96450000D01*
X83606856Y-94550000D01*
X83993144Y-94550000D01*
X83993144Y-96450000D01*
X84017549Y-96579702D01*
X84094203Y-96698825D01*
X84211163Y-96778741D01*
X84300000Y-96796731D01*
X84300000Y-97150000D01*
X84313566Y-97218204D01*
X84269620Y-97200000D01*
X84087500Y-97200000D01*
X84000000Y-97287500D01*
X84000000Y-98225000D01*
X84462500Y-98225000D01*
X84550000Y-98137500D01*
X84550000Y-97869256D01*
X84631324Y-97950722D01*
X84870140Y-98049887D01*
X85128726Y-98050112D01*
X85367714Y-97951364D01*
X85550722Y-97768676D01*
X85649887Y-97529860D01*
X85650112Y-97271274D01*
X85551364Y-97032286D01*
X85368676Y-96849278D01*
X85230179Y-96791769D01*
X85279702Y-96782451D01*
X85398825Y-96705797D01*
X85478741Y-96588837D01*
X85506856Y-96450000D01*
X85506856Y-94550000D01*
X85493757Y-94480381D01*
X88050000Y-94480381D01*
X88050000Y-95137500D01*
X88137500Y-95225000D01*
X88600000Y-95225000D01*
X88600000Y-94287500D01*
X89000000Y-94287500D01*
X89000000Y-95225000D01*
X89462500Y-95225000D01*
X89550000Y-95137500D01*
X89550000Y-94480381D01*
X89496716Y-94351741D01*
X89398259Y-94253285D01*
X89269620Y-94200000D01*
X89087500Y-94200000D01*
X89000000Y-94287500D01*
X88600000Y-94287500D01*
X88512500Y-94200000D01*
X88330380Y-94200000D01*
X88201741Y-94253285D01*
X88103284Y-94351741D01*
X88050000Y-94480381D01*
X85493757Y-94480381D01*
X85482451Y-94420298D01*
X85405797Y-94301175D01*
X85288837Y-94221259D01*
X85150000Y-94193144D01*
X84350000Y-94193144D01*
X84220298Y-94217549D01*
X84101175Y-94294203D01*
X84021259Y-94411163D01*
X83993144Y-94550000D01*
X83606856Y-94550000D01*
X83600000Y-94513563D01*
X83600000Y-93988851D01*
X84220661Y-93456856D01*
X85650000Y-93456856D01*
X85779702Y-93432451D01*
X85898825Y-93355797D01*
X85978741Y-93238837D01*
X86006856Y-93100000D01*
X86006856Y-92562500D01*
X86800000Y-92562500D01*
X86800000Y-93169620D01*
X86853285Y-93298259D01*
X86951741Y-93396716D01*
X87080381Y-93450000D01*
X88537500Y-93450000D01*
X88625000Y-93362500D01*
X88625000Y-92475000D01*
X86887500Y-92475000D01*
X86800000Y-92562500D01*
X86006856Y-92562500D01*
X86006856Y-91300000D01*
X86800000Y-91300000D01*
X86800000Y-91837500D01*
G36*
X123110000Y-57557500D02*
X123197500Y-57645000D01*
X124185000Y-57645000D01*
X124185000Y-57625000D01*
X124735000Y-57625000D01*
X124735000Y-57645000D01*
X125722500Y-57645000D01*
X125730000Y-57637500D01*
X125737500Y-57645000D01*
X126725000Y-57645000D01*
X126725000Y-57625000D01*
X127275000Y-57625000D01*
X127275000Y-57645000D01*
X128262500Y-57645000D01*
X128350000Y-57557500D01*
X128350000Y-56900000D01*
X128600000Y-56900000D01*
X128600000Y-76163604D01*
X128049988Y-75613592D01*
X128050112Y-75471274D01*
X127951364Y-75232286D01*
X127768676Y-75049278D01*
X127529860Y-74950113D01*
X127271274Y-74949888D01*
X127032286Y-75048636D01*
X126849278Y-75231324D01*
X126750113Y-75470140D01*
X126749888Y-75728726D01*
X126848636Y-75967714D01*
X127031324Y-76150722D01*
X127270140Y-76249887D01*
X127413616Y-76250012D01*
X127626748Y-76463144D01*
X126000000Y-76463144D01*
X125870298Y-76487549D01*
X125751175Y-76564203D01*
X125730645Y-76594249D01*
X125715797Y-76571175D01*
X125598837Y-76491259D01*
X125460000Y-76463144D01*
X123460000Y-76463144D01*
X123455180Y-76464051D01*
X123550722Y-76368676D01*
X123649887Y-76129860D01*
X123650112Y-75871274D01*
X123551364Y-75632286D01*
X123368676Y-75449278D01*
X123129860Y-75350113D01*
X122871274Y-75349888D01*
X122632286Y-75448636D01*
X122449278Y-75631324D01*
X122350113Y-75870140D01*
X122349888Y-76128726D01*
X122448636Y-76367714D01*
X122550000Y-76469256D01*
X122550000Y-78794248D01*
X116900000Y-78701625D01*
X116900000Y-76250087D01*
X116928726Y-76250112D01*
X117167714Y-76151364D01*
X117350722Y-75968676D01*
X117449887Y-75729860D01*
X117450112Y-75471274D01*
X117351364Y-75232286D01*
X117168676Y-75049278D01*
X116929860Y-74950113D01*
X116900000Y-74950087D01*
X116900000Y-58282500D01*
X123110000Y-58282500D01*
X123110000Y-58989619D01*
X123163284Y-59118259D01*
X123261741Y-59216715D01*
X123390380Y-59270000D01*
X124097500Y-59270000D01*
X124185000Y-59182500D01*
X124185000Y-58195000D01*
X124735000Y-58195000D01*
X124735000Y-59182500D01*
X124822500Y-59270000D01*
X125529620Y-59270000D01*
X125658259Y-59216715D01*
X125730000Y-59144975D01*
X125801741Y-59216715D01*
X125930380Y-59270000D01*
X126637500Y-59270000D01*
X126725000Y-59182500D01*
X126725000Y-58195000D01*
X127275000Y-58195000D01*
X127275000Y-59182500D01*
X127362500Y-59270000D01*
X128069620Y-59270000D01*
X128198259Y-59216715D01*
X128296716Y-59118259D01*
X128350000Y-58989619D01*
X128350000Y-58282500D01*
X128262500Y-58195000D01*
X127275000Y-58195000D01*
X126725000Y-58195000D01*
X125737500Y-58195000D01*
X125730000Y-58202500D01*
X125722500Y-58195000D01*
X124735000Y-58195000D01*
X124185000Y-58195000D01*
X123197500Y-58195000D01*
X123110000Y-58282500D01*
X116900000Y-58282500D01*
X116900000Y-57022057D01*
X117013339Y-56900000D01*
X123110000Y-56900000D01*
X123110000Y-57557500D01*
X123110000Y-57557500D01*
G37*
X123110000Y-57557500D02*
X123197500Y-57645000D01*
X124185000Y-57645000D01*
X124185000Y-57625000D01*
X124735000Y-57625000D01*
X124735000Y-57645000D01*
X125722500Y-57645000D01*
X125730000Y-57637500D01*
X125737500Y-57645000D01*
X126725000Y-57645000D01*
X126725000Y-57625000D01*
X127275000Y-57625000D01*
X127275000Y-57645000D01*
X128262500Y-57645000D01*
X128350000Y-57557500D01*
X128350000Y-56900000D01*
X128600000Y-56900000D01*
X128600000Y-76163604D01*
X128049988Y-75613592D01*
X128050112Y-75471274D01*
X127951364Y-75232286D01*
X127768676Y-75049278D01*
X127529860Y-74950113D01*
X127271274Y-74949888D01*
X127032286Y-75048636D01*
X126849278Y-75231324D01*
X126750113Y-75470140D01*
X126749888Y-75728726D01*
X126848636Y-75967714D01*
X127031324Y-76150722D01*
X127270140Y-76249887D01*
X127413616Y-76250012D01*
X127626748Y-76463144D01*
X126000000Y-76463144D01*
X125870298Y-76487549D01*
X125751175Y-76564203D01*
X125730645Y-76594249D01*
X125715797Y-76571175D01*
X125598837Y-76491259D01*
X125460000Y-76463144D01*
X123460000Y-76463144D01*
X123455180Y-76464051D01*
X123550722Y-76368676D01*
X123649887Y-76129860D01*
X123650112Y-75871274D01*
X123551364Y-75632286D01*
X123368676Y-75449278D01*
X123129860Y-75350113D01*
X122871274Y-75349888D01*
X122632286Y-75448636D01*
X122449278Y-75631324D01*
X122350113Y-75870140D01*
X122349888Y-76128726D01*
X122448636Y-76367714D01*
X122550000Y-76469256D01*
X122550000Y-78794248D01*
X116900000Y-78701625D01*
X116900000Y-76250087D01*
X116928726Y-76250112D01*
X117167714Y-76151364D01*
X117350722Y-75968676D01*
X117449887Y-75729860D01*
X117450112Y-75471274D01*
X117351364Y-75232286D01*
X117168676Y-75049278D01*
X116929860Y-74950113D01*
X116900000Y-74950087D01*
X116900000Y-58282500D01*
X123110000Y-58282500D01*
X123110000Y-58989619D01*
X123163284Y-59118259D01*
X123261741Y-59216715D01*
X123390380Y-59270000D01*
X124097500Y-59270000D01*
X124185000Y-59182500D01*
X124185000Y-58195000D01*
X124735000Y-58195000D01*
X124735000Y-59182500D01*
X124822500Y-59270000D01*
X125529620Y-59270000D01*
X125658259Y-59216715D01*
X125730000Y-59144975D01*
X125801741Y-59216715D01*
X125930380Y-59270000D01*
X126637500Y-59270000D01*
X126725000Y-59182500D01*
X126725000Y-58195000D01*
X127275000Y-58195000D01*
X127275000Y-59182500D01*
X127362500Y-59270000D01*
X128069620Y-59270000D01*
X128198259Y-59216715D01*
X128296716Y-59118259D01*
X128350000Y-58989619D01*
X128350000Y-58282500D01*
X128262500Y-58195000D01*
X127275000Y-58195000D01*
X126725000Y-58195000D01*
X125737500Y-58195000D01*
X125730000Y-58202500D01*
X125722500Y-58195000D01*
X124735000Y-58195000D01*
X124185000Y-58195000D01*
X123197500Y-58195000D01*
X123110000Y-58282500D01*
X116900000Y-58282500D01*
X116900000Y-57022057D01*
X117013339Y-56900000D01*
X123110000Y-56900000D01*
X123110000Y-57557500D01*
G36*
X118900000Y-96758578D02*
X115929289Y-99729289D01*
X115907350Y-99762371D01*
X115900000Y-99800000D01*
X115900000Y-99983316D01*
X115570000Y-99917675D01*
X115053377Y-100020438D01*
X114615406Y-100313081D01*
X114380000Y-100665391D01*
X114380000Y-100230380D01*
X114326715Y-100101741D01*
X114228259Y-100003284D01*
X114099619Y-99950000D01*
X113392500Y-99950000D01*
X113305000Y-100037500D01*
X113305000Y-101325000D01*
X113325000Y-101325000D01*
X113325000Y-101875000D01*
X113305000Y-101875000D01*
X113305000Y-101895000D01*
X112755000Y-101895000D01*
X112755000Y-101875000D01*
X111767500Y-101875000D01*
X111680000Y-101962500D01*
X111680000Y-102900000D01*
X109950000Y-102900000D01*
X109950000Y-100230380D01*
X111680000Y-100230380D01*
X111680000Y-101237500D01*
X111767500Y-101325000D01*
X112755000Y-101325000D01*
X112755000Y-100037500D01*
X112667500Y-99950000D01*
X111960381Y-99950000D01*
X111831741Y-100003284D01*
X111733285Y-100101741D01*
X111680000Y-100230380D01*
X109950000Y-100230380D01*
X109950000Y-96991422D01*
X112054166Y-94887256D01*
X112079702Y-94882451D01*
X112198825Y-94805797D01*
X112278741Y-94688837D01*
X112285383Y-94656039D01*
X112541422Y-94400000D01*
X112793144Y-94400000D01*
X112793144Y-94700000D01*
X112817549Y-94829702D01*
X112894203Y-94948825D01*
X113011163Y-95028741D01*
X113150000Y-95056856D01*
X114450000Y-95056856D01*
X114579702Y-95032451D01*
X114698825Y-94955797D01*
X114778741Y-94838837D01*
X114806856Y-94700000D01*
X114806856Y-93579540D01*
X115518198Y-92868198D01*
X115615746Y-92722208D01*
X115620163Y-92700000D01*
X118900000Y-92700000D01*
X118900000Y-96758578D01*
X118900000Y-96758578D01*
G37*
X118900000Y-96758578D02*
X115929289Y-99729289D01*
X115907350Y-99762371D01*
X115900000Y-99800000D01*
X115900000Y-99983316D01*
X115570000Y-99917675D01*
X115053377Y-100020438D01*
X114615406Y-100313081D01*
X114380000Y-100665391D01*
X114380000Y-100230380D01*
X114326715Y-100101741D01*
X114228259Y-100003284D01*
X114099619Y-99950000D01*
X113392500Y-99950000D01*
X113305000Y-100037500D01*
X113305000Y-101325000D01*
X113325000Y-101325000D01*
X113325000Y-101875000D01*
X113305000Y-101875000D01*
X113305000Y-101895000D01*
X112755000Y-101895000D01*
X112755000Y-101875000D01*
X111767500Y-101875000D01*
X111680000Y-101962500D01*
X111680000Y-102900000D01*
X109950000Y-102900000D01*
X109950000Y-100230380D01*
X111680000Y-100230380D01*
X111680000Y-101237500D01*
X111767500Y-101325000D01*
X112755000Y-101325000D01*
X112755000Y-100037500D01*
X112667500Y-99950000D01*
X111960381Y-99950000D01*
X111831741Y-100003284D01*
X111733285Y-100101741D01*
X111680000Y-100230380D01*
X109950000Y-100230380D01*
X109950000Y-96991422D01*
X112054166Y-94887256D01*
X112079702Y-94882451D01*
X112198825Y-94805797D01*
X112278741Y-94688837D01*
X112285383Y-94656039D01*
X112541422Y-94400000D01*
X112793144Y-94400000D01*
X112793144Y-94700000D01*
X112817549Y-94829702D01*
X112894203Y-94948825D01*
X113011163Y-95028741D01*
X113150000Y-95056856D01*
X114450000Y-95056856D01*
X114579702Y-95032451D01*
X114698825Y-94955797D01*
X114778741Y-94838837D01*
X114806856Y-94700000D01*
X114806856Y-93579540D01*
X115518198Y-92868198D01*
X115615746Y-92722208D01*
X115620163Y-92700000D01*
X118900000Y-92700000D01*
X118900000Y-96758578D01*
G36*
X126991977Y-48855153D02*
X127832937Y-49417065D01*
X128394847Y-50258023D01*
X128600000Y-51289396D01*
X128600000Y-51372912D01*
X128214410Y-50439714D01*
X127315021Y-49538754D01*
X126139312Y-49050556D01*
X124866273Y-49049445D01*
X123689714Y-49535590D01*
X122788754Y-50434979D01*
X122300556Y-51610688D01*
X122299445Y-52883727D01*
X122785590Y-54060286D01*
X123684979Y-54961246D01*
X124860688Y-55449444D01*
X126133727Y-55450555D01*
X127310286Y-54964410D01*
X128211246Y-54065021D01*
X128600000Y-53128799D01*
X128600000Y-56300000D01*
X117000000Y-56300000D01*
X116961094Y-56307879D01*
X116926721Y-56331955D01*
X116652127Y-56627671D01*
X116598837Y-56591259D01*
X116460000Y-56563144D01*
X114460000Y-56563144D01*
X114330298Y-56587549D01*
X114211175Y-56664203D01*
X114190645Y-56694249D01*
X114175797Y-56671175D01*
X114058837Y-56591259D01*
X113920000Y-56563144D01*
X111920000Y-56563144D01*
X111790298Y-56587549D01*
X111671175Y-56664203D01*
X111591259Y-56781163D01*
X111563144Y-56920000D01*
X111563144Y-58920000D01*
X111587549Y-59049702D01*
X111612798Y-59088939D01*
X111080446Y-59086827D01*
X111100000Y-59039619D01*
X111100000Y-58332500D01*
X111012500Y-58245000D01*
X110025000Y-58245000D01*
X110025000Y-58265000D01*
X109475000Y-58265000D01*
X109475000Y-58245000D01*
X108487500Y-58245000D01*
X108480000Y-58252500D01*
X108472500Y-58245000D01*
X107485000Y-58245000D01*
X107485000Y-58265000D01*
X106935000Y-58265000D01*
X106935000Y-58245000D01*
X105947500Y-58245000D01*
X105860000Y-58332500D01*
X105860000Y-59039619D01*
X105870991Y-59066154D01*
X99552462Y-59041081D01*
X99566856Y-58970000D01*
X99566856Y-56970000D01*
X99553757Y-56900381D01*
X105860000Y-56900381D01*
X105860000Y-57607500D01*
X105947500Y-57695000D01*
X106935000Y-57695000D01*
X106935000Y-56707500D01*
X107485000Y-56707500D01*
X107485000Y-57695000D01*
X108472500Y-57695000D01*
X108480000Y-57687500D01*
X108487500Y-57695000D01*
X109475000Y-57695000D01*
X109475000Y-56707500D01*
X110025000Y-56707500D01*
X110025000Y-57695000D01*
X111012500Y-57695000D01*
X111100000Y-57607500D01*
X111100000Y-56900381D01*
X111046716Y-56771741D01*
X110948259Y-56673285D01*
X110819620Y-56620000D01*
X110112500Y-56620000D01*
X110025000Y-56707500D01*
X109475000Y-56707500D01*
X109387500Y-56620000D01*
X108680380Y-56620000D01*
X108551741Y-56673285D01*
X108480000Y-56745025D01*
X108408259Y-56673285D01*
X108279620Y-56620000D01*
X107572500Y-56620000D01*
X107485000Y-56707500D01*
X106935000Y-56707500D01*
X106847500Y-56620000D01*
X106140380Y-56620000D01*
X106011741Y-56673285D01*
X105913284Y-56771741D01*
X105860000Y-56900381D01*
X99553757Y-56900381D01*
X99542451Y-56840298D01*
X99465797Y-56721175D01*
X99348837Y-56641259D01*
X99210000Y-56613144D01*
X97210000Y-56613144D01*
X97080298Y-56637549D01*
X96961175Y-56714203D01*
X96940645Y-56744249D01*
X96925797Y-56721175D01*
X96808837Y-56641259D01*
X96670000Y-56613144D01*
X94670000Y-56613144D01*
X94540298Y-56637549D01*
X94421175Y-56714203D01*
X94341259Y-56831163D01*
X94313144Y-56970000D01*
X94313144Y-57476748D01*
X93318198Y-56481802D01*
X93172208Y-56384254D01*
X93000000Y-56350000D01*
X84600000Y-56350000D01*
X84427792Y-56384254D01*
X84281802Y-56481802D01*
X83849901Y-56913703D01*
X83850112Y-56671274D01*
X83751364Y-56432286D01*
X83568676Y-56249278D01*
X83329860Y-56150113D01*
X83071274Y-56149888D01*
X82832286Y-56248636D01*
X82649278Y-56431324D01*
X82550113Y-56670140D01*
X82550044Y-56750000D01*
X75200000Y-56750000D01*
X75027792Y-56784254D01*
X74881802Y-56881802D01*
X74716802Y-57046802D01*
X74619254Y-57192792D01*
X74585000Y-57365000D01*
X74585000Y-57430610D01*
X74486175Y-57494203D01*
X74406259Y-57611163D01*
X74378144Y-57750000D01*
X74378144Y-58941182D01*
X73000000Y-58935714D01*
X73000000Y-58580381D01*
X72946716Y-58451741D01*
X72848259Y-58353285D01*
X72719620Y-58300000D01*
X72362500Y-58300000D01*
X72275000Y-58387500D01*
X72275000Y-58932837D01*
X71725000Y-58930654D01*
X71725000Y-58387500D01*
X71637500Y-58300000D01*
X71280380Y-58300000D01*
X71151741Y-58353285D01*
X71053284Y-58451741D01*
X71000000Y-58580381D01*
X71000000Y-58927777D01*
X68690000Y-58918610D01*
X68690000Y-58390381D01*
X68636716Y-58261741D01*
X68538259Y-58163285D01*
X68409620Y-58110000D01*
X67402500Y-58110000D01*
X67315000Y-58197500D01*
X67315000Y-58913154D01*
X66765000Y-58910971D01*
X66765000Y-58197500D01*
X66677500Y-58110000D01*
X65670380Y-58110000D01*
X65541741Y-58163285D01*
X65443284Y-58261741D01*
X65390000Y-58390381D01*
X65390000Y-58905515D01*
X64400000Y-58901586D01*
X64400000Y-53127088D01*
X64785590Y-54060286D01*
X65684979Y-54961246D01*
X66860688Y-55449444D01*
X68133727Y-55450555D01*
X69310286Y-54964410D01*
X70211246Y-54065021D01*
X70699444Y-52889312D01*
X70699647Y-52656400D01*
X71149544Y-52656400D01*
X71149544Y-54383600D01*
X71173949Y-54513302D01*
X71250603Y-54632425D01*
X71367563Y-54712341D01*
X71506400Y-54740456D01*
X73233600Y-54740456D01*
X73363302Y-54716051D01*
X73482425Y-54639397D01*
X73562341Y-54522437D01*
X73590456Y-54383600D01*
X73590456Y-53496224D01*
X73696400Y-53496224D01*
X73696400Y-53543776D01*
X73788780Y-54008201D01*
X74051855Y-54401921D01*
X74445575Y-54664996D01*
X74910000Y-54757376D01*
X75374425Y-54664996D01*
X75768145Y-54401921D01*
X76031220Y-54008201D01*
X76123600Y-53543776D01*
X76123600Y-53496224D01*
X76236400Y-53496224D01*
X76236400Y-53543776D01*
X76328780Y-54008201D01*
X76591855Y-54401921D01*
X76985575Y-54664996D01*
X77450000Y-54757376D01*
X77914425Y-54664996D01*
X78308145Y-54401921D01*
X78571220Y-54008201D01*
X78663600Y-53543776D01*
X78663600Y-53496224D01*
X78776400Y-53496224D01*
X78776400Y-53543776D01*
X78868780Y-54008201D01*
X79131855Y-54401921D01*
X79525575Y-54664996D01*
X79990000Y-54757376D01*
X80454425Y-54664996D01*
X80848145Y-54401921D01*
X81111220Y-54008201D01*
X81203600Y-53543776D01*
X81203600Y-53496224D01*
X81316400Y-53496224D01*
X81316400Y-53543776D01*
X81408780Y-54008201D01*
X81671855Y-54401921D01*
X82065575Y-54664996D01*
X82530000Y-54757376D01*
X82994425Y-54664996D01*
X83388145Y-54401921D01*
X83651220Y-54008201D01*
X83743600Y-53543776D01*
X83743600Y-53496224D01*
X83856400Y-53496224D01*
X83856400Y-53543776D01*
X83948780Y-54008201D01*
X84211855Y-54401921D01*
X84605575Y-54664996D01*
X85070000Y-54757376D01*
X85534425Y-54664996D01*
X85928145Y-54401921D01*
X86191220Y-54008201D01*
X86283600Y-53543776D01*
X86283600Y-53496224D01*
X86396400Y-53496224D01*
X86396400Y-53543776D01*
X86488780Y-54008201D01*
X86751855Y-54401921D01*
X87145575Y-54664996D01*
X87610000Y-54757376D01*
X88074425Y-54664996D01*
X88468145Y-54401921D01*
X88731220Y-54008201D01*
X88823600Y-53543776D01*
X88823600Y-53496224D01*
X88936400Y-53496224D01*
X88936400Y-53543776D01*
X89028780Y-54008201D01*
X89291855Y-54401921D01*
X89685575Y-54664996D01*
X90150000Y-54757376D01*
X90614425Y-54664996D01*
X91008145Y-54401921D01*
X91271220Y-54008201D01*
X91363600Y-53543776D01*
X91363600Y-53496224D01*
X91476400Y-53496224D01*
X91476400Y-53543776D01*
X91568780Y-54008201D01*
X91831855Y-54401921D01*
X92225575Y-54664996D01*
X92690000Y-54757376D01*
X93154425Y-54664996D01*
X93548145Y-54401921D01*
X93811220Y-54008201D01*
X93903600Y-53543776D01*
X93903600Y-53496224D01*
X94016400Y-53496224D01*
X94016400Y-53543776D01*
X94108780Y-54008201D01*
X94371855Y-54401921D01*
X94765575Y-54664996D01*
X95230000Y-54757376D01*
X95694425Y-54664996D01*
X96088145Y-54401921D01*
X96351220Y-54008201D01*
X96443600Y-53543776D01*
X96443600Y-53496224D01*
X96556400Y-53496224D01*
X96556400Y-53543776D01*
X96648780Y-54008201D01*
X96911855Y-54401921D01*
X97305575Y-54664996D01*
X97770000Y-54757376D01*
X98234425Y-54664996D01*
X98628145Y-54401921D01*
X98891220Y-54008201D01*
X98983600Y-53543776D01*
X98983600Y-53496224D01*
X99096400Y-53496224D01*
X99096400Y-53543776D01*
X99188780Y-54008201D01*
X99451855Y-54401921D01*
X99845575Y-54664996D01*
X100310000Y-54757376D01*
X100774425Y-54664996D01*
X101168145Y-54401921D01*
X101431220Y-54008201D01*
X101523600Y-53543776D01*
X101523600Y-53496224D01*
X101636400Y-53496224D01*
X101636400Y-53543776D01*
X101728780Y-54008201D01*
X101991855Y-54401921D01*
X102385575Y-54664996D01*
X102850000Y-54757376D01*
X103314425Y-54664996D01*
X103708145Y-54401921D01*
X103971220Y-54008201D01*
X104063600Y-53543776D01*
X104063600Y-53496224D01*
X104176400Y-53496224D01*
X104176400Y-53543776D01*
X104268780Y-54008201D01*
X104531855Y-54401921D01*
X104925575Y-54664996D01*
X105390000Y-54757376D01*
X105854425Y-54664996D01*
X106248145Y-54401921D01*
X106511220Y-54008201D01*
X106603600Y-53543776D01*
X106603600Y-53496224D01*
X106716400Y-53496224D01*
X106716400Y-53543776D01*
X106808780Y-54008201D01*
X107071855Y-54401921D01*
X107465575Y-54664996D01*
X107930000Y-54757376D01*
X108394425Y-54664996D01*
X108788145Y-54401921D01*
X109051220Y-54008201D01*
X109143600Y-53543776D01*
X109143600Y-53496224D01*
X109256400Y-53496224D01*
X109256400Y-53543776D01*
X109348780Y-54008201D01*
X109611855Y-54401921D01*
X110005575Y-54664996D01*
X110470000Y-54757376D01*
X110934425Y-54664996D01*
X111328145Y-54401921D01*
X111591220Y-54008201D01*
X111683600Y-53543776D01*
X111683600Y-53496224D01*
X111796400Y-53496224D01*
X111796400Y-53543776D01*
X111888780Y-54008201D01*
X112151855Y-54401921D01*
X112545575Y-54664996D01*
X113010000Y-54757376D01*
X113474425Y-54664996D01*
X113868145Y-54401921D01*
X114131220Y-54008201D01*
X114223600Y-53543776D01*
X114223600Y-53496224D01*
X114336400Y-53496224D01*
X114336400Y-53543776D01*
X114428780Y-54008201D01*
X114691855Y-54401921D01*
X115085575Y-54664996D01*
X115550000Y-54757376D01*
X116014425Y-54664996D01*
X116408145Y-54401921D01*
X116671220Y-54008201D01*
X116763600Y-53543776D01*
X116763600Y-53496224D01*
X116876400Y-53496224D01*
X116876400Y-53543776D01*
X116968780Y-54008201D01*
X117231855Y-54401921D01*
X117625575Y-54664996D01*
X118090000Y-54757376D01*
X118554425Y-54664996D01*
X118948145Y-54401921D01*
X119211220Y-54008201D01*
X119303600Y-53543776D01*
X119303600Y-53496224D01*
X119416400Y-53496224D01*
X119416400Y-53543776D01*
X119508780Y-54008201D01*
X119771855Y-54401921D01*
X120165575Y-54664996D01*
X120630000Y-54757376D01*
X121094425Y-54664996D01*
X121488145Y-54401921D01*
X121751220Y-54008201D01*
X121843600Y-53543776D01*
X121843600Y-53496224D01*
X121751220Y-53031799D01*
X121488145Y-52638079D01*
X121094425Y-52375004D01*
X120630000Y-52282624D01*
X120165575Y-52375004D01*
X119771855Y-52638079D01*
X119508780Y-53031799D01*
X119416400Y-53496224D01*
X119303600Y-53496224D01*
X119211220Y-53031799D01*
X118948145Y-52638079D01*
X118554425Y-52375004D01*
X118090000Y-52282624D01*
X117625575Y-52375004D01*
X117231855Y-52638079D01*
X116968780Y-53031799D01*
X116876400Y-53496224D01*
X116763600Y-53496224D01*
X116671220Y-53031799D01*
X116408145Y-52638079D01*
X116014425Y-52375004D01*
X115550000Y-52282624D01*
X115085575Y-52375004D01*
X114691855Y-52638079D01*
X114428780Y-53031799D01*
X114336400Y-53496224D01*
X114223600Y-53496224D01*
X114131220Y-53031799D01*
X113868145Y-52638079D01*
X113474425Y-52375004D01*
X113010000Y-52282624D01*
X112545575Y-52375004D01*
X112151855Y-52638079D01*
X111888780Y-53031799D01*
X111796400Y-53496224D01*
X111683600Y-53496224D01*
X111591220Y-53031799D01*
X111328145Y-52638079D01*
X110934425Y-52375004D01*
X110470000Y-52282624D01*
X110005575Y-52375004D01*
X109611855Y-52638079D01*
X109348780Y-53031799D01*
X109256400Y-53496224D01*
X109143600Y-53496224D01*
X109051220Y-53031799D01*
X108788145Y-52638079D01*
X108394425Y-52375004D01*
X107930000Y-52282624D01*
X107465575Y-52375004D01*
X107071855Y-52638079D01*
X106808780Y-53031799D01*
X106716400Y-53496224D01*
X106603600Y-53496224D01*
X106511220Y-53031799D01*
X106248145Y-52638079D01*
X105854425Y-52375004D01*
X105390000Y-52282624D01*
X104925575Y-52375004D01*
X104531855Y-52638079D01*
X104268780Y-53031799D01*
X104176400Y-53496224D01*
X104063600Y-53496224D01*
X103971220Y-53031799D01*
X103708145Y-52638079D01*
X103314425Y-52375004D01*
X102850000Y-52282624D01*
X102385575Y-52375004D01*
X101991855Y-52638079D01*
X101728780Y-53031799D01*
X101636400Y-53496224D01*
X101523600Y-53496224D01*
X101431220Y-53031799D01*
X101168145Y-52638079D01*
X100774425Y-52375004D01*
X100310000Y-52282624D01*
X99845575Y-52375004D01*
X99451855Y-52638079D01*
X99188780Y-53031799D01*
X99096400Y-53496224D01*
X98983600Y-53496224D01*
X98891220Y-53031799D01*
X98628145Y-52638079D01*
X98234425Y-52375004D01*
X97770000Y-52282624D01*
X97305575Y-52375004D01*
X96911855Y-52638079D01*
X96648780Y-53031799D01*
X96556400Y-53496224D01*
X96443600Y-53496224D01*
X96351220Y-53031799D01*
X96088145Y-52638079D01*
X95694425Y-52375004D01*
X95230000Y-52282624D01*
X94765575Y-52375004D01*
X94371855Y-52638079D01*
X94108780Y-53031799D01*
X94016400Y-53496224D01*
X93903600Y-53496224D01*
X93811220Y-53031799D01*
X93548145Y-52638079D01*
X93154425Y-52375004D01*
X92690000Y-52282624D01*
X92225575Y-52375004D01*
X91831855Y-52638079D01*
X91568780Y-53031799D01*
X91476400Y-53496224D01*
X91363600Y-53496224D01*
X91271220Y-53031799D01*
X91008145Y-52638079D01*
X90614425Y-52375004D01*
X90150000Y-52282624D01*
X89685575Y-52375004D01*
X89291855Y-52638079D01*
X89028780Y-53031799D01*
X88936400Y-53496224D01*
X88823600Y-53496224D01*
X88731220Y-53031799D01*
X88468145Y-52638079D01*
X88074425Y-52375004D01*
X87610000Y-52282624D01*
X87145575Y-52375004D01*
X86751855Y-52638079D01*
X86488780Y-53031799D01*
X86396400Y-53496224D01*
X86283600Y-53496224D01*
X86191220Y-53031799D01*
X85928145Y-52638079D01*
X85534425Y-52375004D01*
X85070000Y-52282624D01*
X84605575Y-52375004D01*
X84211855Y-52638079D01*
X83948780Y-53031799D01*
X83856400Y-53496224D01*
X83743600Y-53496224D01*
X83651220Y-53031799D01*
X83388145Y-52638079D01*
X82994425Y-52375004D01*
X82530000Y-52282624D01*
X82065575Y-52375004D01*
X81671855Y-52638079D01*
X81408780Y-53031799D01*
X81316400Y-53496224D01*
X81203600Y-53496224D01*
X81111220Y-53031799D01*
X80848145Y-52638079D01*
X80454425Y-52375004D01*
X79990000Y-52282624D01*
X79525575Y-52375004D01*
X79131855Y-52638079D01*
X78868780Y-53031799D01*
X78776400Y-53496224D01*
X78663600Y-53496224D01*
X78571220Y-53031799D01*
X78308145Y-52638079D01*
X77914425Y-52375004D01*
X77450000Y-52282624D01*
X76985575Y-52375004D01*
X76591855Y-52638079D01*
X76328780Y-53031799D01*
X76236400Y-53496224D01*
X76123600Y-53496224D01*
X76031220Y-53031799D01*
X75768145Y-52638079D01*
X75374425Y-52375004D01*
X74910000Y-52282624D01*
X74445575Y-52375004D01*
X74051855Y-52638079D01*
X73788780Y-53031799D01*
X73696400Y-53496224D01*
X73590456Y-53496224D01*
X73590456Y-52656400D01*
X73566051Y-52526698D01*
X73489397Y-52407575D01*
X73372437Y-52327659D01*
X73233600Y-52299544D01*
X71506400Y-52299544D01*
X71376698Y-52323949D01*
X71257575Y-52400603D01*
X71177659Y-52517563D01*
X71149544Y-52656400D01*
X70699647Y-52656400D01*
X70700555Y-51616273D01*
X70626287Y-51436529D01*
X71245515Y-51436529D01*
X71505817Y-51832100D01*
X71897684Y-52097946D01*
X71913475Y-52104460D01*
X72095000Y-52072006D01*
X72095000Y-51255000D01*
X72645000Y-51255000D01*
X72645000Y-52072006D01*
X72826525Y-52104460D01*
X72842316Y-52097946D01*
X73234183Y-51832100D01*
X73494485Y-51436529D01*
X73785515Y-51436529D01*
X74045817Y-51832100D01*
X74437684Y-52097946D01*
X74453475Y-52104460D01*
X74635000Y-52072006D01*
X74635000Y-51255000D01*
X75185000Y-51255000D01*
X75185000Y-52072006D01*
X75366525Y-52104460D01*
X75382316Y-52097946D01*
X75774183Y-51832100D01*
X76034485Y-51436529D01*
X76004558Y-51255000D01*
X75185000Y-51255000D01*
X74635000Y-51255000D01*
X73815442Y-51255000D01*
X73785515Y-51436529D01*
X73494485Y-51436529D01*
X73464558Y-51255000D01*
X72645000Y-51255000D01*
X72095000Y-51255000D01*
X71275442Y-51255000D01*
X71245515Y-51436529D01*
X70626287Y-51436529D01*
X70427829Y-50956224D01*
X76236400Y-50956224D01*
X76236400Y-51003776D01*
X76328780Y-51468201D01*
X76591855Y-51861921D01*
X76985575Y-52124996D01*
X77450000Y-52217376D01*
X77914425Y-52124996D01*
X78308145Y-51861921D01*
X78571220Y-51468201D01*
X78663600Y-51003776D01*
X78663600Y-50956224D01*
X78776400Y-50956224D01*
X78776400Y-51003776D01*
X78868780Y-51468201D01*
X79131855Y-51861921D01*
X79525575Y-52124996D01*
X79990000Y-52217376D01*
X80454425Y-52124996D01*
X80848145Y-51861921D01*
X81111220Y-51468201D01*
X81203600Y-51003776D01*
X81203600Y-50956224D01*
X81316400Y-50956224D01*
X81316400Y-51003776D01*
X81408780Y-51468201D01*
X81671855Y-51861921D01*
X82065575Y-52124996D01*
X82530000Y-52217376D01*
X82994425Y-52124996D01*
X83388145Y-51861921D01*
X83651220Y-51468201D01*
X83743600Y-51003776D01*
X83743600Y-50956224D01*
X83856400Y-50956224D01*
X83856400Y-51003776D01*
X83948780Y-51468201D01*
X84211855Y-51861921D01*
X84605575Y-52124996D01*
X85070000Y-52217376D01*
X85534425Y-52124996D01*
X85928145Y-51861921D01*
X86191220Y-51468201D01*
X86283600Y-51003776D01*
X86283600Y-50956224D01*
X86396400Y-50956224D01*
X86396400Y-51003776D01*
X86488780Y-51468201D01*
X86751855Y-51861921D01*
X87145575Y-52124996D01*
X87610000Y-52217376D01*
X88074425Y-52124996D01*
X88468145Y-51861921D01*
X88731220Y-51468201D01*
X88823600Y-51003776D01*
X88823600Y-50956224D01*
X88936400Y-50956224D01*
X88936400Y-51003776D01*
X89028780Y-51468201D01*
X89291855Y-51861921D01*
X89685575Y-52124996D01*
X90150000Y-52217376D01*
X90614425Y-52124996D01*
X91008145Y-51861921D01*
X91271220Y-51468201D01*
X91363600Y-51003776D01*
X91363600Y-50956224D01*
X91476400Y-50956224D01*
X91476400Y-51003776D01*
X91568780Y-51468201D01*
X91831855Y-51861921D01*
X92225575Y-52124996D01*
X92690000Y-52217376D01*
X93154425Y-52124996D01*
X93548145Y-51861921D01*
X93811220Y-51468201D01*
X93903600Y-51003776D01*
X93903600Y-50956224D01*
X94016400Y-50956224D01*
X94016400Y-51003776D01*
X94108780Y-51468201D01*
X94371855Y-51861921D01*
X94765575Y-52124996D01*
X95230000Y-52217376D01*
X95694425Y-52124996D01*
X96088145Y-51861921D01*
X96351220Y-51468201D01*
X96443600Y-51003776D01*
X96443600Y-50956224D01*
X96556400Y-50956224D01*
X96556400Y-51003776D01*
X96648780Y-51468201D01*
X96911855Y-51861921D01*
X97305575Y-52124996D01*
X97770000Y-52217376D01*
X98234425Y-52124996D01*
X98628145Y-51861921D01*
X98891220Y-51468201D01*
X98983600Y-51003776D01*
X98983600Y-50956224D01*
X99096400Y-50956224D01*
X99096400Y-51003776D01*
X99188780Y-51468201D01*
X99451855Y-51861921D01*
X99845575Y-52124996D01*
X100310000Y-52217376D01*
X100774425Y-52124996D01*
X101168145Y-51861921D01*
X101431220Y-51468201D01*
X101523600Y-51003776D01*
X101523600Y-50956224D01*
X101636400Y-50956224D01*
X101636400Y-51003776D01*
X101728780Y-51468201D01*
X101991855Y-51861921D01*
X102385575Y-52124996D01*
X102850000Y-52217376D01*
X103314425Y-52124996D01*
X103708145Y-51861921D01*
X103971220Y-51468201D01*
X104063600Y-51003776D01*
X104063600Y-50956224D01*
X104176400Y-50956224D01*
X104176400Y-51003776D01*
X104268780Y-51468201D01*
X104531855Y-51861921D01*
X104925575Y-52124996D01*
X105390000Y-52217376D01*
X105854425Y-52124996D01*
X106248145Y-51861921D01*
X106511220Y-51468201D01*
X106603600Y-51003776D01*
X106603600Y-50956224D01*
X106716400Y-50956224D01*
X106716400Y-51003776D01*
X106808780Y-51468201D01*
X107071855Y-51861921D01*
X107465575Y-52124996D01*
X107930000Y-52217376D01*
X108394425Y-52124996D01*
X108788145Y-51861921D01*
X109051220Y-51468201D01*
X109143600Y-51003776D01*
X109143600Y-50956224D01*
X109256400Y-50956224D01*
X109256400Y-51003776D01*
X109348780Y-51468201D01*
X109611855Y-51861921D01*
X110005575Y-52124996D01*
X110470000Y-52217376D01*
X110934425Y-52124996D01*
X111328145Y-51861921D01*
X111591220Y-51468201D01*
X111683600Y-51003776D01*
X111683600Y-50956224D01*
X111796400Y-50956224D01*
X111796400Y-51003776D01*
X111888780Y-51468201D01*
X112151855Y-51861921D01*
X112545575Y-52124996D01*
X113010000Y-52217376D01*
X113474425Y-52124996D01*
X113868145Y-51861921D01*
X114131220Y-51468201D01*
X114223600Y-51003776D01*
X114223600Y-50956224D01*
X114336400Y-50956224D01*
X114336400Y-51003776D01*
X114428780Y-51468201D01*
X114691855Y-51861921D01*
X115085575Y-52124996D01*
X115550000Y-52217376D01*
X116014425Y-52124996D01*
X116408145Y-51861921D01*
X116671220Y-51468201D01*
X116763600Y-51003776D01*
X116763600Y-50956224D01*
X116876400Y-50956224D01*
X116876400Y-51003776D01*
X116968780Y-51468201D01*
X117231855Y-51861921D01*
X117625575Y-52124996D01*
X118090000Y-52217376D01*
X118554425Y-52124996D01*
X118948145Y-51861921D01*
X119211220Y-51468201D01*
X119303600Y-51003776D01*
X119303600Y-50956224D01*
X119416400Y-50956224D01*
X119416400Y-51003776D01*
X119508780Y-51468201D01*
X119771855Y-51861921D01*
X120165575Y-52124996D01*
X120630000Y-52217376D01*
X121094425Y-52124996D01*
X121488145Y-51861921D01*
X121751220Y-51468201D01*
X121843600Y-51003776D01*
X121843600Y-50956224D01*
X121751220Y-50491799D01*
X121488145Y-50098079D01*
X121094425Y-49835004D01*
X120630000Y-49742624D01*
X120165575Y-49835004D01*
X119771855Y-50098079D01*
X119508780Y-50491799D01*
X119416400Y-50956224D01*
X119303600Y-50956224D01*
X119211220Y-50491799D01*
X118948145Y-50098079D01*
X118554425Y-49835004D01*
X118090000Y-49742624D01*
X117625575Y-49835004D01*
X117231855Y-50098079D01*
X116968780Y-50491799D01*
X116876400Y-50956224D01*
X116763600Y-50956224D01*
X116671220Y-50491799D01*
X116408145Y-50098079D01*
X116014425Y-49835004D01*
X115550000Y-49742624D01*
X115085575Y-49835004D01*
X114691855Y-50098079D01*
X114428780Y-50491799D01*
X114336400Y-50956224D01*
X114223600Y-50956224D01*
X114131220Y-50491799D01*
X113868145Y-50098079D01*
X113474425Y-49835004D01*
X113010000Y-49742624D01*
X112545575Y-49835004D01*
X112151855Y-50098079D01*
X111888780Y-50491799D01*
X111796400Y-50956224D01*
X111683600Y-50956224D01*
X111591220Y-50491799D01*
X111328145Y-50098079D01*
X110934425Y-49835004D01*
X110470000Y-49742624D01*
X110005575Y-49835004D01*
X109611855Y-50098079D01*
X109348780Y-50491799D01*
X109256400Y-50956224D01*
X109143600Y-50956224D01*
X109051220Y-50491799D01*
X108788145Y-50098079D01*
X108394425Y-49835004D01*
X107930000Y-49742624D01*
X107465575Y-49835004D01*
X107071855Y-50098079D01*
X106808780Y-50491799D01*
X106716400Y-50956224D01*
X106603600Y-50956224D01*
X106511220Y-50491799D01*
X106248145Y-50098079D01*
X105854425Y-49835004D01*
X105390000Y-49742624D01*
X104925575Y-49835004D01*
X104531855Y-50098079D01*
X104268780Y-50491799D01*
X104176400Y-50956224D01*
X104063600Y-50956224D01*
X103971220Y-50491799D01*
X103708145Y-50098079D01*
X103314425Y-49835004D01*
X102850000Y-49742624D01*
X102385575Y-49835004D01*
X101991855Y-50098079D01*
X101728780Y-50491799D01*
X101636400Y-50956224D01*
X101523600Y-50956224D01*
X101431220Y-50491799D01*
X101168145Y-50098079D01*
X100774425Y-49835004D01*
X100310000Y-49742624D01*
X99845575Y-49835004D01*
X99451855Y-50098079D01*
X99188780Y-50491799D01*
X99096400Y-50956224D01*
X98983600Y-50956224D01*
X98891220Y-50491799D01*
X98628145Y-50098079D01*
X98234425Y-49835004D01*
X97770000Y-49742624D01*
X97305575Y-49835004D01*
X96911855Y-50098079D01*
X96648780Y-50491799D01*
X96556400Y-50956224D01*
X96443600Y-50956224D01*
X96351220Y-50491799D01*
X96088145Y-50098079D01*
X95694425Y-49835004D01*
X95230000Y-49742624D01*
X94765575Y-49835004D01*
X94371855Y-50098079D01*
X94108780Y-50491799D01*
X94016400Y-50956224D01*
X93903600Y-50956224D01*
X93811220Y-50491799D01*
X93548145Y-50098079D01*
X93154425Y-49835004D01*
X92690000Y-49742624D01*
X92225575Y-49835004D01*
X91831855Y-50098079D01*
X91568780Y-50491799D01*
X91476400Y-50956224D01*
X91363600Y-50956224D01*
X91271220Y-50491799D01*
X91008145Y-50098079D01*
X90614425Y-49835004D01*
X90150000Y-49742624D01*
X89685575Y-49835004D01*
X89291855Y-50098079D01*
X89028780Y-50491799D01*
X88936400Y-50956224D01*
X88823600Y-50956224D01*
X88731220Y-50491799D01*
X88468145Y-50098079D01*
X88074425Y-49835004D01*
X87610000Y-49742624D01*
X87145575Y-49835004D01*
X86751855Y-50098079D01*
X86488780Y-50491799D01*
X86396400Y-50956224D01*
X86283600Y-50956224D01*
X86191220Y-50491799D01*
X85928145Y-50098079D01*
X85534425Y-49835004D01*
X85070000Y-49742624D01*
X84605575Y-49835004D01*
X84211855Y-50098079D01*
X83948780Y-50491799D01*
X83856400Y-50956224D01*
X83743600Y-50956224D01*
X83651220Y-50491799D01*
X83388145Y-50098079D01*
X82994425Y-49835004D01*
X82530000Y-49742624D01*
X82065575Y-49835004D01*
X81671855Y-50098079D01*
X81408780Y-50491799D01*
X81316400Y-50956224D01*
X81203600Y-50956224D01*
X81111220Y-50491799D01*
X80848145Y-50098079D01*
X80454425Y-49835004D01*
X79990000Y-49742624D01*
X79525575Y-49835004D01*
X79131855Y-50098079D01*
X78868780Y-50491799D01*
X78776400Y-50956224D01*
X78663600Y-50956224D01*
X78571220Y-50491799D01*
X78308145Y-50098079D01*
X77914425Y-49835004D01*
X77450000Y-49742624D01*
X76985575Y-49835004D01*
X76591855Y-50098079D01*
X76328780Y-50491799D01*
X76236400Y-50956224D01*
X70427829Y-50956224D01*
X70249018Y-50523471D01*
X71245515Y-50523471D01*
X71275442Y-50705000D01*
X72095000Y-50705000D01*
X72095000Y-49887994D01*
X72645000Y-49887994D01*
X72645000Y-50705000D01*
X73464558Y-50705000D01*
X73494485Y-50523471D01*
X73785515Y-50523471D01*
X73815442Y-50705000D01*
X74635000Y-50705000D01*
X74635000Y-49887994D01*
X75185000Y-49887994D01*
X75185000Y-50705000D01*
X76004558Y-50705000D01*
X76034485Y-50523471D01*
X75774183Y-50127900D01*
X75382316Y-49862054D01*
X75366525Y-49855540D01*
X75185000Y-49887994D01*
X74635000Y-49887994D01*
X74453475Y-49855540D01*
X74437684Y-49862054D01*
X74045817Y-50127900D01*
X73785515Y-50523471D01*
X73494485Y-50523471D01*
X73234183Y-50127900D01*
X72842316Y-49862054D01*
X72826525Y-49855540D01*
X72645000Y-49887994D01*
X72095000Y-49887994D01*
X71913475Y-49855540D01*
X71897684Y-49862054D01*
X71505817Y-50127900D01*
X71245515Y-50523471D01*
X70249018Y-50523471D01*
X70214410Y-50439714D01*
X69315021Y-49538754D01*
X68139312Y-49050556D01*
X66866273Y-49049445D01*
X65689714Y-49535590D01*
X64788754Y-50434979D01*
X64400000Y-51371201D01*
X64400000Y-51289396D01*
X64605153Y-50258023D01*
X65167065Y-49417063D01*
X66008023Y-48855153D01*
X67039396Y-48650000D01*
X125960604Y-48650000D01*
X126991977Y-48855153D01*
X126991977Y-48855153D01*
G37*
X126991977Y-48855153D02*
X127832937Y-49417065D01*
X128394847Y-50258023D01*
X128600000Y-51289396D01*
X128600000Y-51372912D01*
X128214410Y-50439714D01*
X127315021Y-49538754D01*
X126139312Y-49050556D01*
X124866273Y-49049445D01*
X123689714Y-49535590D01*
X122788754Y-50434979D01*
X122300556Y-51610688D01*
X122299445Y-52883727D01*
X122785590Y-54060286D01*
X123684979Y-54961246D01*
X124860688Y-55449444D01*
X126133727Y-55450555D01*
X127310286Y-54964410D01*
X128211246Y-54065021D01*
X128600000Y-53128799D01*
X128600000Y-56300000D01*
X117000000Y-56300000D01*
X116961094Y-56307879D01*
X116926721Y-56331955D01*
X116652127Y-56627671D01*
X116598837Y-56591259D01*
X116460000Y-56563144D01*
X114460000Y-56563144D01*
X114330298Y-56587549D01*
X114211175Y-56664203D01*
X114190645Y-56694249D01*
X114175797Y-56671175D01*
X114058837Y-56591259D01*
X113920000Y-56563144D01*
X111920000Y-56563144D01*
X111790298Y-56587549D01*
X111671175Y-56664203D01*
X111591259Y-56781163D01*
X111563144Y-56920000D01*
X111563144Y-58920000D01*
X111587549Y-59049702D01*
X111612798Y-59088939D01*
X111080446Y-59086827D01*
X111100000Y-59039619D01*
X111100000Y-58332500D01*
X111012500Y-58245000D01*
X110025000Y-58245000D01*
X110025000Y-58265000D01*
X109475000Y-58265000D01*
X109475000Y-58245000D01*
X108487500Y-58245000D01*
X108480000Y-58252500D01*
X108472500Y-58245000D01*
X107485000Y-58245000D01*
X107485000Y-58265000D01*
X106935000Y-58265000D01*
X106935000Y-58245000D01*
X105947500Y-58245000D01*
X105860000Y-58332500D01*
X105860000Y-59039619D01*
X105870991Y-59066154D01*
X99552462Y-59041081D01*
X99566856Y-58970000D01*
X99566856Y-56970000D01*
X99553757Y-56900381D01*
X105860000Y-56900381D01*
X105860000Y-57607500D01*
X105947500Y-57695000D01*
X106935000Y-57695000D01*
X106935000Y-56707500D01*
X107485000Y-56707500D01*
X107485000Y-57695000D01*
X108472500Y-57695000D01*
X108480000Y-57687500D01*
X108487500Y-57695000D01*
X109475000Y-57695000D01*
X109475000Y-56707500D01*
X110025000Y-56707500D01*
X110025000Y-57695000D01*
X111012500Y-57695000D01*
X111100000Y-57607500D01*
X111100000Y-56900381D01*
X111046716Y-56771741D01*
X110948259Y-56673285D01*
X110819620Y-56620000D01*
X110112500Y-56620000D01*
X110025000Y-56707500D01*
X109475000Y-56707500D01*
X109387500Y-56620000D01*
X108680380Y-56620000D01*
X108551741Y-56673285D01*
X108480000Y-56745025D01*
X108408259Y-56673285D01*
X108279620Y-56620000D01*
X107572500Y-56620000D01*
X107485000Y-56707500D01*
X106935000Y-56707500D01*
X106847500Y-56620000D01*
X106140380Y-56620000D01*
X106011741Y-56673285D01*
X105913284Y-56771741D01*
X105860000Y-56900381D01*
X99553757Y-56900381D01*
X99542451Y-56840298D01*
X99465797Y-56721175D01*
X99348837Y-56641259D01*
X99210000Y-56613144D01*
X97210000Y-56613144D01*
X97080298Y-56637549D01*
X96961175Y-56714203D01*
X96940645Y-56744249D01*
X96925797Y-56721175D01*
X96808837Y-56641259D01*
X96670000Y-56613144D01*
X94670000Y-56613144D01*
X94540298Y-56637549D01*
X94421175Y-56714203D01*
X94341259Y-56831163D01*
X94313144Y-56970000D01*
X94313144Y-57476748D01*
X93318198Y-56481802D01*
X93172208Y-56384254D01*
X93000000Y-56350000D01*
X84600000Y-56350000D01*
X84427792Y-56384254D01*
X84281802Y-56481802D01*
X83849901Y-56913703D01*
X83850112Y-56671274D01*
X83751364Y-56432286D01*
X83568676Y-56249278D01*
X83329860Y-56150113D01*
X83071274Y-56149888D01*
X82832286Y-56248636D01*
X82649278Y-56431324D01*
X82550113Y-56670140D01*
X82550044Y-56750000D01*
X75200000Y-56750000D01*
X75027792Y-56784254D01*
X74881802Y-56881802D01*
X74716802Y-57046802D01*
X74619254Y-57192792D01*
X74585000Y-57365000D01*
X74585000Y-57430610D01*
X74486175Y-57494203D01*
X74406259Y-57611163D01*
X74378144Y-57750000D01*
X74378144Y-58941182D01*
X73000000Y-58935714D01*
X73000000Y-58580381D01*
X72946716Y-58451741D01*
X72848259Y-58353285D01*
X72719620Y-58300000D01*
X72362500Y-58300000D01*
X72275000Y-58387500D01*
X72275000Y-58932837D01*
X71725000Y-58930654D01*
X71725000Y-58387500D01*
X71637500Y-58300000D01*
X71280380Y-58300000D01*
X71151741Y-58353285D01*
X71053284Y-58451741D01*
X71000000Y-58580381D01*
X71000000Y-58927777D01*
X68690000Y-58918610D01*
X68690000Y-58390381D01*
X68636716Y-58261741D01*
X68538259Y-58163285D01*
X68409620Y-58110000D01*
X67402500Y-58110000D01*
X67315000Y-58197500D01*
X67315000Y-58913154D01*
X66765000Y-58910971D01*
X66765000Y-58197500D01*
X66677500Y-58110000D01*
X65670380Y-58110000D01*
X65541741Y-58163285D01*
X65443284Y-58261741D01*
X65390000Y-58390381D01*
X65390000Y-58905515D01*
X64400000Y-58901586D01*
X64400000Y-53127088D01*
X64785590Y-54060286D01*
X65684979Y-54961246D01*
X66860688Y-55449444D01*
X68133727Y-55450555D01*
X69310286Y-54964410D01*
X70211246Y-54065021D01*
X70699444Y-52889312D01*
X70699647Y-52656400D01*
X71149544Y-52656400D01*
X71149544Y-54383600D01*
X71173949Y-54513302D01*
X71250603Y-54632425D01*
X71367563Y-54712341D01*
X71506400Y-54740456D01*
X73233600Y-54740456D01*
X73363302Y-54716051D01*
X73482425Y-54639397D01*
X73562341Y-54522437D01*
X73590456Y-54383600D01*
X73590456Y-53496224D01*
X73696400Y-53496224D01*
X73696400Y-53543776D01*
X73788780Y-54008201D01*
X74051855Y-54401921D01*
X74445575Y-54664996D01*
X74910000Y-54757376D01*
X75374425Y-54664996D01*
X75768145Y-54401921D01*
X76031220Y-54008201D01*
X76123600Y-53543776D01*
X76123600Y-53496224D01*
X76236400Y-53496224D01*
X76236400Y-53543776D01*
X76328780Y-54008201D01*
X76591855Y-54401921D01*
X76985575Y-54664996D01*
X77450000Y-54757376D01*
X77914425Y-54664996D01*
X78308145Y-54401921D01*
X78571220Y-54008201D01*
X78663600Y-53543776D01*
X78663600Y-53496224D01*
X78776400Y-53496224D01*
X78776400Y-53543776D01*
X78868780Y-54008201D01*
X79131855Y-54401921D01*
X79525575Y-54664996D01*
X79990000Y-54757376D01*
X80454425Y-54664996D01*
X80848145Y-54401921D01*
X81111220Y-54008201D01*
X81203600Y-53543776D01*
X81203600Y-53496224D01*
X81316400Y-53496224D01*
X81316400Y-53543776D01*
X81408780Y-54008201D01*
X81671855Y-54401921D01*
X82065575Y-54664996D01*
X82530000Y-54757376D01*
X82994425Y-54664996D01*
X83388145Y-54401921D01*
X83651220Y-54008201D01*
X83743600Y-53543776D01*
X83743600Y-53496224D01*
X83856400Y-53496224D01*
X83856400Y-53543776D01*
X83948780Y-54008201D01*
X84211855Y-54401921D01*
X84605575Y-54664996D01*
X85070000Y-54757376D01*
X85534425Y-54664996D01*
X85928145Y-54401921D01*
X86191220Y-54008201D01*
X86283600Y-53543776D01*
X86283600Y-53496224D01*
X86396400Y-53496224D01*
X86396400Y-53543776D01*
X86488780Y-54008201D01*
X86751855Y-54401921D01*
X87145575Y-54664996D01*
X87610000Y-54757376D01*
X88074425Y-54664996D01*
X88468145Y-54401921D01*
X88731220Y-54008201D01*
X88823600Y-53543776D01*
X88823600Y-53496224D01*
X88936400Y-53496224D01*
X88936400Y-53543776D01*
X89028780Y-54008201D01*
X89291855Y-54401921D01*
X89685575Y-54664996D01*
X90150000Y-54757376D01*
X90614425Y-54664996D01*
X91008145Y-54401921D01*
X91271220Y-54008201D01*
X91363600Y-53543776D01*
X91363600Y-53496224D01*
X91476400Y-53496224D01*
X91476400Y-53543776D01*
X91568780Y-54008201D01*
X91831855Y-54401921D01*
X92225575Y-54664996D01*
X92690000Y-54757376D01*
X93154425Y-54664996D01*
X93548145Y-54401921D01*
X93811220Y-54008201D01*
X93903600Y-53543776D01*
X93903600Y-53496224D01*
X94016400Y-53496224D01*
X94016400Y-53543776D01*
X94108780Y-54008201D01*
X94371855Y-54401921D01*
X94765575Y-54664996D01*
X95230000Y-54757376D01*
X95694425Y-54664996D01*
X96088145Y-54401921D01*
X96351220Y-54008201D01*
X96443600Y-53543776D01*
X96443600Y-53496224D01*
X96556400Y-53496224D01*
X96556400Y-53543776D01*
X96648780Y-54008201D01*
X96911855Y-54401921D01*
X97305575Y-54664996D01*
X97770000Y-54757376D01*
X98234425Y-54664996D01*
X98628145Y-54401921D01*
X98891220Y-54008201D01*
X98983600Y-53543776D01*
X98983600Y-53496224D01*
X99096400Y-53496224D01*
X99096400Y-53543776D01*
X99188780Y-54008201D01*
X99451855Y-54401921D01*
X99845575Y-54664996D01*
X100310000Y-54757376D01*
X100774425Y-54664996D01*
X101168145Y-54401921D01*
X101431220Y-54008201D01*
X101523600Y-53543776D01*
X101523600Y-53496224D01*
X101636400Y-53496224D01*
X101636400Y-53543776D01*
X101728780Y-54008201D01*
X101991855Y-54401921D01*
X102385575Y-54664996D01*
X102850000Y-54757376D01*
X103314425Y-54664996D01*
X103708145Y-54401921D01*
X103971220Y-54008201D01*
X104063600Y-53543776D01*
X104063600Y-53496224D01*
X104176400Y-53496224D01*
X104176400Y-53543776D01*
X104268780Y-54008201D01*
X104531855Y-54401921D01*
X104925575Y-54664996D01*
X105390000Y-54757376D01*
X105854425Y-54664996D01*
X106248145Y-54401921D01*
X106511220Y-54008201D01*
X106603600Y-53543776D01*
X106603600Y-53496224D01*
X106716400Y-53496224D01*
X106716400Y-53543776D01*
X106808780Y-54008201D01*
X107071855Y-54401921D01*
X107465575Y-54664996D01*
X107930000Y-54757376D01*
X108394425Y-54664996D01*
X108788145Y-54401921D01*
X109051220Y-54008201D01*
X109143600Y-53543776D01*
X109143600Y-53496224D01*
X109256400Y-53496224D01*
X109256400Y-53543776D01*
X109348780Y-54008201D01*
X109611855Y-54401921D01*
X110005575Y-54664996D01*
X110470000Y-54757376D01*
X110934425Y-54664996D01*
X111328145Y-54401921D01*
X111591220Y-54008201D01*
X111683600Y-53543776D01*
X111683600Y-53496224D01*
X111796400Y-53496224D01*
X111796400Y-53543776D01*
X111888780Y-54008201D01*
X112151855Y-54401921D01*
X112545575Y-54664996D01*
X113010000Y-54757376D01*
X113474425Y-54664996D01*
X113868145Y-54401921D01*
X114131220Y-54008201D01*
X114223600Y-53543776D01*
X114223600Y-53496224D01*
X114336400Y-53496224D01*
X114336400Y-53543776D01*
X114428780Y-54008201D01*
X114691855Y-54401921D01*
X115085575Y-54664996D01*
X115550000Y-54757376D01*
X116014425Y-54664996D01*
X116408145Y-54401921D01*
X116671220Y-54008201D01*
X116763600Y-53543776D01*
X116763600Y-53496224D01*
X116876400Y-53496224D01*
X116876400Y-53543776D01*
X116968780Y-54008201D01*
X117231855Y-54401921D01*
X117625575Y-54664996D01*
X118090000Y-54757376D01*
X118554425Y-54664996D01*
X118948145Y-54401921D01*
X119211220Y-54008201D01*
X119303600Y-53543776D01*
X119303600Y-53496224D01*
X119416400Y-53496224D01*
X119416400Y-53543776D01*
X119508780Y-54008201D01*
X119771855Y-54401921D01*
X120165575Y-54664996D01*
X120630000Y-54757376D01*
X121094425Y-54664996D01*
X121488145Y-54401921D01*
X121751220Y-54008201D01*
X121843600Y-53543776D01*
X121843600Y-53496224D01*
X121751220Y-53031799D01*
X121488145Y-52638079D01*
X121094425Y-52375004D01*
X120630000Y-52282624D01*
X120165575Y-52375004D01*
X119771855Y-52638079D01*
X119508780Y-53031799D01*
X119416400Y-53496224D01*
X119303600Y-53496224D01*
X119211220Y-53031799D01*
X118948145Y-52638079D01*
X118554425Y-52375004D01*
X118090000Y-52282624D01*
X117625575Y-52375004D01*
X117231855Y-52638079D01*
X116968780Y-53031799D01*
X116876400Y-53496224D01*
X116763600Y-53496224D01*
X116671220Y-53031799D01*
X116408145Y-52638079D01*
X116014425Y-52375004D01*
X115550000Y-52282624D01*
X115085575Y-52375004D01*
X114691855Y-52638079D01*
X114428780Y-53031799D01*
X114336400Y-53496224D01*
X114223600Y-53496224D01*
X114131220Y-53031799D01*
X113868145Y-52638079D01*
X113474425Y-52375004D01*
X113010000Y-52282624D01*
X112545575Y-52375004D01*
X112151855Y-52638079D01*
X111888780Y-53031799D01*
X111796400Y-53496224D01*
X111683600Y-53496224D01*
X111591220Y-53031799D01*
X111328145Y-52638079D01*
X110934425Y-52375004D01*
X110470000Y-52282624D01*
X110005575Y-52375004D01*
X109611855Y-52638079D01*
X109348780Y-53031799D01*
X109256400Y-53496224D01*
X109143600Y-53496224D01*
X109051220Y-53031799D01*
X108788145Y-52638079D01*
X108394425Y-52375004D01*
X107930000Y-52282624D01*
X107465575Y-52375004D01*
X107071855Y-52638079D01*
X106808780Y-53031799D01*
X106716400Y-53496224D01*
X106603600Y-53496224D01*
X106511220Y-53031799D01*
X106248145Y-52638079D01*
X105854425Y-52375004D01*
X105390000Y-52282624D01*
X104925575Y-52375004D01*
X104531855Y-52638079D01*
X104268780Y-53031799D01*
X104176400Y-53496224D01*
X104063600Y-53496224D01*
X103971220Y-53031799D01*
X103708145Y-52638079D01*
X103314425Y-52375004D01*
X102850000Y-52282624D01*
X102385575Y-52375004D01*
X101991855Y-52638079D01*
X101728780Y-53031799D01*
X101636400Y-53496224D01*
X101523600Y-53496224D01*
X101431220Y-53031799D01*
X101168145Y-52638079D01*
X100774425Y-52375004D01*
X100310000Y-52282624D01*
X99845575Y-52375004D01*
X99451855Y-52638079D01*
X99188780Y-53031799D01*
X99096400Y-53496224D01*
X98983600Y-53496224D01*
X98891220Y-53031799D01*
X98628145Y-52638079D01*
X98234425Y-52375004D01*
X97770000Y-52282624D01*
X97305575Y-52375004D01*
X96911855Y-52638079D01*
X96648780Y-53031799D01*
X96556400Y-53496224D01*
X96443600Y-53496224D01*
X96351220Y-53031799D01*
X96088145Y-52638079D01*
X95694425Y-52375004D01*
X95230000Y-52282624D01*
X94765575Y-52375004D01*
X94371855Y-52638079D01*
X94108780Y-53031799D01*
X94016400Y-53496224D01*
X93903600Y-53496224D01*
X93811220Y-53031799D01*
X93548145Y-52638079D01*
X93154425Y-52375004D01*
X92690000Y-52282624D01*
X92225575Y-52375004D01*
X91831855Y-52638079D01*
X91568780Y-53031799D01*
X91476400Y-53496224D01*
X91363600Y-53496224D01*
X91271220Y-53031799D01*
X91008145Y-52638079D01*
X90614425Y-52375004D01*
X90150000Y-52282624D01*
X89685575Y-52375004D01*
X89291855Y-52638079D01*
X89028780Y-53031799D01*
X88936400Y-53496224D01*
X88823600Y-53496224D01*
X88731220Y-53031799D01*
X88468145Y-52638079D01*
X88074425Y-52375004D01*
X87610000Y-52282624D01*
X87145575Y-52375004D01*
X86751855Y-52638079D01*
X86488780Y-53031799D01*
X86396400Y-53496224D01*
X86283600Y-53496224D01*
X86191220Y-53031799D01*
X85928145Y-52638079D01*
X85534425Y-52375004D01*
X85070000Y-52282624D01*
X84605575Y-52375004D01*
X84211855Y-52638079D01*
X83948780Y-53031799D01*
X83856400Y-53496224D01*
X83743600Y-53496224D01*
X83651220Y-53031799D01*
X83388145Y-52638079D01*
X82994425Y-52375004D01*
X82530000Y-52282624D01*
X82065575Y-52375004D01*
X81671855Y-52638079D01*
X81408780Y-53031799D01*
X81316400Y-53496224D01*
X81203600Y-53496224D01*
X81111220Y-53031799D01*
X80848145Y-52638079D01*
X80454425Y-52375004D01*
X79990000Y-52282624D01*
X79525575Y-52375004D01*
X79131855Y-52638079D01*
X78868780Y-53031799D01*
X78776400Y-53496224D01*
X78663600Y-53496224D01*
X78571220Y-53031799D01*
X78308145Y-52638079D01*
X77914425Y-52375004D01*
X77450000Y-52282624D01*
X76985575Y-52375004D01*
X76591855Y-52638079D01*
X76328780Y-53031799D01*
X76236400Y-53496224D01*
X76123600Y-53496224D01*
X76031220Y-53031799D01*
X75768145Y-52638079D01*
X75374425Y-52375004D01*
X74910000Y-52282624D01*
X74445575Y-52375004D01*
X74051855Y-52638079D01*
X73788780Y-53031799D01*
X73696400Y-53496224D01*
X73590456Y-53496224D01*
X73590456Y-52656400D01*
X73566051Y-52526698D01*
X73489397Y-52407575D01*
X73372437Y-52327659D01*
X73233600Y-52299544D01*
X71506400Y-52299544D01*
X71376698Y-52323949D01*
X71257575Y-52400603D01*
X71177659Y-52517563D01*
X71149544Y-52656400D01*
X70699647Y-52656400D01*
X70700555Y-51616273D01*
X70626287Y-51436529D01*
X71245515Y-51436529D01*
X71505817Y-51832100D01*
X71897684Y-52097946D01*
X71913475Y-52104460D01*
X72095000Y-52072006D01*
X72095000Y-51255000D01*
X72645000Y-51255000D01*
X72645000Y-52072006D01*
X72826525Y-52104460D01*
X72842316Y-52097946D01*
X73234183Y-51832100D01*
X73494485Y-51436529D01*
X73785515Y-51436529D01*
X74045817Y-51832100D01*
X74437684Y-52097946D01*
X74453475Y-52104460D01*
X74635000Y-52072006D01*
X74635000Y-51255000D01*
X75185000Y-51255000D01*
X75185000Y-52072006D01*
X75366525Y-52104460D01*
X75382316Y-52097946D01*
X75774183Y-51832100D01*
X76034485Y-51436529D01*
X76004558Y-51255000D01*
X75185000Y-51255000D01*
X74635000Y-51255000D01*
X73815442Y-51255000D01*
X73785515Y-51436529D01*
X73494485Y-51436529D01*
X73464558Y-51255000D01*
X72645000Y-51255000D01*
X72095000Y-51255000D01*
X71275442Y-51255000D01*
X71245515Y-51436529D01*
X70626287Y-51436529D01*
X70427829Y-50956224D01*
X76236400Y-50956224D01*
X76236400Y-51003776D01*
X76328780Y-51468201D01*
X76591855Y-51861921D01*
X76985575Y-52124996D01*
X77450000Y-52217376D01*
X77914425Y-52124996D01*
X78308145Y-51861921D01*
X78571220Y-51468201D01*
X78663600Y-51003776D01*
X78663600Y-50956224D01*
X78776400Y-50956224D01*
X78776400Y-51003776D01*
X78868780Y-51468201D01*
X79131855Y-51861921D01*
X79525575Y-52124996D01*
X79990000Y-52217376D01*
X80454425Y-52124996D01*
X80848145Y-51861921D01*
X81111220Y-51468201D01*
X81203600Y-51003776D01*
X81203600Y-50956224D01*
X81316400Y-50956224D01*
X81316400Y-51003776D01*
X81408780Y-51468201D01*
X81671855Y-51861921D01*
X82065575Y-52124996D01*
X82530000Y-52217376D01*
X82994425Y-52124996D01*
X83388145Y-51861921D01*
X83651220Y-51468201D01*
X83743600Y-51003776D01*
X83743600Y-50956224D01*
X83856400Y-50956224D01*
X83856400Y-51003776D01*
X83948780Y-51468201D01*
X84211855Y-51861921D01*
X84605575Y-52124996D01*
X85070000Y-52217376D01*
X85534425Y-52124996D01*
X85928145Y-51861921D01*
X86191220Y-51468201D01*
X86283600Y-51003776D01*
X86283600Y-50956224D01*
X86396400Y-50956224D01*
X86396400Y-51003776D01*
X86488780Y-51468201D01*
X86751855Y-51861921D01*
X87145575Y-52124996D01*
X87610000Y-52217376D01*
X88074425Y-52124996D01*
X88468145Y-51861921D01*
X88731220Y-51468201D01*
X88823600Y-51003776D01*
X88823600Y-50956224D01*
X88936400Y-50956224D01*
X88936400Y-51003776D01*
X89028780Y-51468201D01*
X89291855Y-51861921D01*
X89685575Y-52124996D01*
X90150000Y-52217376D01*
X90614425Y-52124996D01*
X91008145Y-51861921D01*
X91271220Y-51468201D01*
X91363600Y-51003776D01*
X91363600Y-50956224D01*
X91476400Y-50956224D01*
X91476400Y-51003776D01*
X91568780Y-51468201D01*
X91831855Y-51861921D01*
X92225575Y-52124996D01*
X92690000Y-52217376D01*
X93154425Y-52124996D01*
X93548145Y-51861921D01*
X93811220Y-51468201D01*
X93903600Y-51003776D01*
X93903600Y-50956224D01*
X94016400Y-50956224D01*
X94016400Y-51003776D01*
X94108780Y-51468201D01*
X94371855Y-51861921D01*
X94765575Y-52124996D01*
X95230000Y-52217376D01*
X95694425Y-52124996D01*
X96088145Y-51861921D01*
X96351220Y-51468201D01*
X96443600Y-51003776D01*
X96443600Y-50956224D01*
X96556400Y-50956224D01*
X96556400Y-51003776D01*
X96648780Y-51468201D01*
X96911855Y-51861921D01*
X97305575Y-52124996D01*
X97770000Y-52217376D01*
X98234425Y-52124996D01*
X98628145Y-51861921D01*
X98891220Y-51468201D01*
X98983600Y-51003776D01*
X98983600Y-50956224D01*
X99096400Y-50956224D01*
X99096400Y-51003776D01*
X99188780Y-51468201D01*
X99451855Y-51861921D01*
X99845575Y-52124996D01*
X100310000Y-52217376D01*
X100774425Y-52124996D01*
X101168145Y-51861921D01*
X101431220Y-51468201D01*
X101523600Y-51003776D01*
X101523600Y-50956224D01*
X101636400Y-50956224D01*
X101636400Y-51003776D01*
X101728780Y-51468201D01*
X101991855Y-51861921D01*
X102385575Y-52124996D01*
X102850000Y-52217376D01*
X103314425Y-52124996D01*
X103708145Y-51861921D01*
X103971220Y-51468201D01*
X104063600Y-51003776D01*
X104063600Y-50956224D01*
X104176400Y-50956224D01*
X104176400Y-51003776D01*
X104268780Y-51468201D01*
X104531855Y-51861921D01*
X104925575Y-52124996D01*
X105390000Y-52217376D01*
X105854425Y-52124996D01*
X106248145Y-51861921D01*
X106511220Y-51468201D01*
X106603600Y-51003776D01*
X106603600Y-50956224D01*
X106716400Y-50956224D01*
X106716400Y-51003776D01*
X106808780Y-51468201D01*
X107071855Y-51861921D01*
X107465575Y-52124996D01*
X107930000Y-52217376D01*
X108394425Y-52124996D01*
X108788145Y-51861921D01*
X109051220Y-51468201D01*
X109143600Y-51003776D01*
X109143600Y-50956224D01*
X109256400Y-50956224D01*
X109256400Y-51003776D01*
X109348780Y-51468201D01*
X109611855Y-51861921D01*
X110005575Y-52124996D01*
X110470000Y-52217376D01*
X110934425Y-52124996D01*
X111328145Y-51861921D01*
X111591220Y-51468201D01*
X111683600Y-51003776D01*
X111683600Y-50956224D01*
X111796400Y-50956224D01*
X111796400Y-51003776D01*
X111888780Y-51468201D01*
X112151855Y-51861921D01*
X112545575Y-52124996D01*
X113010000Y-52217376D01*
X113474425Y-52124996D01*
X113868145Y-51861921D01*
X114131220Y-51468201D01*
X114223600Y-51003776D01*
X114223600Y-50956224D01*
X114336400Y-50956224D01*
X114336400Y-51003776D01*
X114428780Y-51468201D01*
X114691855Y-51861921D01*
X115085575Y-52124996D01*
X115550000Y-52217376D01*
X116014425Y-52124996D01*
X116408145Y-51861921D01*
X116671220Y-51468201D01*
X116763600Y-51003776D01*
X116763600Y-50956224D01*
X116876400Y-50956224D01*
X116876400Y-51003776D01*
X116968780Y-51468201D01*
X117231855Y-51861921D01*
X117625575Y-52124996D01*
X118090000Y-52217376D01*
X118554425Y-52124996D01*
X118948145Y-51861921D01*
X119211220Y-51468201D01*
X119303600Y-51003776D01*
X119303600Y-50956224D01*
X119416400Y-50956224D01*
X119416400Y-51003776D01*
X119508780Y-51468201D01*
X119771855Y-51861921D01*
X120165575Y-52124996D01*
X120630000Y-52217376D01*
X121094425Y-52124996D01*
X121488145Y-51861921D01*
X121751220Y-51468201D01*
X121843600Y-51003776D01*
X121843600Y-50956224D01*
X121751220Y-50491799D01*
X121488145Y-50098079D01*
X121094425Y-49835004D01*
X120630000Y-49742624D01*
X120165575Y-49835004D01*
X119771855Y-50098079D01*
X119508780Y-50491799D01*
X119416400Y-50956224D01*
X119303600Y-50956224D01*
X119211220Y-50491799D01*
X118948145Y-50098079D01*
X118554425Y-49835004D01*
X118090000Y-49742624D01*
X117625575Y-49835004D01*
X117231855Y-50098079D01*
X116968780Y-50491799D01*
X116876400Y-50956224D01*
X116763600Y-50956224D01*
X116671220Y-50491799D01*
X116408145Y-50098079D01*
X116014425Y-49835004D01*
X115550000Y-49742624D01*
X115085575Y-49835004D01*
X114691855Y-50098079D01*
X114428780Y-50491799D01*
X114336400Y-50956224D01*
X114223600Y-50956224D01*
X114131220Y-50491799D01*
X113868145Y-50098079D01*
X113474425Y-49835004D01*
X113010000Y-49742624D01*
X112545575Y-49835004D01*
X112151855Y-50098079D01*
X111888780Y-50491799D01*
X111796400Y-50956224D01*
X111683600Y-50956224D01*
X111591220Y-50491799D01*
X111328145Y-50098079D01*
X110934425Y-49835004D01*
X110470000Y-49742624D01*
X110005575Y-49835004D01*
X109611855Y-50098079D01*
X109348780Y-50491799D01*
X109256400Y-50956224D01*
X109143600Y-50956224D01*
X109051220Y-50491799D01*
X108788145Y-50098079D01*
X108394425Y-49835004D01*
X107930000Y-49742624D01*
X107465575Y-49835004D01*
X107071855Y-50098079D01*
X106808780Y-50491799D01*
X106716400Y-50956224D01*
X106603600Y-50956224D01*
X106511220Y-50491799D01*
X106248145Y-50098079D01*
X105854425Y-49835004D01*
X105390000Y-49742624D01*
X104925575Y-49835004D01*
X104531855Y-50098079D01*
X104268780Y-50491799D01*
X104176400Y-50956224D01*
X104063600Y-50956224D01*
X103971220Y-50491799D01*
X103708145Y-50098079D01*
X103314425Y-49835004D01*
X102850000Y-49742624D01*
X102385575Y-49835004D01*
X101991855Y-50098079D01*
X101728780Y-50491799D01*
X101636400Y-50956224D01*
X101523600Y-50956224D01*
X101431220Y-50491799D01*
X101168145Y-50098079D01*
X100774425Y-49835004D01*
X100310000Y-49742624D01*
X99845575Y-49835004D01*
X99451855Y-50098079D01*
X99188780Y-50491799D01*
X99096400Y-50956224D01*
X98983600Y-50956224D01*
X98891220Y-50491799D01*
X98628145Y-50098079D01*
X98234425Y-49835004D01*
X97770000Y-49742624D01*
X97305575Y-49835004D01*
X96911855Y-50098079D01*
X96648780Y-50491799D01*
X96556400Y-50956224D01*
X96443600Y-50956224D01*
X96351220Y-50491799D01*
X96088145Y-50098079D01*
X95694425Y-49835004D01*
X95230000Y-49742624D01*
X94765575Y-49835004D01*
X94371855Y-50098079D01*
X94108780Y-50491799D01*
X94016400Y-50956224D01*
X93903600Y-50956224D01*
X93811220Y-50491799D01*
X93548145Y-50098079D01*
X93154425Y-49835004D01*
X92690000Y-49742624D01*
X92225575Y-49835004D01*
X91831855Y-50098079D01*
X91568780Y-50491799D01*
X91476400Y-50956224D01*
X91363600Y-50956224D01*
X91271220Y-50491799D01*
X91008145Y-50098079D01*
X90614425Y-49835004D01*
X90150000Y-49742624D01*
X89685575Y-49835004D01*
X89291855Y-50098079D01*
X89028780Y-50491799D01*
X88936400Y-50956224D01*
X88823600Y-50956224D01*
X88731220Y-50491799D01*
X88468145Y-50098079D01*
X88074425Y-49835004D01*
X87610000Y-49742624D01*
X87145575Y-49835004D01*
X86751855Y-50098079D01*
X86488780Y-50491799D01*
X86396400Y-50956224D01*
X86283600Y-50956224D01*
X86191220Y-50491799D01*
X85928145Y-50098079D01*
X85534425Y-49835004D01*
X85070000Y-49742624D01*
X84605575Y-49835004D01*
X84211855Y-50098079D01*
X83948780Y-50491799D01*
X83856400Y-50956224D01*
X83743600Y-50956224D01*
X83651220Y-50491799D01*
X83388145Y-50098079D01*
X82994425Y-49835004D01*
X82530000Y-49742624D01*
X82065575Y-49835004D01*
X81671855Y-50098079D01*
X81408780Y-50491799D01*
X81316400Y-50956224D01*
X81203600Y-50956224D01*
X81111220Y-50491799D01*
X80848145Y-50098079D01*
X80454425Y-49835004D01*
X79990000Y-49742624D01*
X79525575Y-49835004D01*
X79131855Y-50098079D01*
X78868780Y-50491799D01*
X78776400Y-50956224D01*
X78663600Y-50956224D01*
X78571220Y-50491799D01*
X78308145Y-50098079D01*
X77914425Y-49835004D01*
X77450000Y-49742624D01*
X76985575Y-49835004D01*
X76591855Y-50098079D01*
X76328780Y-50491799D01*
X76236400Y-50956224D01*
X70427829Y-50956224D01*
X70249018Y-50523471D01*
X71245515Y-50523471D01*
X71275442Y-50705000D01*
X72095000Y-50705000D01*
X72095000Y-49887994D01*
X72645000Y-49887994D01*
X72645000Y-50705000D01*
X73464558Y-50705000D01*
X73494485Y-50523471D01*
X73785515Y-50523471D01*
X73815442Y-50705000D01*
X74635000Y-50705000D01*
X74635000Y-49887994D01*
X75185000Y-49887994D01*
X75185000Y-50705000D01*
X76004558Y-50705000D01*
X76034485Y-50523471D01*
X75774183Y-50127900D01*
X75382316Y-49862054D01*
X75366525Y-49855540D01*
X75185000Y-49887994D01*
X74635000Y-49887994D01*
X74453475Y-49855540D01*
X74437684Y-49862054D01*
X74045817Y-50127900D01*
X73785515Y-50523471D01*
X73494485Y-50523471D01*
X73234183Y-50127900D01*
X72842316Y-49862054D01*
X72826525Y-49855540D01*
X72645000Y-49887994D01*
X72095000Y-49887994D01*
X71913475Y-49855540D01*
X71897684Y-49862054D01*
X71505817Y-50127900D01*
X71245515Y-50523471D01*
X70249018Y-50523471D01*
X70214410Y-50439714D01*
X69315021Y-49538754D01*
X68139312Y-49050556D01*
X66866273Y-49049445D01*
X65689714Y-49535590D01*
X64788754Y-50434979D01*
X64400000Y-51371201D01*
X64400000Y-51289396D01*
X64605153Y-50258023D01*
X65167065Y-49417063D01*
X66008023Y-48855153D01*
X67039396Y-48650000D01*
X125960604Y-48650000D01*
X126991977Y-48855153D01*
G36*
X111300000Y-76641422D02*
X111300000Y-79000000D01*
X111307879Y-79038906D01*
X111329289Y-79070711D01*
X111529289Y-79270711D01*
X111562371Y-79292650D01*
X111600000Y-79300000D01*
X122550000Y-79300000D01*
X122550000Y-80080610D01*
X122451175Y-80144203D01*
X122371259Y-80261163D01*
X122343144Y-80400000D01*
X122343144Y-81200000D01*
X122367549Y-81329702D01*
X122444203Y-81448825D01*
X122561163Y-81528741D01*
X122700000Y-81556856D01*
X124120460Y-81556856D01*
X124513604Y-81950000D01*
X124012500Y-81950000D01*
X123925000Y-82037500D01*
X123925000Y-82500000D01*
X123945000Y-82500000D01*
X123945000Y-82900000D01*
X123925000Y-82900000D01*
X123925000Y-83362500D01*
X124012500Y-83450000D01*
X124669619Y-83450000D01*
X124798259Y-83396716D01*
X124896715Y-83298259D01*
X124945086Y-83181482D01*
X125855010Y-84091406D01*
X125843144Y-84150000D01*
X125843144Y-85450000D01*
X125867549Y-85579702D01*
X125944203Y-85698825D01*
X126061163Y-85778741D01*
X126200000Y-85806856D01*
X126300000Y-85806856D01*
X126300000Y-86616144D01*
X126293144Y-86650000D01*
X126293144Y-87750000D01*
X126300000Y-87786437D01*
X126300000Y-88753163D01*
X125163796Y-89700000D01*
X121200000Y-89700000D01*
X121161094Y-89707879D01*
X121129289Y-89729289D01*
X120265434Y-90593144D01*
X119700000Y-90593144D01*
X119570298Y-90617549D01*
X119451175Y-90694203D01*
X119371259Y-90811163D01*
X119343144Y-90950000D01*
X119343144Y-91515434D01*
X118958578Y-91900000D01*
X115625000Y-91900000D01*
X115625000Y-91610332D01*
X115767714Y-91551364D01*
X115950722Y-91368676D01*
X116049887Y-91129860D01*
X116050112Y-90871274D01*
X115951364Y-90632286D01*
X115768676Y-90449278D01*
X115529860Y-90350113D01*
X115271274Y-90349888D01*
X115032286Y-90448636D01*
X114849278Y-90631324D01*
X114800000Y-90749999D01*
X114800000Y-90430381D01*
X114746716Y-90301741D01*
X114648259Y-90203285D01*
X114519620Y-90150000D01*
X114162500Y-90150000D01*
X114075000Y-90237500D01*
X114075000Y-90975000D01*
X114095000Y-90975000D01*
X114095000Y-91525000D01*
X114075000Y-91525000D01*
X114075000Y-91545000D01*
X113525000Y-91545000D01*
X113525000Y-91525000D01*
X112887500Y-91525000D01*
X112800000Y-91612500D01*
X112800000Y-91900000D01*
X112266705Y-91900000D01*
X112300000Y-91819619D01*
X112300000Y-91562500D01*
X112212500Y-91475000D01*
X111675000Y-91475000D01*
X111675000Y-91495000D01*
X111125000Y-91495000D01*
X111125000Y-91475000D01*
X110587500Y-91475000D01*
X110500000Y-91562500D01*
X110500000Y-91819619D01*
X110533295Y-91900000D01*
X110336396Y-91900000D01*
X110318198Y-91881802D01*
X110172208Y-91784254D01*
X110000000Y-91750000D01*
X108400000Y-91750000D01*
X108227792Y-91784254D01*
X108081802Y-91881802D01*
X107881802Y-92081802D01*
X107784254Y-92227792D01*
X107755420Y-92372754D01*
X107746716Y-92351741D01*
X107648259Y-92253285D01*
X107519620Y-92200000D01*
X107337500Y-92200000D01*
X107250000Y-92287500D01*
X107250000Y-93225000D01*
X107345000Y-93225000D01*
X107345000Y-93775000D01*
X107250000Y-93775000D01*
X107250000Y-93795000D01*
X106850000Y-93795000D01*
X106850000Y-93775000D01*
X106387500Y-93775000D01*
X106300000Y-93862500D01*
X106300000Y-94519619D01*
X106348671Y-94637121D01*
X106281802Y-94681802D01*
X105881802Y-95081802D01*
X105784254Y-95227792D01*
X105750000Y-95400000D01*
X105750000Y-97500000D01*
X97641422Y-97500000D01*
X92621803Y-92480381D01*
X106300000Y-92480381D01*
X106300000Y-93137500D01*
X106387500Y-93225000D01*
X106850000Y-93225000D01*
X106850000Y-92287500D01*
X106762500Y-92200000D01*
X106580380Y-92200000D01*
X106451741Y-92253285D01*
X106353284Y-92351741D01*
X106300000Y-92480381D01*
X92621803Y-92480381D01*
X91350000Y-91208578D01*
X91350000Y-91200000D01*
X91326064Y-91072790D01*
X91250883Y-90955955D01*
X91136170Y-90877575D01*
X91000000Y-90850000D01*
X90991422Y-90850000D01*
X90870711Y-90729289D01*
X90837629Y-90707350D01*
X90800000Y-90700000D01*
X87841422Y-90700000D01*
X87721803Y-90580381D01*
X110500000Y-90580381D01*
X110500000Y-90837500D01*
X110587500Y-90925000D01*
X111125000Y-90925000D01*
X111125000Y-90387500D01*
X111675000Y-90387500D01*
X111675000Y-90925000D01*
X112212500Y-90925000D01*
X112300000Y-90837500D01*
X112300000Y-90580381D01*
X112246716Y-90451741D01*
X112225356Y-90430381D01*
X112800000Y-90430381D01*
X112800000Y-90887500D01*
X112887500Y-90975000D01*
X113525000Y-90975000D01*
X113525000Y-90237500D01*
X113437500Y-90150000D01*
X113080380Y-90150000D01*
X112951741Y-90203285D01*
X112853284Y-90301741D01*
X112800000Y-90430381D01*
X112225356Y-90430381D01*
X112148259Y-90353285D01*
X112019620Y-90300000D01*
X111762500Y-90300000D01*
X111675000Y-90387500D01*
X111125000Y-90387500D01*
X111037500Y-90300000D01*
X110780380Y-90300000D01*
X110651741Y-90353285D01*
X110553284Y-90451741D01*
X110500000Y-90580381D01*
X87721803Y-90580381D01*
X87700000Y-90558578D01*
X87700000Y-88962500D01*
X88200000Y-88962500D01*
X88200000Y-89919620D01*
X88253285Y-90048259D01*
X88351741Y-90146716D01*
X88480381Y-90200000D01*
X89387500Y-90200000D01*
X89475000Y-90112500D01*
X89475000Y-88875000D01*
X90025000Y-88875000D01*
X90025000Y-90112500D01*
X90112500Y-90200000D01*
X91019619Y-90200000D01*
X91148259Y-90146716D01*
X91246715Y-90048259D01*
X91300000Y-89919620D01*
X91300000Y-88962500D01*
X91212500Y-88875000D01*
X90025000Y-88875000D01*
X89475000Y-88875000D01*
X88287500Y-88875000D01*
X88200000Y-88962500D01*
X87700000Y-88962500D01*
X87700000Y-87280380D01*
X88200000Y-87280380D01*
X88200000Y-88237500D01*
X88287500Y-88325000D01*
X89475000Y-88325000D01*
X89475000Y-87087500D01*
X90025000Y-87087500D01*
X90025000Y-88325000D01*
X91212500Y-88325000D01*
X91300000Y-88237500D01*
X91300000Y-87562500D01*
X123500000Y-87562500D01*
X123500000Y-87819620D01*
X123553285Y-87948259D01*
X123651741Y-88046716D01*
X123780381Y-88100000D01*
X124037500Y-88100000D01*
X124125000Y-88012500D01*
X124125000Y-87475000D01*
X124675000Y-87475000D01*
X124675000Y-88012500D01*
X124762500Y-88100000D01*
X125019619Y-88100000D01*
X125148259Y-88046716D01*
X125246715Y-87948259D01*
X125300000Y-87819620D01*
X125300000Y-87562500D01*
X125212500Y-87475000D01*
X124675000Y-87475000D01*
X124125000Y-87475000D01*
X123587500Y-87475000D01*
X123500000Y-87562500D01*
X91300000Y-87562500D01*
X91300000Y-87280380D01*
X91246715Y-87151741D01*
X91148259Y-87053284D01*
X91019619Y-87000000D01*
X90112500Y-87000000D01*
X90025000Y-87087500D01*
X89475000Y-87087500D01*
X89387500Y-87000000D01*
X88480381Y-87000000D01*
X88351741Y-87053284D01*
X88253285Y-87151741D01*
X88200000Y-87280380D01*
X87700000Y-87280380D01*
X87700000Y-86250000D01*
X88537500Y-86250000D01*
X88625000Y-86162500D01*
X88625000Y-85275000D01*
X89175000Y-85275000D01*
X89175000Y-86162500D01*
X89262500Y-86250000D01*
X90719619Y-86250000D01*
X90848259Y-86196716D01*
X90946715Y-86098259D01*
X91000000Y-85969620D01*
X91000000Y-85827746D01*
X96349801Y-85827746D01*
X96524509Y-86250572D01*
X96847727Y-86574354D01*
X97270247Y-86749800D01*
X97727746Y-86750199D01*
X98150572Y-86575491D01*
X98474354Y-86252273D01*
X98594678Y-85962500D01*
X99850000Y-85962500D01*
X99850000Y-86469620D01*
X99903285Y-86598259D01*
X100001741Y-86696716D01*
X100130381Y-86750000D01*
X100637500Y-86750000D01*
X100725000Y-86662500D01*
X100725000Y-85875000D01*
X101275000Y-85875000D01*
X101275000Y-86662500D01*
X101362500Y-86750000D01*
X101869619Y-86750000D01*
X101998259Y-86696716D01*
X102096715Y-86598259D01*
X102150000Y-86469620D01*
X102150000Y-85962500D01*
X102062500Y-85875000D01*
X101275000Y-85875000D01*
X100725000Y-85875000D01*
X99937500Y-85875000D01*
X99850000Y-85962500D01*
X98594678Y-85962500D01*
X98649800Y-85829753D01*
X98649801Y-85827746D01*
X105349801Y-85827746D01*
X105524509Y-86250572D01*
X105847727Y-86574354D01*
X106270247Y-86749800D01*
X106727746Y-86750199D01*
X107150572Y-86575491D01*
X107474354Y-86252273D01*
X107594678Y-85962500D01*
X108850000Y-85962500D01*
X108850000Y-86469620D01*
X108903285Y-86598259D01*
X109001741Y-86696716D01*
X109130381Y-86750000D01*
X109637500Y-86750000D01*
X109725000Y-86662500D01*
X109725000Y-85875000D01*
X110275000Y-85875000D01*
X110275000Y-86662500D01*
X110362500Y-86750000D01*
X110869619Y-86750000D01*
X110998259Y-86696716D01*
X111096715Y-86598259D01*
X111150000Y-86469620D01*
X111150000Y-85962500D01*
X111062500Y-85875000D01*
X110275000Y-85875000D01*
X109725000Y-85875000D01*
X108937500Y-85875000D01*
X108850000Y-85962500D01*
X107594678Y-85962500D01*
X107649800Y-85829753D01*
X107649801Y-85827746D01*
X114349801Y-85827746D01*
X114524509Y-86250572D01*
X114847727Y-86574354D01*
X115270247Y-86749800D01*
X115727746Y-86750199D01*
X116150572Y-86575491D01*
X116474354Y-86252273D01*
X116594678Y-85962500D01*
X117850000Y-85962500D01*
X117850000Y-86469620D01*
X117903285Y-86598259D01*
X118001741Y-86696716D01*
X118130381Y-86750000D01*
X118637500Y-86750000D01*
X118725000Y-86662500D01*
X118725000Y-85875000D01*
X119275000Y-85875000D01*
X119275000Y-86662500D01*
X119362500Y-86750000D01*
X119869619Y-86750000D01*
X119998259Y-86696716D01*
X120096715Y-86598259D01*
X120104120Y-86580380D01*
X123500000Y-86580380D01*
X123500000Y-86837500D01*
X123587500Y-86925000D01*
X124125000Y-86925000D01*
X124125000Y-86387500D01*
X124675000Y-86387500D01*
X124675000Y-86925000D01*
X125212500Y-86925000D01*
X125300000Y-86837500D01*
X125300000Y-86580380D01*
X125246715Y-86451741D01*
X125148259Y-86353284D01*
X125019619Y-86300000D01*
X124762500Y-86300000D01*
X124675000Y-86387500D01*
X124125000Y-86387500D01*
X124037500Y-86300000D01*
X123780381Y-86300000D01*
X123651741Y-86353284D01*
X123553285Y-86451741D01*
X123500000Y-86580380D01*
X120104120Y-86580380D01*
X120150000Y-86469620D01*
X120150000Y-85962500D01*
X120062500Y-85875000D01*
X119275000Y-85875000D01*
X118725000Y-85875000D01*
X117937500Y-85875000D01*
X117850000Y-85962500D01*
X116594678Y-85962500D01*
X116649800Y-85829753D01*
X116650199Y-85372254D01*
X116475491Y-84949428D01*
X116256825Y-84730380D01*
X117850000Y-84730380D01*
X117850000Y-85237500D01*
X117937500Y-85325000D01*
X118725000Y-85325000D01*
X118725000Y-84537500D01*
X119275000Y-84537500D01*
X119275000Y-85325000D01*
X120062500Y-85325000D01*
X120150000Y-85237500D01*
X120150000Y-85162500D01*
X123150000Y-85162500D01*
X123150000Y-85519620D01*
X123203285Y-85648259D01*
X123301741Y-85746716D01*
X123430381Y-85800000D01*
X123887500Y-85800000D01*
X123975000Y-85712500D01*
X123975000Y-85075000D01*
X124525000Y-85075000D01*
X124525000Y-85712500D01*
X124612500Y-85800000D01*
X125069619Y-85800000D01*
X125198259Y-85746716D01*
X125296715Y-85648259D01*
X125350000Y-85519620D01*
X125350000Y-85162500D01*
X125262500Y-85075000D01*
X124525000Y-85075000D01*
X123975000Y-85075000D01*
X123237500Y-85075000D01*
X123150000Y-85162500D01*
X120150000Y-85162500D01*
X120150000Y-84730380D01*
X120096715Y-84601741D01*
X119998259Y-84503284D01*
X119869619Y-84450000D01*
X119362500Y-84450000D01*
X119275000Y-84537500D01*
X118725000Y-84537500D01*
X118637500Y-84450000D01*
X118130381Y-84450000D01*
X118001741Y-84503284D01*
X117903285Y-84601741D01*
X117850000Y-84730380D01*
X116256825Y-84730380D01*
X116152273Y-84625646D01*
X115729753Y-84450200D01*
X115272254Y-84449801D01*
X114849428Y-84624509D01*
X114525646Y-84947727D01*
X114350200Y-85370247D01*
X114349801Y-85827746D01*
X107649801Y-85827746D01*
X107650199Y-85372254D01*
X107475491Y-84949428D01*
X107256825Y-84730380D01*
X108850000Y-84730380D01*
X108850000Y-85237500D01*
X108937500Y-85325000D01*
X109725000Y-85325000D01*
X109725000Y-84537500D01*
X110275000Y-84537500D01*
X110275000Y-85325000D01*
X111062500Y-85325000D01*
X111150000Y-85237500D01*
X111150000Y-84730380D01*
X111096715Y-84601741D01*
X110998259Y-84503284D01*
X110869619Y-84450000D01*
X110362500Y-84450000D01*
X110275000Y-84537500D01*
X109725000Y-84537500D01*
X109637500Y-84450000D01*
X109130381Y-84450000D01*
X109001741Y-84503284D01*
X108903285Y-84601741D01*
X108850000Y-84730380D01*
X107256825Y-84730380D01*
X107152273Y-84625646D01*
X106729753Y-84450200D01*
X106272254Y-84449801D01*
X105849428Y-84624509D01*
X105525646Y-84947727D01*
X105350200Y-85370247D01*
X105349801Y-85827746D01*
X98649801Y-85827746D01*
X98650199Y-85372254D01*
X98475491Y-84949428D01*
X98256825Y-84730380D01*
X99850000Y-84730380D01*
X99850000Y-85237500D01*
X99937500Y-85325000D01*
X100725000Y-85325000D01*
X100725000Y-84537500D01*
X101275000Y-84537500D01*
X101275000Y-85325000D01*
X102062500Y-85325000D01*
X102150000Y-85237500D01*
X102150000Y-84730380D01*
X102096715Y-84601741D01*
X101998259Y-84503284D01*
X101869619Y-84450000D01*
X101362500Y-84450000D01*
X101275000Y-84537500D01*
X100725000Y-84537500D01*
X100637500Y-84450000D01*
X100130381Y-84450000D01*
X100001741Y-84503284D01*
X99903285Y-84601741D01*
X99850000Y-84730380D01*
X98256825Y-84730380D01*
X98152273Y-84625646D01*
X97729753Y-84450200D01*
X97272254Y-84449801D01*
X96849428Y-84624509D01*
X96525646Y-84947727D01*
X96350200Y-85370247D01*
X96349801Y-85827746D01*
X91000000Y-85827746D01*
X91000000Y-85362500D01*
X90912500Y-85275000D01*
X89175000Y-85275000D01*
X88625000Y-85275000D01*
X88605000Y-85275000D01*
X88605000Y-84725000D01*
X88625000Y-84725000D01*
X88625000Y-83837500D01*
X89175000Y-83837500D01*
X89175000Y-84725000D01*
X90912500Y-84725000D01*
X91000000Y-84637500D01*
X91000000Y-84080380D01*
X123150000Y-84080380D01*
X123150000Y-84437500D01*
X123237500Y-84525000D01*
X123975000Y-84525000D01*
X123975000Y-83887500D01*
X124525000Y-83887500D01*
X124525000Y-84525000D01*
X125262500Y-84525000D01*
X125350000Y-84437500D01*
X125350000Y-84080380D01*
X125296715Y-83951741D01*
X125198259Y-83853284D01*
X125069619Y-83800000D01*
X124612500Y-83800000D01*
X124525000Y-83887500D01*
X123975000Y-83887500D01*
X123887500Y-83800000D01*
X123430381Y-83800000D01*
X123301741Y-83853284D01*
X123203285Y-83951741D01*
X123150000Y-84080380D01*
X91000000Y-84080380D01*
X91000000Y-84030380D01*
X90946715Y-83901741D01*
X90848259Y-83803284D01*
X90719619Y-83750000D01*
X89262500Y-83750000D01*
X89175000Y-83837500D01*
X88625000Y-83837500D01*
X88537500Y-83750000D01*
X87700000Y-83750000D01*
X87700000Y-82987500D01*
X122350000Y-82987500D01*
X122350000Y-83169620D01*
X122403285Y-83298259D01*
X122501741Y-83396716D01*
X122630381Y-83450000D01*
X123287500Y-83450000D01*
X123375000Y-83362500D01*
X123375000Y-82900000D01*
X122437500Y-82900000D01*
X122350000Y-82987500D01*
X87700000Y-82987500D01*
X87700000Y-82230380D01*
X122350000Y-82230380D01*
X122350000Y-82412500D01*
X122437500Y-82500000D01*
X123375000Y-82500000D01*
X123375000Y-82037500D01*
X123287500Y-81950000D01*
X122630381Y-81950000D01*
X122501741Y-82003284D01*
X122403285Y-82101741D01*
X122350000Y-82230380D01*
X87700000Y-82230380D01*
X87700000Y-80441422D01*
X87978922Y-80162500D01*
X89640000Y-80162500D01*
X89640000Y-80679619D01*
X89693284Y-80808259D01*
X89791741Y-80906715D01*
X89920380Y-80960000D01*
X90437500Y-80960000D01*
X90525000Y-80872500D01*
X90525000Y-80075000D01*
X91075000Y-80075000D01*
X91075000Y-80872500D01*
X91162500Y-80960000D01*
X91679620Y-80960000D01*
X91808259Y-80906715D01*
X91906716Y-80808259D01*
X91960000Y-80679619D01*
X91960000Y-80162500D01*
X91872500Y-80075000D01*
X91075000Y-80075000D01*
X90525000Y-80075000D01*
X89727500Y-80075000D01*
X89640000Y-80162500D01*
X87978922Y-80162500D01*
X88641422Y-79500000D01*
X89702500Y-79500000D01*
X89727500Y-79525000D01*
X90525000Y-79525000D01*
X90525000Y-79505000D01*
X91075000Y-79505000D01*
X91075000Y-79525000D01*
X91872500Y-79525000D01*
X91897500Y-79500000D01*
X99400000Y-79500000D01*
X99438906Y-79492121D01*
X99470711Y-79470711D01*
X100708922Y-78232500D01*
X105860000Y-78232500D01*
X105860000Y-78939619D01*
X105913284Y-79068259D01*
X106011741Y-79166715D01*
X106140380Y-79220000D01*
X106847500Y-79220000D01*
X106935000Y-79132500D01*
X106935000Y-78145000D01*
X107485000Y-78145000D01*
X107485000Y-79132500D01*
X107572500Y-79220000D01*
X108279620Y-79220000D01*
X108408259Y-79166715D01*
X108480000Y-79094975D01*
X108551741Y-79166715D01*
X108680380Y-79220000D01*
X109387500Y-79220000D01*
X109475000Y-79132500D01*
X109475000Y-78145000D01*
X110025000Y-78145000D01*
X110025000Y-79132500D01*
X110112500Y-79220000D01*
X110819620Y-79220000D01*
X110948259Y-79166715D01*
X111046716Y-79068259D01*
X111100000Y-78939619D01*
X111100000Y-78232500D01*
X111012500Y-78145000D01*
X110025000Y-78145000D01*
X109475000Y-78145000D01*
X108487500Y-78145000D01*
X108480000Y-78152500D01*
X108472500Y-78145000D01*
X107485000Y-78145000D01*
X106935000Y-78145000D01*
X105947500Y-78145000D01*
X105860000Y-78232500D01*
X100708922Y-78232500D01*
X102141041Y-76800381D01*
X105860000Y-76800381D01*
X105860000Y-77507500D01*
X105947500Y-77595000D01*
X106935000Y-77595000D01*
X106935000Y-76607500D01*
X107485000Y-76607500D01*
X107485000Y-77595000D01*
X108472500Y-77595000D01*
X108480000Y-77587500D01*
X108487500Y-77595000D01*
X109475000Y-77595000D01*
X109475000Y-76607500D01*
X110025000Y-76607500D01*
X110025000Y-77595000D01*
X111012500Y-77595000D01*
X111100000Y-77507500D01*
X111100000Y-76800381D01*
X111046716Y-76671741D01*
X110948259Y-76573285D01*
X110819620Y-76520000D01*
X110112500Y-76520000D01*
X110025000Y-76607500D01*
X109475000Y-76607500D01*
X109387500Y-76520000D01*
X108680380Y-76520000D01*
X108551741Y-76573285D01*
X108480000Y-76645025D01*
X108408259Y-76573285D01*
X108279620Y-76520000D01*
X107572500Y-76520000D01*
X107485000Y-76607500D01*
X106935000Y-76607500D01*
X106847500Y-76520000D01*
X106140380Y-76520000D01*
X106011741Y-76573285D01*
X105913284Y-76671741D01*
X105860000Y-76800381D01*
X102141041Y-76800381D01*
X102441422Y-76500000D01*
X111158578Y-76500000D01*
X111300000Y-76641422D01*
X111300000Y-76641422D01*
G37*
X111300000Y-76641422D02*
X111300000Y-79000000D01*
X111307879Y-79038906D01*
X111329289Y-79070711D01*
X111529289Y-79270711D01*
X111562371Y-79292650D01*
X111600000Y-79300000D01*
X122550000Y-79300000D01*
X122550000Y-80080610D01*
X122451175Y-80144203D01*
X122371259Y-80261163D01*
X122343144Y-80400000D01*
X122343144Y-81200000D01*
X122367549Y-81329702D01*
X122444203Y-81448825D01*
X122561163Y-81528741D01*
X122700000Y-81556856D01*
X124120460Y-81556856D01*
X124513604Y-81950000D01*
X124012500Y-81950000D01*
X123925000Y-82037500D01*
X123925000Y-82500000D01*
X123945000Y-82500000D01*
X123945000Y-82900000D01*
X123925000Y-82900000D01*
X123925000Y-83362500D01*
X124012500Y-83450000D01*
X124669619Y-83450000D01*
X124798259Y-83396716D01*
X124896715Y-83298259D01*
X124945086Y-83181482D01*
X125855010Y-84091406D01*
X125843144Y-84150000D01*
X125843144Y-85450000D01*
X125867549Y-85579702D01*
X125944203Y-85698825D01*
X126061163Y-85778741D01*
X126200000Y-85806856D01*
X126300000Y-85806856D01*
X126300000Y-86616144D01*
X126293144Y-86650000D01*
X126293144Y-87750000D01*
X126300000Y-87786437D01*
X126300000Y-88753163D01*
X125163796Y-89700000D01*
X121200000Y-89700000D01*
X121161094Y-89707879D01*
X121129289Y-89729289D01*
X120265434Y-90593144D01*
X119700000Y-90593144D01*
X119570298Y-90617549D01*
X119451175Y-90694203D01*
X119371259Y-90811163D01*
X119343144Y-90950000D01*
X119343144Y-91515434D01*
X118958578Y-91900000D01*
X115625000Y-91900000D01*
X115625000Y-91610332D01*
X115767714Y-91551364D01*
X115950722Y-91368676D01*
X116049887Y-91129860D01*
X116050112Y-90871274D01*
X115951364Y-90632286D01*
X115768676Y-90449278D01*
X115529860Y-90350113D01*
X115271274Y-90349888D01*
X115032286Y-90448636D01*
X114849278Y-90631324D01*
X114800000Y-90749999D01*
X114800000Y-90430381D01*
X114746716Y-90301741D01*
X114648259Y-90203285D01*
X114519620Y-90150000D01*
X114162500Y-90150000D01*
X114075000Y-90237500D01*
X114075000Y-90975000D01*
X114095000Y-90975000D01*
X114095000Y-91525000D01*
X114075000Y-91525000D01*
X114075000Y-91545000D01*
X113525000Y-91545000D01*
X113525000Y-91525000D01*
X112887500Y-91525000D01*
X112800000Y-91612500D01*
X112800000Y-91900000D01*
X112266705Y-91900000D01*
X112300000Y-91819619D01*
X112300000Y-91562500D01*
X112212500Y-91475000D01*
X111675000Y-91475000D01*
X111675000Y-91495000D01*
X111125000Y-91495000D01*
X111125000Y-91475000D01*
X110587500Y-91475000D01*
X110500000Y-91562500D01*
X110500000Y-91819619D01*
X110533295Y-91900000D01*
X110336396Y-91900000D01*
X110318198Y-91881802D01*
X110172208Y-91784254D01*
X110000000Y-91750000D01*
X108400000Y-91750000D01*
X108227792Y-91784254D01*
X108081802Y-91881802D01*
X107881802Y-92081802D01*
X107784254Y-92227792D01*
X107755420Y-92372754D01*
X107746716Y-92351741D01*
X107648259Y-92253285D01*
X107519620Y-92200000D01*
X107337500Y-92200000D01*
X107250000Y-92287500D01*
X107250000Y-93225000D01*
X107345000Y-93225000D01*
X107345000Y-93775000D01*
X107250000Y-93775000D01*
X107250000Y-93795000D01*
X106850000Y-93795000D01*
X106850000Y-93775000D01*
X106387500Y-93775000D01*
X106300000Y-93862500D01*
X106300000Y-94519619D01*
X106348671Y-94637121D01*
X106281802Y-94681802D01*
X105881802Y-95081802D01*
X105784254Y-95227792D01*
X105750000Y-95400000D01*
X105750000Y-97500000D01*
X97641422Y-97500000D01*
X92621803Y-92480381D01*
X106300000Y-92480381D01*
X106300000Y-93137500D01*
X106387500Y-93225000D01*
X106850000Y-93225000D01*
X106850000Y-92287500D01*
X106762500Y-92200000D01*
X106580380Y-92200000D01*
X106451741Y-92253285D01*
X106353284Y-92351741D01*
X106300000Y-92480381D01*
X92621803Y-92480381D01*
X91350000Y-91208578D01*
X91350000Y-91200000D01*
X91326064Y-91072790D01*
X91250883Y-90955955D01*
X91136170Y-90877575D01*
X91000000Y-90850000D01*
X90991422Y-90850000D01*
X90870711Y-90729289D01*
X90837629Y-90707350D01*
X90800000Y-90700000D01*
X87841422Y-90700000D01*
X87721803Y-90580381D01*
X110500000Y-90580381D01*
X110500000Y-90837500D01*
X110587500Y-90925000D01*
X111125000Y-90925000D01*
X111125000Y-90387500D01*
X111675000Y-90387500D01*
X111675000Y-90925000D01*
X112212500Y-90925000D01*
X112300000Y-90837500D01*
X112300000Y-90580381D01*
X112246716Y-90451741D01*
X112225356Y-90430381D01*
X112800000Y-90430381D01*
X112800000Y-90887500D01*
X112887500Y-90975000D01*
X113525000Y-90975000D01*
X113525000Y-90237500D01*
X113437500Y-90150000D01*
X113080380Y-90150000D01*
X112951741Y-90203285D01*
X112853284Y-90301741D01*
X112800000Y-90430381D01*
X112225356Y-90430381D01*
X112148259Y-90353285D01*
X112019620Y-90300000D01*
X111762500Y-90300000D01*
X111675000Y-90387500D01*
X111125000Y-90387500D01*
X111037500Y-90300000D01*
X110780380Y-90300000D01*
X110651741Y-90353285D01*
X110553284Y-90451741D01*
X110500000Y-90580381D01*
X87721803Y-90580381D01*
X87700000Y-90558578D01*
X87700000Y-88962500D01*
X88200000Y-88962500D01*
X88200000Y-89919620D01*
X88253285Y-90048259D01*
X88351741Y-90146716D01*
X88480381Y-90200000D01*
X89387500Y-90200000D01*
X89475000Y-90112500D01*
X89475000Y-88875000D01*
X90025000Y-88875000D01*
X90025000Y-90112500D01*
X90112500Y-90200000D01*
X91019619Y-90200000D01*
X91148259Y-90146716D01*
X91246715Y-90048259D01*
X91300000Y-89919620D01*
X91300000Y-88962500D01*
X91212500Y-88875000D01*
X90025000Y-88875000D01*
X89475000Y-88875000D01*
X88287500Y-88875000D01*
X88200000Y-88962500D01*
X87700000Y-88962500D01*
X87700000Y-87280380D01*
X88200000Y-87280380D01*
X88200000Y-88237500D01*
X88287500Y-88325000D01*
X89475000Y-88325000D01*
X89475000Y-87087500D01*
X90025000Y-87087500D01*
X90025000Y-88325000D01*
X91212500Y-88325000D01*
X91300000Y-88237500D01*
X91300000Y-87562500D01*
X123500000Y-87562500D01*
X123500000Y-87819620D01*
X123553285Y-87948259D01*
X123651741Y-88046716D01*
X123780381Y-88100000D01*
X124037500Y-88100000D01*
X124125000Y-88012500D01*
X124125000Y-87475000D01*
X124675000Y-87475000D01*
X124675000Y-88012500D01*
X124762500Y-88100000D01*
X125019619Y-88100000D01*
X125148259Y-88046716D01*
X125246715Y-87948259D01*
X125300000Y-87819620D01*
X125300000Y-87562500D01*
X125212500Y-87475000D01*
X124675000Y-87475000D01*
X124125000Y-87475000D01*
X123587500Y-87475000D01*
X123500000Y-87562500D01*
X91300000Y-87562500D01*
X91300000Y-87280380D01*
X91246715Y-87151741D01*
X91148259Y-87053284D01*
X91019619Y-87000000D01*
X90112500Y-87000000D01*
X90025000Y-87087500D01*
X89475000Y-87087500D01*
X89387500Y-87000000D01*
X88480381Y-87000000D01*
X88351741Y-87053284D01*
X88253285Y-87151741D01*
X88200000Y-87280380D01*
X87700000Y-87280380D01*
X87700000Y-86250000D01*
X88537500Y-86250000D01*
X88625000Y-86162500D01*
X88625000Y-85275000D01*
X89175000Y-85275000D01*
X89175000Y-86162500D01*
X89262500Y-86250000D01*
X90719619Y-86250000D01*
X90848259Y-86196716D01*
X90946715Y-86098259D01*
X91000000Y-85969620D01*
X91000000Y-85827746D01*
X96349801Y-85827746D01*
X96524509Y-86250572D01*
X96847727Y-86574354D01*
X97270247Y-86749800D01*
X97727746Y-86750199D01*
X98150572Y-86575491D01*
X98474354Y-86252273D01*
X98594678Y-85962500D01*
X99850000Y-85962500D01*
X99850000Y-86469620D01*
X99903285Y-86598259D01*
X100001741Y-86696716D01*
X100130381Y-86750000D01*
X100637500Y-86750000D01*
X100725000Y-86662500D01*
X100725000Y-85875000D01*
X101275000Y-85875000D01*
X101275000Y-86662500D01*
X101362500Y-86750000D01*
X101869619Y-86750000D01*
X101998259Y-86696716D01*
X102096715Y-86598259D01*
X102150000Y-86469620D01*
X102150000Y-85962500D01*
X102062500Y-85875000D01*
X101275000Y-85875000D01*
X100725000Y-85875000D01*
X99937500Y-85875000D01*
X99850000Y-85962500D01*
X98594678Y-85962500D01*
X98649800Y-85829753D01*
X98649801Y-85827746D01*
X105349801Y-85827746D01*
X105524509Y-86250572D01*
X105847727Y-86574354D01*
X106270247Y-86749800D01*
X106727746Y-86750199D01*
X107150572Y-86575491D01*
X107474354Y-86252273D01*
X107594678Y-85962500D01*
X108850000Y-85962500D01*
X108850000Y-86469620D01*
X108903285Y-86598259D01*
X109001741Y-86696716D01*
X109130381Y-86750000D01*
X109637500Y-86750000D01*
X109725000Y-86662500D01*
X109725000Y-85875000D01*
X110275000Y-85875000D01*
X110275000Y-86662500D01*
X110362500Y-86750000D01*
X110869619Y-86750000D01*
X110998259Y-86696716D01*
X111096715Y-86598259D01*
X111150000Y-86469620D01*
X111150000Y-85962500D01*
X111062500Y-85875000D01*
X110275000Y-85875000D01*
X109725000Y-85875000D01*
X108937500Y-85875000D01*
X108850000Y-85962500D01*
X107594678Y-85962500D01*
X107649800Y-85829753D01*
X107649801Y-85827746D01*
X114349801Y-85827746D01*
X114524509Y-86250572D01*
X114847727Y-86574354D01*
X115270247Y-86749800D01*
X115727746Y-86750199D01*
X116150572Y-86575491D01*
X116474354Y-86252273D01*
X116594678Y-85962500D01*
X117850000Y-85962500D01*
X117850000Y-86469620D01*
X117903285Y-86598259D01*
X118001741Y-86696716D01*
X118130381Y-86750000D01*
X118637500Y-86750000D01*
X118725000Y-86662500D01*
X118725000Y-85875000D01*
X119275000Y-85875000D01*
X119275000Y-86662500D01*
X119362500Y-86750000D01*
X119869619Y-86750000D01*
X119998259Y-86696716D01*
X120096715Y-86598259D01*
X120104120Y-86580380D01*
X123500000Y-86580380D01*
X123500000Y-86837500D01*
X123587500Y-86925000D01*
X124125000Y-86925000D01*
X124125000Y-86387500D01*
X124675000Y-86387500D01*
X124675000Y-86925000D01*
X125212500Y-86925000D01*
X125300000Y-86837500D01*
X125300000Y-86580380D01*
X125246715Y-86451741D01*
X125148259Y-86353284D01*
X125019619Y-86300000D01*
X124762500Y-86300000D01*
X124675000Y-86387500D01*
X124125000Y-86387500D01*
X124037500Y-86300000D01*
X123780381Y-86300000D01*
X123651741Y-86353284D01*
X123553285Y-86451741D01*
X123500000Y-86580380D01*
X120104120Y-86580380D01*
X120150000Y-86469620D01*
X120150000Y-85962500D01*
X120062500Y-85875000D01*
X119275000Y-85875000D01*
X118725000Y-85875000D01*
X117937500Y-85875000D01*
X117850000Y-85962500D01*
X116594678Y-85962500D01*
X116649800Y-85829753D01*
X116650199Y-85372254D01*
X116475491Y-84949428D01*
X116256825Y-84730380D01*
X117850000Y-84730380D01*
X117850000Y-85237500D01*
X117937500Y-85325000D01*
X118725000Y-85325000D01*
X118725000Y-84537500D01*
X119275000Y-84537500D01*
X119275000Y-85325000D01*
X120062500Y-85325000D01*
X120150000Y-85237500D01*
X120150000Y-85162500D01*
X123150000Y-85162500D01*
X123150000Y-85519620D01*
X123203285Y-85648259D01*
X123301741Y-85746716D01*
X123430381Y-85800000D01*
X123887500Y-85800000D01*
X123975000Y-85712500D01*
X123975000Y-85075000D01*
X124525000Y-85075000D01*
X124525000Y-85712500D01*
X124612500Y-85800000D01*
X125069619Y-85800000D01*
X125198259Y-85746716D01*
X125296715Y-85648259D01*
X125350000Y-85519620D01*
X125350000Y-85162500D01*
X125262500Y-85075000D01*
X124525000Y-85075000D01*
X123975000Y-85075000D01*
X123237500Y-85075000D01*
X123150000Y-85162500D01*
X120150000Y-85162500D01*
X120150000Y-84730380D01*
X120096715Y-84601741D01*
X119998259Y-84503284D01*
X119869619Y-84450000D01*
X119362500Y-84450000D01*
X119275000Y-84537500D01*
X118725000Y-84537500D01*
X118637500Y-84450000D01*
X118130381Y-84450000D01*
X118001741Y-84503284D01*
X117903285Y-84601741D01*
X117850000Y-84730380D01*
X116256825Y-84730380D01*
X116152273Y-84625646D01*
X115729753Y-84450200D01*
X115272254Y-84449801D01*
X114849428Y-84624509D01*
X114525646Y-84947727D01*
X114350200Y-85370247D01*
X114349801Y-85827746D01*
X107649801Y-85827746D01*
X107650199Y-85372254D01*
X107475491Y-84949428D01*
X107256825Y-84730380D01*
X108850000Y-84730380D01*
X108850000Y-85237500D01*
X108937500Y-85325000D01*
X109725000Y-85325000D01*
X109725000Y-84537500D01*
X110275000Y-84537500D01*
X110275000Y-85325000D01*
X111062500Y-85325000D01*
X111150000Y-85237500D01*
X111150000Y-84730380D01*
X111096715Y-84601741D01*
X110998259Y-84503284D01*
X110869619Y-84450000D01*
X110362500Y-84450000D01*
X110275000Y-84537500D01*
X109725000Y-84537500D01*
X109637500Y-84450000D01*
X109130381Y-84450000D01*
X109001741Y-84503284D01*
X108903285Y-84601741D01*
X108850000Y-84730380D01*
X107256825Y-84730380D01*
X107152273Y-84625646D01*
X106729753Y-84450200D01*
X106272254Y-84449801D01*
X105849428Y-84624509D01*
X105525646Y-84947727D01*
X105350200Y-85370247D01*
X105349801Y-85827746D01*
X98649801Y-85827746D01*
X98650199Y-85372254D01*
X98475491Y-84949428D01*
X98256825Y-84730380D01*
X99850000Y-84730380D01*
X99850000Y-85237500D01*
X99937500Y-85325000D01*
X100725000Y-85325000D01*
X100725000Y-84537500D01*
X101275000Y-84537500D01*
X101275000Y-85325000D01*
X102062500Y-85325000D01*
X102150000Y-85237500D01*
X102150000Y-84730380D01*
X102096715Y-84601741D01*
X101998259Y-84503284D01*
X101869619Y-84450000D01*
X101362500Y-84450000D01*
X101275000Y-84537500D01*
X100725000Y-84537500D01*
X100637500Y-84450000D01*
X100130381Y-84450000D01*
X100001741Y-84503284D01*
X99903285Y-84601741D01*
X99850000Y-84730380D01*
X98256825Y-84730380D01*
X98152273Y-84625646D01*
X97729753Y-84450200D01*
X97272254Y-84449801D01*
X96849428Y-84624509D01*
X96525646Y-84947727D01*
X96350200Y-85370247D01*
X96349801Y-85827746D01*
X91000000Y-85827746D01*
X91000000Y-85362500D01*
X90912500Y-85275000D01*
X89175000Y-85275000D01*
X88625000Y-85275000D01*
X88605000Y-85275000D01*
X88605000Y-84725000D01*
X88625000Y-84725000D01*
X88625000Y-83837500D01*
X89175000Y-83837500D01*
X89175000Y-84725000D01*
X90912500Y-84725000D01*
X91000000Y-84637500D01*
X91000000Y-84080380D01*
X123150000Y-84080380D01*
X123150000Y-84437500D01*
X123237500Y-84525000D01*
X123975000Y-84525000D01*
X123975000Y-83887500D01*
X124525000Y-83887500D01*
X124525000Y-84525000D01*
X125262500Y-84525000D01*
X125350000Y-84437500D01*
X125350000Y-84080380D01*
X125296715Y-83951741D01*
X125198259Y-83853284D01*
X125069619Y-83800000D01*
X124612500Y-83800000D01*
X124525000Y-83887500D01*
X123975000Y-83887500D01*
X123887500Y-83800000D01*
X123430381Y-83800000D01*
X123301741Y-83853284D01*
X123203285Y-83951741D01*
X123150000Y-84080380D01*
X91000000Y-84080380D01*
X91000000Y-84030380D01*
X90946715Y-83901741D01*
X90848259Y-83803284D01*
X90719619Y-83750000D01*
X89262500Y-83750000D01*
X89175000Y-83837500D01*
X88625000Y-83837500D01*
X88537500Y-83750000D01*
X87700000Y-83750000D01*
X87700000Y-82987500D01*
X122350000Y-82987500D01*
X122350000Y-83169620D01*
X122403285Y-83298259D01*
X122501741Y-83396716D01*
X122630381Y-83450000D01*
X123287500Y-83450000D01*
X123375000Y-83362500D01*
X123375000Y-82900000D01*
X122437500Y-82900000D01*
X122350000Y-82987500D01*
X87700000Y-82987500D01*
X87700000Y-82230380D01*
X122350000Y-82230380D01*
X122350000Y-82412500D01*
X122437500Y-82500000D01*
X123375000Y-82500000D01*
X123375000Y-82037500D01*
X123287500Y-81950000D01*
X122630381Y-81950000D01*
X122501741Y-82003284D01*
X122403285Y-82101741D01*
X122350000Y-82230380D01*
X87700000Y-82230380D01*
X87700000Y-80441422D01*
X87978922Y-80162500D01*
X89640000Y-80162500D01*
X89640000Y-80679619D01*
X89693284Y-80808259D01*
X89791741Y-80906715D01*
X89920380Y-80960000D01*
X90437500Y-80960000D01*
X90525000Y-80872500D01*
X90525000Y-80075000D01*
X91075000Y-80075000D01*
X91075000Y-80872500D01*
X91162500Y-80960000D01*
X91679620Y-80960000D01*
X91808259Y-80906715D01*
X91906716Y-80808259D01*
X91960000Y-80679619D01*
X91960000Y-80162500D01*
X91872500Y-80075000D01*
X91075000Y-80075000D01*
X90525000Y-80075000D01*
X89727500Y-80075000D01*
X89640000Y-80162500D01*
X87978922Y-80162500D01*
X88641422Y-79500000D01*
X89702500Y-79500000D01*
X89727500Y-79525000D01*
X90525000Y-79525000D01*
X90525000Y-79505000D01*
X91075000Y-79505000D01*
X91075000Y-79525000D01*
X91872500Y-79525000D01*
X91897500Y-79500000D01*
X99400000Y-79500000D01*
X99438906Y-79492121D01*
X99470711Y-79470711D01*
X100708922Y-78232500D01*
X105860000Y-78232500D01*
X105860000Y-78939619D01*
X105913284Y-79068259D01*
X106011741Y-79166715D01*
X106140380Y-79220000D01*
X106847500Y-79220000D01*
X106935000Y-79132500D01*
X106935000Y-78145000D01*
X107485000Y-78145000D01*
X107485000Y-79132500D01*
X107572500Y-79220000D01*
X108279620Y-79220000D01*
X108408259Y-79166715D01*
X108480000Y-79094975D01*
X108551741Y-79166715D01*
X108680380Y-79220000D01*
X109387500Y-79220000D01*
X109475000Y-79132500D01*
X109475000Y-78145000D01*
X110025000Y-78145000D01*
X110025000Y-79132500D01*
X110112500Y-79220000D01*
X110819620Y-79220000D01*
X110948259Y-79166715D01*
X111046716Y-79068259D01*
X111100000Y-78939619D01*
X111100000Y-78232500D01*
X111012500Y-78145000D01*
X110025000Y-78145000D01*
X109475000Y-78145000D01*
X108487500Y-78145000D01*
X108480000Y-78152500D01*
X108472500Y-78145000D01*
X107485000Y-78145000D01*
X106935000Y-78145000D01*
X105947500Y-78145000D01*
X105860000Y-78232500D01*
X100708922Y-78232500D01*
X102141041Y-76800381D01*
X105860000Y-76800381D01*
X105860000Y-77507500D01*
X105947500Y-77595000D01*
X106935000Y-77595000D01*
X106935000Y-76607500D01*
X107485000Y-76607500D01*
X107485000Y-77595000D01*
X108472500Y-77595000D01*
X108480000Y-77587500D01*
X108487500Y-77595000D01*
X109475000Y-77595000D01*
X109475000Y-76607500D01*
X110025000Y-76607500D01*
X110025000Y-77595000D01*
X111012500Y-77595000D01*
X111100000Y-77507500D01*
X111100000Y-76800381D01*
X111046716Y-76671741D01*
X110948259Y-76573285D01*
X110819620Y-76520000D01*
X110112500Y-76520000D01*
X110025000Y-76607500D01*
X109475000Y-76607500D01*
X109387500Y-76520000D01*
X108680380Y-76520000D01*
X108551741Y-76573285D01*
X108480000Y-76645025D01*
X108408259Y-76573285D01*
X108279620Y-76520000D01*
X107572500Y-76520000D01*
X107485000Y-76607500D01*
X106935000Y-76607500D01*
X106847500Y-76520000D01*
X106140380Y-76520000D01*
X106011741Y-76573285D01*
X105913284Y-76671741D01*
X105860000Y-76800381D01*
X102141041Y-76800381D01*
X102441422Y-76500000D01*
X111158578Y-76500000D01*
X111300000Y-76641422D01*
G36*
X109500000Y-103700000D02*
X106700000Y-103700000D01*
X106700000Y-102344894D01*
X106783706Y-102585385D01*
X107134770Y-102979535D01*
X107471627Y-103162402D01*
X107675000Y-103132186D01*
X107675000Y-101875000D01*
X108225000Y-101875000D01*
X108225000Y-103132186D01*
X108428373Y-103162402D01*
X108765230Y-102979535D01*
X109116294Y-102585385D01*
X109289801Y-102086892D01*
X109215042Y-101875000D01*
X108225000Y-101875000D01*
X107675000Y-101875000D01*
X107655000Y-101875000D01*
X107655000Y-101325000D01*
X107675000Y-101325000D01*
X107675000Y-100067814D01*
X108225000Y-100067814D01*
X108225000Y-101325000D01*
X109215042Y-101325000D01*
X109289801Y-101113108D01*
X109116294Y-100614615D01*
X108765230Y-100220465D01*
X108428373Y-100037598D01*
X108225000Y-100067814D01*
X107675000Y-100067814D01*
X107471627Y-100037598D01*
X107134770Y-100220465D01*
X106783706Y-100614615D01*
X106700000Y-100855106D01*
X106700000Y-96862500D01*
X107250000Y-96862500D01*
X107250000Y-97519619D01*
X107303284Y-97648259D01*
X107401741Y-97746715D01*
X107530380Y-97800000D01*
X107712500Y-97800000D01*
X107800000Y-97712500D01*
X107800000Y-96775000D01*
X108200000Y-96775000D01*
X108200000Y-97712500D01*
X108287500Y-97800000D01*
X108469620Y-97800000D01*
X108598259Y-97746715D01*
X108696716Y-97648259D01*
X108750000Y-97519619D01*
X108750000Y-96862500D01*
X108662500Y-96775000D01*
X108200000Y-96775000D01*
X107800000Y-96775000D01*
X107337500Y-96775000D01*
X107250000Y-96862500D01*
X106700000Y-96862500D01*
X106700000Y-95536396D01*
X106786396Y-95450000D01*
X107262584Y-95450000D01*
X107250000Y-95480381D01*
X107250000Y-96137500D01*
X107337500Y-96225000D01*
X107800000Y-96225000D01*
X107800000Y-96205000D01*
X108200000Y-96205000D01*
X108200000Y-96225000D01*
X108662500Y-96225000D01*
X108750000Y-96137500D01*
X108750000Y-95480381D01*
X108696716Y-95351741D01*
X108598259Y-95253285D01*
X108469620Y-95200000D01*
X108287500Y-95200000D01*
X108275002Y-95212498D01*
X108275002Y-95200000D01*
X108036396Y-95200000D01*
X108449826Y-94786570D01*
X108550000Y-94806856D01*
X109350000Y-94806856D01*
X109479702Y-94782451D01*
X109500000Y-94769390D01*
X109500000Y-103700000D01*
X109500000Y-103700000D01*
G37*
X109500000Y-103700000D02*
X106700000Y-103700000D01*
X106700000Y-102344894D01*
X106783706Y-102585385D01*
X107134770Y-102979535D01*
X107471627Y-103162402D01*
X107675000Y-103132186D01*
X107675000Y-101875000D01*
X108225000Y-101875000D01*
X108225000Y-103132186D01*
X108428373Y-103162402D01*
X108765230Y-102979535D01*
X109116294Y-102585385D01*
X109289801Y-102086892D01*
X109215042Y-101875000D01*
X108225000Y-101875000D01*
X107675000Y-101875000D01*
X107655000Y-101875000D01*
X107655000Y-101325000D01*
X107675000Y-101325000D01*
X107675000Y-100067814D01*
X108225000Y-100067814D01*
X108225000Y-101325000D01*
X109215042Y-101325000D01*
X109289801Y-101113108D01*
X109116294Y-100614615D01*
X108765230Y-100220465D01*
X108428373Y-100037598D01*
X108225000Y-100067814D01*
X107675000Y-100067814D01*
X107471627Y-100037598D01*
X107134770Y-100220465D01*
X106783706Y-100614615D01*
X106700000Y-100855106D01*
X106700000Y-96862500D01*
X107250000Y-96862500D01*
X107250000Y-97519619D01*
X107303284Y-97648259D01*
X107401741Y-97746715D01*
X107530380Y-97800000D01*
X107712500Y-97800000D01*
X107800000Y-97712500D01*
X107800000Y-96775000D01*
X108200000Y-96775000D01*
X108200000Y-97712500D01*
X108287500Y-97800000D01*
X108469620Y-97800000D01*
X108598259Y-97746715D01*
X108696716Y-97648259D01*
X108750000Y-97519619D01*
X108750000Y-96862500D01*
X108662500Y-96775000D01*
X108200000Y-96775000D01*
X107800000Y-96775000D01*
X107337500Y-96775000D01*
X107250000Y-96862500D01*
X106700000Y-96862500D01*
X106700000Y-95536396D01*
X106786396Y-95450000D01*
X107262584Y-95450000D01*
X107250000Y-95480381D01*
X107250000Y-96137500D01*
X107337500Y-96225000D01*
X107800000Y-96225000D01*
X107800000Y-96205000D01*
X108200000Y-96205000D01*
X108200000Y-96225000D01*
X108662500Y-96225000D01*
X108750000Y-96137500D01*
X108750000Y-95480381D01*
X108696716Y-95351741D01*
X108598259Y-95253285D01*
X108469620Y-95200000D01*
X108287500Y-95200000D01*
X108275002Y-95212498D01*
X108275002Y-95200000D01*
X108036396Y-95200000D01*
X108449826Y-94786570D01*
X108550000Y-94806856D01*
X109350000Y-94806856D01*
X109479702Y-94782451D01*
X109500000Y-94769390D01*
X109500000Y-103700000D01*
G36*
X94329289Y-98870711D02*
X94362371Y-98892650D01*
X94400000Y-98900000D01*
X101700000Y-98900000D01*
X101700000Y-100635459D01*
X101680000Y-100665391D01*
X101680000Y-100230380D01*
X101626715Y-100101741D01*
X101528259Y-100003284D01*
X101399619Y-99950000D01*
X100692500Y-99950000D01*
X100605000Y-100037500D01*
X100605000Y-101325000D01*
X100625000Y-101325000D01*
X100625000Y-101875000D01*
X100605000Y-101875000D01*
X100605000Y-103162500D01*
X100692500Y-103250000D01*
X101399619Y-103250000D01*
X101528259Y-103196716D01*
X101626715Y-103098259D01*
X101680000Y-102969620D01*
X101680000Y-102534609D01*
X101700000Y-102564541D01*
X101700000Y-104350000D01*
X87900000Y-104350000D01*
X87900000Y-102162500D01*
X88250000Y-102162500D01*
X88250000Y-102519620D01*
X88303285Y-102648259D01*
X88401741Y-102746716D01*
X88530381Y-102800000D01*
X88987500Y-102800000D01*
X89075000Y-102712500D01*
X89075000Y-102075000D01*
X89625000Y-102075000D01*
X89625000Y-102712500D01*
X89712500Y-102800000D01*
X90169619Y-102800000D01*
X90298259Y-102746716D01*
X90396715Y-102648259D01*
X90450000Y-102519620D01*
X90450000Y-102162500D01*
X90362500Y-102075000D01*
X89625000Y-102075000D01*
X89075000Y-102075000D01*
X88337500Y-102075000D01*
X88250000Y-102162500D01*
X87900000Y-102162500D01*
X87900000Y-101962500D01*
X91360000Y-101962500D01*
X91360000Y-102969620D01*
X91413285Y-103098259D01*
X91511741Y-103196716D01*
X91640381Y-103250000D01*
X92347500Y-103250000D01*
X92435000Y-103162500D01*
X92435000Y-101875000D01*
X91447500Y-101875000D01*
X91360000Y-101962500D01*
X87900000Y-101962500D01*
X87900000Y-101186396D01*
X88006016Y-101080380D01*
X88250000Y-101080380D01*
X88250000Y-101437500D01*
X88337500Y-101525000D01*
X89075000Y-101525000D01*
X89075000Y-100887500D01*
X89625000Y-100887500D01*
X89625000Y-101525000D01*
X90362500Y-101525000D01*
X90450000Y-101437500D01*
X90450000Y-101080380D01*
X90396715Y-100951741D01*
X90298259Y-100853284D01*
X90169619Y-100800000D01*
X89712500Y-100800000D01*
X89625000Y-100887500D01*
X89075000Y-100887500D01*
X88987500Y-100800000D01*
X88530381Y-100800000D01*
X88401741Y-100853284D01*
X88303285Y-100951741D01*
X88250000Y-101080380D01*
X88006016Y-101080380D01*
X88168198Y-100918198D01*
X88265746Y-100772208D01*
X88289715Y-100651707D01*
X88470711Y-100470711D01*
X88492650Y-100437629D01*
X88500000Y-100400000D01*
X88500000Y-100230380D01*
X91360000Y-100230380D01*
X91360000Y-101237500D01*
X91447500Y-101325000D01*
X92435000Y-101325000D01*
X92435000Y-100037500D01*
X92985000Y-100037500D01*
X92985000Y-101325000D01*
X93005000Y-101325000D01*
X93005000Y-101875000D01*
X92985000Y-101875000D01*
X92985000Y-103162500D01*
X93072500Y-103250000D01*
X93779619Y-103250000D01*
X93908259Y-103196716D01*
X94006715Y-103098259D01*
X94060000Y-102969620D01*
X94060000Y-102534609D01*
X94295406Y-102886919D01*
X94733377Y-103179562D01*
X95250000Y-103282325D01*
X95766623Y-103179562D01*
X96204594Y-102886919D01*
X96497237Y-102448948D01*
X96593997Y-101962500D01*
X98980000Y-101962500D01*
X98980000Y-102969620D01*
X99033285Y-103098259D01*
X99131741Y-103196716D01*
X99260381Y-103250000D01*
X99967500Y-103250000D01*
X100055000Y-103162500D01*
X100055000Y-101875000D01*
X99067500Y-101875000D01*
X98980000Y-101962500D01*
X96593997Y-101962500D01*
X96600000Y-101932325D01*
X96600000Y-101267675D01*
X96497237Y-100751052D01*
X96204594Y-100313081D01*
X96080824Y-100230380D01*
X98980000Y-100230380D01*
X98980000Y-101237500D01*
X99067500Y-101325000D01*
X100055000Y-101325000D01*
X100055000Y-100037500D01*
X99967500Y-99950000D01*
X99260381Y-99950000D01*
X99131741Y-100003284D01*
X99033285Y-100101741D01*
X98980000Y-100230380D01*
X96080824Y-100230380D01*
X95766623Y-100020438D01*
X95250000Y-99917675D01*
X94733377Y-100020438D01*
X94295406Y-100313081D01*
X94060000Y-100665391D01*
X94060000Y-100230380D01*
X94006715Y-100101741D01*
X93908259Y-100003284D01*
X93779619Y-99950000D01*
X93072500Y-99950000D01*
X92985000Y-100037500D01*
X92435000Y-100037500D01*
X92347500Y-99950000D01*
X91640381Y-99950000D01*
X91511741Y-100003284D01*
X91413285Y-100101741D01*
X91360000Y-100230380D01*
X88500000Y-100230380D01*
X88500000Y-99704077D01*
X88578741Y-99588837D01*
X88606856Y-99450000D01*
X88606856Y-98862500D01*
X89000000Y-98862500D01*
X89000000Y-99519619D01*
X89053284Y-99648259D01*
X89151741Y-99746715D01*
X89280380Y-99800000D01*
X89462500Y-99800000D01*
X89550000Y-99712500D01*
X89550000Y-98775000D01*
X89950000Y-98775000D01*
X89950000Y-99712500D01*
X90037500Y-99800000D01*
X90219620Y-99800000D01*
X90348259Y-99746715D01*
X90446716Y-99648259D01*
X90500000Y-99519619D01*
X90500000Y-98862500D01*
X90412500Y-98775000D01*
X89950000Y-98775000D01*
X89550000Y-98775000D01*
X89087500Y-98775000D01*
X89000000Y-98862500D01*
X88606856Y-98862500D01*
X88606856Y-98029540D01*
X89000000Y-97636396D01*
X89000000Y-98137500D01*
X89087500Y-98225000D01*
X89550000Y-98225000D01*
X89550000Y-98205000D01*
X89950000Y-98205000D01*
X89950000Y-98225000D01*
X90412500Y-98225000D01*
X90500000Y-98137500D01*
X90500000Y-97480381D01*
X90487416Y-97450000D01*
X92908578Y-97450000D01*
X94329289Y-98870711D01*
X94329289Y-98870711D01*
G37*
X94329289Y-98870711D02*
X94362371Y-98892650D01*
X94400000Y-98900000D01*
X101700000Y-98900000D01*
X101700000Y-100635459D01*
X101680000Y-100665391D01*
X101680000Y-100230380D01*
X101626715Y-100101741D01*
X101528259Y-100003284D01*
X101399619Y-99950000D01*
X100692500Y-99950000D01*
X100605000Y-100037500D01*
X100605000Y-101325000D01*
X100625000Y-101325000D01*
X100625000Y-101875000D01*
X100605000Y-101875000D01*
X100605000Y-103162500D01*
X100692500Y-103250000D01*
X101399619Y-103250000D01*
X101528259Y-103196716D01*
X101626715Y-103098259D01*
X101680000Y-102969620D01*
X101680000Y-102534609D01*
X101700000Y-102564541D01*
X101700000Y-104350000D01*
X87900000Y-104350000D01*
X87900000Y-102162500D01*
X88250000Y-102162500D01*
X88250000Y-102519620D01*
X88303285Y-102648259D01*
X88401741Y-102746716D01*
X88530381Y-102800000D01*
X88987500Y-102800000D01*
X89075000Y-102712500D01*
X89075000Y-102075000D01*
X89625000Y-102075000D01*
X89625000Y-102712500D01*
X89712500Y-102800000D01*
X90169619Y-102800000D01*
X90298259Y-102746716D01*
X90396715Y-102648259D01*
X90450000Y-102519620D01*
X90450000Y-102162500D01*
X90362500Y-102075000D01*
X89625000Y-102075000D01*
X89075000Y-102075000D01*
X88337500Y-102075000D01*
X88250000Y-102162500D01*
X87900000Y-102162500D01*
X87900000Y-101962500D01*
X91360000Y-101962500D01*
X91360000Y-102969620D01*
X91413285Y-103098259D01*
X91511741Y-103196716D01*
X91640381Y-103250000D01*
X92347500Y-103250000D01*
X92435000Y-103162500D01*
X92435000Y-101875000D01*
X91447500Y-101875000D01*
X91360000Y-101962500D01*
X87900000Y-101962500D01*
X87900000Y-101186396D01*
X88006016Y-101080380D01*
X88250000Y-101080380D01*
X88250000Y-101437500D01*
X88337500Y-101525000D01*
X89075000Y-101525000D01*
X89075000Y-100887500D01*
X89625000Y-100887500D01*
X89625000Y-101525000D01*
X90362500Y-101525000D01*
X90450000Y-101437500D01*
X90450000Y-101080380D01*
X90396715Y-100951741D01*
X90298259Y-100853284D01*
X90169619Y-100800000D01*
X89712500Y-100800000D01*
X89625000Y-100887500D01*
X89075000Y-100887500D01*
X88987500Y-100800000D01*
X88530381Y-100800000D01*
X88401741Y-100853284D01*
X88303285Y-100951741D01*
X88250000Y-101080380D01*
X88006016Y-101080380D01*
X88168198Y-100918198D01*
X88265746Y-100772208D01*
X88289715Y-100651707D01*
X88470711Y-100470711D01*
X88492650Y-100437629D01*
X88500000Y-100400000D01*
X88500000Y-100230380D01*
X91360000Y-100230380D01*
X91360000Y-101237500D01*
X91447500Y-101325000D01*
X92435000Y-101325000D01*
X92435000Y-100037500D01*
X92985000Y-100037500D01*
X92985000Y-101325000D01*
X93005000Y-101325000D01*
X93005000Y-101875000D01*
X92985000Y-101875000D01*
X92985000Y-103162500D01*
X93072500Y-103250000D01*
X93779619Y-103250000D01*
X93908259Y-103196716D01*
X94006715Y-103098259D01*
X94060000Y-102969620D01*
X94060000Y-102534609D01*
X94295406Y-102886919D01*
X94733377Y-103179562D01*
X95250000Y-103282325D01*
X95766623Y-103179562D01*
X96204594Y-102886919D01*
X96497237Y-102448948D01*
X96593997Y-101962500D01*
X98980000Y-101962500D01*
X98980000Y-102969620D01*
X99033285Y-103098259D01*
X99131741Y-103196716D01*
X99260381Y-103250000D01*
X99967500Y-103250000D01*
X100055000Y-103162500D01*
X100055000Y-101875000D01*
X99067500Y-101875000D01*
X98980000Y-101962500D01*
X96593997Y-101962500D01*
X96600000Y-101932325D01*
X96600000Y-101267675D01*
X96497237Y-100751052D01*
X96204594Y-100313081D01*
X96080824Y-100230380D01*
X98980000Y-100230380D01*
X98980000Y-101237500D01*
X99067500Y-101325000D01*
X100055000Y-101325000D01*
X100055000Y-100037500D01*
X99967500Y-99950000D01*
X99260381Y-99950000D01*
X99131741Y-100003284D01*
X99033285Y-100101741D01*
X98980000Y-100230380D01*
X96080824Y-100230380D01*
X95766623Y-100020438D01*
X95250000Y-99917675D01*
X94733377Y-100020438D01*
X94295406Y-100313081D01*
X94060000Y-100665391D01*
X94060000Y-100230380D01*
X94006715Y-100101741D01*
X93908259Y-100003284D01*
X93779619Y-99950000D01*
X93072500Y-99950000D01*
X92985000Y-100037500D01*
X92435000Y-100037500D01*
X92347500Y-99950000D01*
X91640381Y-99950000D01*
X91511741Y-100003284D01*
X91413285Y-100101741D01*
X91360000Y-100230380D01*
X88500000Y-100230380D01*
X88500000Y-99704077D01*
X88578741Y-99588837D01*
X88606856Y-99450000D01*
X88606856Y-98862500D01*
X89000000Y-98862500D01*
X89000000Y-99519619D01*
X89053284Y-99648259D01*
X89151741Y-99746715D01*
X89280380Y-99800000D01*
X89462500Y-99800000D01*
X89550000Y-99712500D01*
X89550000Y-98775000D01*
X89950000Y-98775000D01*
X89950000Y-99712500D01*
X90037500Y-99800000D01*
X90219620Y-99800000D01*
X90348259Y-99746715D01*
X90446716Y-99648259D01*
X90500000Y-99519619D01*
X90500000Y-98862500D01*
X90412500Y-98775000D01*
X89950000Y-98775000D01*
X89550000Y-98775000D01*
X89087500Y-98775000D01*
X89000000Y-98862500D01*
X88606856Y-98862500D01*
X88606856Y-98029540D01*
X89000000Y-97636396D01*
X89000000Y-98137500D01*
X89087500Y-98225000D01*
X89550000Y-98225000D01*
X89550000Y-98205000D01*
X89950000Y-98205000D01*
X89950000Y-98225000D01*
X90412500Y-98225000D01*
X90500000Y-98137500D01*
X90500000Y-97480381D01*
X90487416Y-97450000D01*
X92908578Y-97450000D01*
X94329289Y-98870711D01*
M02*
