G04 #@! TF.FileFunction,Soldermask,Top*
%FSLAX46Y46*%
G04 Gerber Fmt 4.6, Leading zero omitted, Abs format (unit mm)*
G04 Created by KiCad (PCBNEW 4.0.7) date Wed Nov 15 23:42:34 2017*
%MOMM*%
%LPD*%
G01*
G04 APERTURE LIST*
%ADD10C,0.100000*%
%ADD11R,1.727200X1.727200*%
%ADD12O,1.727200X1.727200*%
%ADD13R,1.560000X0.650000*%
%ADD14R,3.500000X1.800000*%
%ADD15R,2.000000X2.000000*%
%ADD16R,1.900000X0.800000*%
%ADD17C,6.200000*%
%ADD18R,1.500000X1.250000*%
%ADD19R,1.250000X1.500000*%
%ADD20R,1.600000X1.600000*%
%ADD21C,1.600000*%
%ADD22R,1.100000X1.100000*%
%ADD23R,0.800000X0.900000*%
%ADD24R,0.600000X1.500000*%
%ADD25R,2.000000X2.600000*%
%ADD26O,2.000000X2.600000*%
%ADD27R,2.600000X2.000000*%
%ADD28O,2.600000X2.000000*%
%ADD29R,0.800000X1.900000*%
%ADD30R,1.500000X1.300000*%
%ADD31R,1.300000X1.500000*%
%ADD32R,1.620000X1.620000*%
%ADD33C,1.620000*%
%ADD34R,2.400000X2.500000*%
%ADD35R,1.500000X0.400000*%
G04 APERTURE END LIST*
D10*
D11*
X89600000Y-62600000D03*
D12*
X92140000Y-62600000D03*
X89600000Y-65140000D03*
X92140000Y-65140000D03*
X89600000Y-67680000D03*
X92140000Y-67680000D03*
D13*
X83250000Y-79050000D03*
X83250000Y-80000000D03*
X83250000Y-80950000D03*
X85950000Y-80950000D03*
X85950000Y-79050000D03*
X85950000Y-80000000D03*
D14*
X83900000Y-92200000D03*
X88900000Y-92200000D03*
D15*
X109750000Y-57970000D03*
X107210000Y-57970000D03*
X95670000Y-77870000D03*
X98210000Y-77870000D03*
X95670000Y-57970000D03*
X98210000Y-57970000D03*
X107210000Y-77870000D03*
X109750000Y-77870000D03*
D16*
X77700000Y-89850000D03*
X77700000Y-87950000D03*
X74700000Y-88900000D03*
D11*
X72370000Y-53520000D03*
D12*
X72370000Y-50980000D03*
X74910000Y-53520000D03*
X74910000Y-50980000D03*
X77450000Y-53520000D03*
X77450000Y-50980000D03*
X79990000Y-53520000D03*
X79990000Y-50980000D03*
X82530000Y-53520000D03*
X82530000Y-50980000D03*
X85070000Y-53520000D03*
X85070000Y-50980000D03*
X87610000Y-53520000D03*
X87610000Y-50980000D03*
X90150000Y-53520000D03*
X90150000Y-50980000D03*
X92690000Y-53520000D03*
X92690000Y-50980000D03*
X95230000Y-53520000D03*
X95230000Y-50980000D03*
X97770000Y-53520000D03*
X97770000Y-50980000D03*
X100310000Y-53520000D03*
X100310000Y-50980000D03*
X102850000Y-53520000D03*
X102850000Y-50980000D03*
X105390000Y-53520000D03*
X105390000Y-50980000D03*
X107930000Y-53520000D03*
X107930000Y-50980000D03*
X110470000Y-53520000D03*
X110470000Y-50980000D03*
X113010000Y-53520000D03*
X113010000Y-50980000D03*
X115550000Y-53520000D03*
X115550000Y-50980000D03*
X118090000Y-53520000D03*
X118090000Y-50980000D03*
X120630000Y-53520000D03*
X120630000Y-50980000D03*
D17*
X125500000Y-52250000D03*
X125500000Y-101250000D03*
X67500000Y-101250000D03*
X67500000Y-52250000D03*
D18*
X77750000Y-78000000D03*
X80250000Y-78000000D03*
X83350000Y-77000000D03*
X85850000Y-77000000D03*
D19*
X72000000Y-64750000D03*
X72000000Y-67250000D03*
D18*
X89350000Y-58400000D03*
X91850000Y-58400000D03*
D20*
X101000000Y-85600000D03*
D21*
X97500000Y-85600000D03*
D20*
X110000000Y-85600000D03*
D21*
X106500000Y-85600000D03*
D20*
X119000000Y-85600000D03*
D21*
X115500000Y-85600000D03*
D14*
X78700000Y-85090000D03*
X73700000Y-85090000D03*
X78300000Y-92200000D03*
X73300000Y-92200000D03*
D22*
X79800000Y-101800000D03*
X82600000Y-101800000D03*
D14*
X78700000Y-81000000D03*
X73700000Y-81000000D03*
D22*
X124400000Y-87200000D03*
X127200000Y-87200000D03*
D14*
X83900000Y-85000000D03*
X88900000Y-85000000D03*
D23*
X127650000Y-91600000D03*
X125550000Y-91600000D03*
X127650000Y-93800000D03*
X125550000Y-93800000D03*
D22*
X111400000Y-91200000D03*
X111400000Y-94000000D03*
D24*
X81385000Y-68000000D03*
X80115000Y-68000000D03*
X78845000Y-68000000D03*
X77575000Y-68000000D03*
X76305000Y-68000000D03*
X75035000Y-68000000D03*
X82655000Y-68000000D03*
X83925000Y-68000000D03*
X85195000Y-68000000D03*
X86465000Y-68000000D03*
X86465000Y-58500000D03*
X85195000Y-58500000D03*
X83925000Y-58500000D03*
X82655000Y-58500000D03*
X81385000Y-58500000D03*
X80115000Y-58500000D03*
X78845000Y-58500000D03*
X77575000Y-58500000D03*
X76305000Y-58500000D03*
X75035000Y-58500000D03*
D25*
X92710000Y-101600000D03*
D26*
X95250000Y-101600000D03*
D27*
X67310000Y-85090000D03*
D28*
X67310000Y-87630000D03*
D27*
X67290000Y-92700000D03*
D28*
X67290000Y-95240000D03*
D27*
X67040000Y-59460000D03*
D28*
X67040000Y-62000000D03*
D25*
X113030000Y-101600000D03*
D26*
X115570000Y-101600000D03*
D29*
X87850000Y-98500000D03*
X89750000Y-98500000D03*
X88800000Y-95500000D03*
X84750000Y-95500000D03*
X82850000Y-95500000D03*
X83800000Y-98500000D03*
D16*
X78100000Y-96950000D03*
X78100000Y-95050000D03*
X75100000Y-96000000D03*
X123650000Y-80800000D03*
X123650000Y-82700000D03*
X126650000Y-81750000D03*
D29*
X108950000Y-93500000D03*
X107050000Y-93500000D03*
X108000000Y-96500000D03*
D30*
X89350000Y-101800000D03*
X86650000Y-101800000D03*
X72450000Y-70250000D03*
X75150000Y-70250000D03*
X72450000Y-74250000D03*
X75150000Y-74250000D03*
X68550000Y-69800000D03*
X65850000Y-69800000D03*
X75150000Y-72200000D03*
X72450000Y-72200000D03*
X75150000Y-76200000D03*
X72450000Y-76200000D03*
D31*
X72000000Y-59400000D03*
X72000000Y-62100000D03*
D30*
X124250000Y-84800000D03*
X126950000Y-84800000D03*
X120450000Y-91600000D03*
X123150000Y-91600000D03*
X68550000Y-65800000D03*
X65850000Y-65800000D03*
X120450000Y-93800000D03*
X123150000Y-93800000D03*
D31*
X113800000Y-91250000D03*
X113800000Y-93950000D03*
D30*
X65850000Y-71800000D03*
X68550000Y-71800000D03*
X68550000Y-77200000D03*
X65850000Y-77200000D03*
X68550000Y-67800000D03*
X65850000Y-67800000D03*
D32*
X90800000Y-79800000D03*
D33*
X90800000Y-77260000D03*
X90800000Y-74720000D03*
D13*
X77850000Y-73850000D03*
X77850000Y-74800000D03*
X77850000Y-75750000D03*
X80550000Y-75750000D03*
X80550000Y-73850000D03*
D34*
X83450000Y-88600000D03*
X89750000Y-88600000D03*
D35*
X68580000Y-75250000D03*
X68580000Y-74600000D03*
X68580000Y-73950000D03*
X65920000Y-73950000D03*
X65920000Y-74600000D03*
X65920000Y-75250000D03*
D25*
X100330000Y-101600000D03*
D26*
X102870000Y-101600000D03*
X105410000Y-101600000D03*
X107950000Y-101600000D03*
D15*
X127000000Y-57920000D03*
X124460000Y-57920000D03*
X112920000Y-77820000D03*
X115460000Y-77820000D03*
X112920000Y-57920000D03*
X115460000Y-57920000D03*
X124460000Y-77820000D03*
X127000000Y-77820000D03*
M02*
