M48
;DRILL file {KiCad 4.0.7} date Wed Nov 15 19:51:47 2017
;FORMAT={-:-/ absolute / inch / decimal}
FMAT,2
INCH,TZ
T1C0.016
T2C0.030
T3C0.031
T4C0.035
T5C0.040
T6C0.047
%
G90
G05
M72
T1
X2.7008Y-2.9843
X2.7323Y-3.1339
X2.7323Y-3.2126
X2.748Y-2.8268
X2.7795Y-2.6772
X2.811Y-2.8425
X2.8504Y-3.0472
X2.9528Y-2.372
X2.9528Y-2.874
X2.9606Y-2.9685
X2.9764Y-2.6142
X3.Y-3.4173
X3.Y-3.7323
X3.0079Y-3.252
X3.0079Y-3.5748
X3.0315Y-2.7795
X3.0315Y-2.9449
X3.0394Y-2.5354
X3.0472Y-2.622
X3.0787Y-2.5354
X3.0787Y-2.7953
X3.0866Y-3.8661
X3.1024Y-3.252
X3.1024Y-3.5748
X3.1181Y-2.5039
X3.1181Y-2.7717
X3.1181Y-3.8898
X3.1594Y-2.372
X3.2126Y-2.9055
X3.2205Y-3.1496
X3.2283Y-2.6142
X3.2598Y-2.3622
X3.2756Y-2.2362
X3.2835Y-2.874
X3.2913Y-2.6063
X3.3307Y-2.6063
X3.3465Y-3.8346
X3.3701Y-2.3543
X3.3701Y-2.3858
X3.3701Y-3.
X3.378Y-2.5276
X3.4016Y-2.6063
X3.4449Y-2.5472
X3.4488Y-2.3543
X3.4646Y-2.4016
X3.5512Y-2.2992
X3.5748Y-2.8031
X3.6457Y-2.2992
X3.8898Y-2.7323
X4.0551Y-2.8425
X4.1102Y-2.4252
X4.1102Y-2.7717
X4.1654Y-2.5748
X4.2913Y-2.5433
X4.2913Y-2.7087
X4.3228Y-2.9606
X4.4803Y-3.6457
X4.4961Y-2.811
X4.5197Y-2.6378
X4.5433Y-3.5827
X4.5512Y-3.6772
X4.5512Y-3.7323
X4.5512Y-3.7795
X4.5748Y-2.6535
X4.5984Y-2.9764
X4.6063Y-3.6772
X4.6063Y-3.7323
X4.6063Y-3.7795
X4.6535Y-3.6772
X4.6535Y-3.7323
X4.6535Y-3.7795
X4.6614Y-3.0157
X4.6614Y-3.0709
X4.7087Y-3.0157
X4.7087Y-3.0709
X4.748Y-2.9528
X4.7559Y-3.0157
X4.7559Y-3.0709
X4.8031Y-3.0157
X4.8031Y-3.0709
X4.8425Y-2.9921
X5.0157Y-2.9764
X5.0315Y-3.6535
X5.063Y-3.5354
T2
X3.7665Y-2.2823
X3.7665Y-3.0657
X3.8665Y-2.2823
X3.8665Y-3.0657
X4.2209Y-2.2823
X4.2209Y-3.0657
X4.3209Y-2.2823
X4.3209Y-3.0657
X4.4457Y-2.2803
X4.4457Y-3.0638
X4.5457Y-2.2803
X4.5457Y-3.0638
X4.9Y-2.2803
X4.9Y-3.0638
X5.Y-2.2803
X5.Y-3.0638
T3
X3.8386Y-3.3701
X3.9764Y-3.3701
X4.1929Y-3.3701
X4.3307Y-3.3701
X4.5472Y-3.3701
X4.685Y-3.3701
T4
X3.5748Y-2.9417
X3.5748Y-3.0417
X3.5748Y-3.1417
T5
X2.8492Y-2.0071
X2.8492Y-2.1071
X2.9492Y-2.0071
X2.9492Y-2.1071
X3.0492Y-2.0071
X3.0492Y-2.1071
X3.1492Y-2.0071
X3.1492Y-2.1071
X3.2492Y-2.0071
X3.2492Y-2.1071
X3.3492Y-2.0071
X3.3492Y-2.1071
X3.4492Y-2.0071
X3.4492Y-2.1071
X3.5276Y-2.4646
X3.5276Y-2.5646
X3.5276Y-2.6646
X3.5492Y-2.0071
X3.5492Y-2.1071
X3.6276Y-2.4646
X3.6276Y-2.5646
X3.6276Y-2.6646
X3.6492Y-2.0071
X3.6492Y-2.1071
X3.7492Y-2.0071
X3.7492Y-2.1071
X3.8492Y-2.0071
X3.8492Y-2.1071
X3.9492Y-2.0071
X3.9492Y-2.1071
X4.0492Y-2.0071
X4.0492Y-2.1071
X4.1492Y-2.0071
X4.1492Y-2.1071
X4.2492Y-2.0071
X4.2492Y-2.1071
X4.3492Y-2.0071
X4.3492Y-2.1071
X4.4492Y-2.0071
X4.4492Y-2.1071
X4.5492Y-2.0071
X4.5492Y-2.1071
X4.6492Y-2.0071
X4.6492Y-2.1071
X4.7492Y-2.0071
X4.7492Y-2.1071
T6
X2.6394Y-2.3409
X2.6394Y-2.4409
X2.6492Y-3.6496
X2.6492Y-3.7496
X2.65Y-3.35
X2.65Y-3.45
X3.65Y-4.
X3.75Y-4.
X3.95Y-4.
X4.05Y-4.
X4.15Y-4.
X4.25Y-4.
X4.45Y-4.
X4.55Y-4.
T0
M30
